<svg width="40" height="40" viewBox="0 0 40 40" fill="none" xmlns="http://www.w3.org/2000/svg">
<path d="M13.916 26.6573C13.916 26.8868 14.1016 27.0727 14.3313 27.0727C14.5606 27.0727 14.7467 26.8866 14.7467 26.6573V25.2576C14.7467 25.0281 14.5608 24.8423 14.3313 24.8423C14.1016 24.8423 13.916 25.0281 13.916 25.2576V26.6573Z" fill="#494949" stroke="#494949" stroke-width="0.25"/>
<path d="M20.3082 18.2872C20.1669 18.2355 20.0085 18.2654 19.8951 18.3626L19.8948 18.3629C19.2575 18.9124 18.4519 19.2143 17.627 19.2143C16.806 19.2143 16.0029 18.9141 15.3657 18.3685C15.2528 18.2712 15.0954 18.2415 14.9537 18.2933C12.5121 19.1798 10.875 21.5713 10.875 24.2407V27.0841C10.875 27.3138 11.0607 27.4995 11.2903 27.4995H20.4427H20.5677V27.3745V26.7938V26.6688H20.4427H11.7056V24.2407C11.7056 21.9955 13.031 19.9836 15.0216 19.1581C15.7739 19.7315 16.6895 20.0452 17.627 20.0452C18.5686 20.0452 19.487 19.7293 20.2404 19.1522C20.7022 19.3441 21.135 19.6029 21.5302 19.9238L21.6272 20.0027L21.706 19.9055L21.7565 19.8433L21.821 19.9354L21.8928 20.0378L21.9952 19.966L22.0301 19.9415C22.1371 19.8668 22.2023 19.746 22.2068 19.6161M20.3082 18.2872C20.3083 18.2872 20.3083 18.2873 20.3083 18.2873L20.2654 18.4047M20.3082 18.2872C20.3082 18.2872 20.3081 18.2872 20.3081 18.2872L20.2654 18.4047M20.3082 18.2872C20.9386 18.5166 21.5259 18.8502 22.0535 19.2788C22.1548 19.3607 22.2118 19.4857 22.2068 19.6161M20.2654 18.4047C20.167 18.3687 20.056 18.3894 19.9765 18.4575M20.2654 18.4047L19.9765 18.4575M22.2068 19.6161C22.2068 19.616 22.2068 19.616 22.2068 19.6159L22.0819 19.6116L22.2068 19.6165C22.2068 19.6163 22.2068 19.6162 22.2068 19.6161ZM19.9765 18.4575C19.3169 19.0263 18.4825 19.3393 17.627 19.3393C16.7754 19.3393 15.9436 19.028 15.2842 18.4634C15.2053 18.3952 15.0953 18.3745 14.9963 18.4108L19.9765 18.4575Z" fill="#494949" stroke="#494949" stroke-width="0.25"/>
<path d="M13.2188 15.46C13.2188 17.9832 15.191 20.0449 17.6263 20.0449C20.0615 20.0449 22.0341 17.9829 22.0341 15.4596C22.0341 12.9364 20.0615 10.875 17.6263 10.875C15.191 10.875 13.2188 12.9367 13.2188 15.46ZM14.0494 15.4596C14.0494 13.3843 15.6594 11.7056 17.6263 11.7056C19.593 11.7056 21.2035 13.3844 21.2035 15.4596C21.2035 17.5353 19.593 19.214 17.6263 19.214C15.6594 19.214 14.0494 17.5353 14.0494 15.4596Z" fill="#494949" stroke="#494949" stroke-width="0.25"/>
<path d="M23.564 26.0126L23.5641 26.0126C23.6928 26.0364 23.822 26.048 23.9506 26.048C24.3883 26.048 24.8174 25.9117 25.1884 25.6512L25.1885 25.6511C25.667 25.3147 25.9873 24.8142 26.0906 24.2425L26.0906 24.2423C26.1911 23.6813 26.0661 23.1008 25.7411 22.6089L25.7413 22.6088L25.7374 22.6035L25.7364 22.6022C25.4059 22.117 24.9128 21.7909 24.3469 21.6857L24.3466 21.6856C23.7798 21.5817 23.2023 21.7094 22.7222 22.0468L22.7221 22.0468C22.2439 22.3833 21.9231 22.8837 21.82 23.4557L21.82 23.4558C21.7175 24.0267 21.8431 24.6091 22.1723 25.0941L22.1724 25.0943C22.5036 25.5806 22.9976 25.9074 23.564 26.0126ZM23.2 22.7264L23.2001 22.7263C23.4305 22.564 23.694 22.4806 23.9608 22.4806C24.0385 22.4806 24.1165 22.4879 24.1953 22.5024C24.5399 22.5662 24.8433 22.7663 25.0493 23.0687C25.2571 23.3846 25.3349 23.7492 25.2728 24.0955C25.2091 24.4505 25.01 24.7615 24.7109 24.9716L24.7109 24.9716C24.4129 25.1811 24.0593 25.2593 23.716 25.196C23.3708 25.1317 23.0666 24.9311 22.86 24.6274C22.6525 24.3214 22.5742 23.9578 22.6381 23.6028L22.6381 23.6028C22.7018 23.2474 22.9009 22.9365 23.2 22.7264Z" fill="#494949" stroke="#494949" stroke-width="0.25"/>
<mask id="path-5-outside-1_14214_7036" maskUnits="userSpaceOnUse" x="17.9023" y="17.7407" width="12" height="12" fill="black">
<rect fill="white" x="17.9023" y="17.7407" width="12" height="12"/>
<path d="M24.0239 29.0001C23.9871 29.0001 23.9496 28.9967 23.9125 28.9899L22.2108 28.6746C21.8858 28.6142 21.6772 28.31 21.7362 27.982L21.872 27.226C21.8532 27.2135 21.8352 27.2008 21.8184 27.188L21.7966 27.1737L21.1686 27.6153C21.0551 27.7022 20.8966 27.7413 20.7428 27.7155C20.5839 27.6895 20.4411 27.5981 20.3505 27.4646L19.3698 26.0223C19.2842 25.9059 19.2476 25.7508 19.2734 25.5946C19.2992 25.437 19.3884 25.2944 19.5184 25.2032L20.1331 24.7597C20.1281 24.7359 20.124 24.7132 20.1203 24.6921C20.1182 24.6813 20.1165 24.6702 20.1148 24.6589L19.3727 24.5214C19.2206 24.4929 19.0838 24.4017 18.9979 24.2707C18.9097 24.1361 18.8815 23.9752 18.9178 23.8175L19.2261 22.1018C19.2549 21.9415 19.3416 21.8041 19.471 21.7145C19.5998 21.6254 19.7571 21.5925 19.9145 21.6215L20.651 21.7583C20.6625 21.7401 20.6744 21.7226 20.6863 21.7063L20.7046 21.6767L20.2666 21.0325C20.1813 20.9167 20.1447 20.7619 20.1699 20.6057C20.1957 20.4481 20.2849 20.3053 20.4146 20.2137L21.8346 19.2156C21.9484 19.1291 22.1072 19.0909 22.2606 19.1155C22.4194 19.1413 22.5622 19.2328 22.6528 19.3663L23.0886 20.0071C23.0967 20.0051 23.1048 20.0028 23.1127 20.0007C23.1222 19.9978 23.1321 19.9954 23.1422 19.9937C23.1524 19.9917 23.1629 19.9899 23.1734 19.9885L23.3095 19.2311C23.3388 19.0702 23.4256 18.9332 23.5551 18.8435C23.6834 18.7546 23.8405 18.7222 23.9981 18.7509L25.6916 19.0648C26.0168 19.125 26.2252 19.4294 26.1662 19.7574L26.0301 20.5134C26.0492 20.5259 26.0672 20.5387 26.0841 20.5514L26.1058 20.5657L26.7338 20.1241C26.8476 20.0375 27.0064 19.999 27.1598 20.0239C27.3185 20.0497 27.4614 20.1412 27.552 20.2748L28.5251 21.7165C28.6098 21.8315 28.6464 21.9863 28.6212 22.1424C28.5954 22.3 28.5062 22.4429 28.3765 22.5343L27.7424 22.9797C27.745 22.9914 27.7476 23.0027 27.7505 23.0133C27.7532 23.0227 27.7554 23.0319 27.7569 23.0418C27.759 23.0532 27.761 23.0645 27.7627 23.0761L28.5045 23.2136C28.8018 23.2689 29.01 23.5441 29.0001 23.8673C28.9995 23.8815 28.9981 23.8956 28.9954 23.9097L28.6845 25.6397C28.6555 25.8002 28.5687 25.9375 28.4389 26.0273C28.31 26.116 28.1532 26.1478 27.9956 26.1196L27.2596 25.9828C27.2479 26.0011 27.236 26.0185 27.2241 26.0348L27.2058 26.0641L27.644 26.7086C27.7296 26.8251 27.7662 26.98 27.7404 27.1363C27.7145 27.2939 27.6255 27.4365 27.4953 27.5277L26.0759 28.5255C25.9622 28.6123 25.804 28.6511 25.65 28.6259C25.4916 28.5998 25.3487 28.5086 25.2578 28.3754L24.8242 27.7372C24.8052 27.741 24.7866 27.7445 24.7686 27.748C24.7582 27.7497 24.748 27.7518 24.7373 27.7532L24.6012 28.5103C24.5724 28.6707 24.4856 28.8079 24.3561 28.8976C24.2577 28.965 24.143 29.0001 24.0239 29.0001ZM21.7989 26.5268C21.87 26.5268 21.9409 26.5531 21.9963 26.6044C22.026 26.6317 22.06 26.6523 22.0939 26.6747L22.1604 26.7188C22.1894 26.7403 22.2324 26.7695 22.3166 26.8085C22.4365 26.8639 22.5041 26.9934 22.4806 27.1235L22.3079 28.0848L24.0184 28.4189L24.2025 27.4457C24.2228 27.3325 24.3076 27.2426 24.4194 27.2149C24.4791 27.2005 24.5378 27.1925 24.5945 27.1856C24.6182 27.1825 24.6414 27.1798 24.6638 27.1758C24.699 27.1693 24.7843 27.1534 24.8392 27.1316C24.9663 27.0808 25.1112 27.1252 25.1876 27.2376L25.7384 28.0479L27.1615 27.0518L26.6124 26.2243C26.5376 26.114 26.5471 25.9669 26.6363 25.8675C26.6633 25.8373 26.6836 25.8025 26.7057 25.7677L26.7492 25.7004C26.7704 25.671 26.7994 25.6265 26.8387 25.5398C26.8933 25.4179 27.0224 25.35 27.1565 25.3731L28.1018 25.5484L28.4192 23.8333C28.4165 23.8036 28.404 23.7859 28.3985 23.7848L27.4532 23.6094C27.3404 23.5885 27.2504 23.5028 27.2238 23.3908C27.2094 23.3307 27.2022 23.2721 27.1952 23.2158C27.1928 23.1951 27.1905 23.1745 27.1876 23.1551C27.1798 23.1252 27.1728 23.0939 27.1664 23.0615C27.1595 23.0285 27.1537 22.9939 27.1418 22.9629C27.0927 22.8383 27.1357 22.6967 27.2448 22.6194L28.0421 22.0592L27.0709 20.6002L26.2705 21.1597C26.1581 21.2384 26.0066 21.2282 25.9061 21.135C25.8766 21.1077 25.8425 21.0871 25.8085 21.0647L25.742 21.0206C25.713 20.9991 25.6697 20.9695 25.5858 20.9309C25.4658 20.876 25.398 20.7459 25.4215 20.6159L25.5946 19.6546L23.8924 19.3219L23.7084 20.2951C23.6881 20.4078 23.6036 20.498 23.4926 20.5256C23.4325 20.5404 23.3742 20.5483 23.3175 20.5552C23.2978 20.5578 23.2784 20.5602 23.2598 20.563C23.2299 20.571 23.1986 20.5782 23.167 20.5849C23.1352 20.5915 23.1022 20.5973 23.0731 20.609C22.9466 20.6616 22.8008 20.6168 22.7236 20.5035L22.1728 19.6932L20.7497 20.6891L21.2987 21.5165C21.3739 21.6271 21.364 21.7746 21.2744 21.8739C21.2476 21.9038 21.2276 21.9381 21.2058 21.9725L21.1619 22.0406C21.1408 22.0698 21.1118 22.1143 21.0725 22.2011C21.0179 22.323 20.8896 22.3909 20.7547 22.3678L19.8093 22.1924L19.4873 23.9343L20.4248 24.1253C20.5375 24.1463 20.6272 24.2316 20.6542 24.343C20.6686 24.4037 20.6763 24.4627 20.6832 24.5195C20.6861 24.5439 20.689 24.5677 20.6927 24.5907C20.6988 24.6253 20.7143 24.7137 20.7367 24.7716C20.7852 24.8949 20.7436 25.0353 20.6362 25.1127L19.8555 25.676L20.8312 27.1377L21.6323 26.5791C21.6825 26.5443 21.7409 26.5268 21.7989 26.5268Z"/>
</mask>
<path d="M24.0239 29.0001C23.9871 29.0001 23.9496 28.9967 23.9125 28.9899L22.2108 28.6746C21.8858 28.6142 21.6772 28.31 21.7362 27.982L21.872 27.226C21.8532 27.2135 21.8352 27.2008 21.8184 27.188L21.7966 27.1737L21.1686 27.6153C21.0551 27.7022 20.8966 27.7413 20.7428 27.7155C20.5839 27.6895 20.4411 27.5981 20.3505 27.4646L19.3698 26.0223C19.2842 25.9059 19.2476 25.7508 19.2734 25.5946C19.2992 25.437 19.3884 25.2944 19.5184 25.2032L20.1331 24.7597C20.1281 24.7359 20.124 24.7132 20.1203 24.6921C20.1182 24.6813 20.1165 24.6702 20.1148 24.6589L19.3727 24.5214C19.2206 24.4929 19.0838 24.4017 18.9979 24.2707C18.9097 24.1361 18.8815 23.9752 18.9178 23.8175L19.2261 22.1018C19.2549 21.9415 19.3416 21.8041 19.471 21.7145C19.5998 21.6254 19.7571 21.5925 19.9145 21.6215L20.651 21.7583C20.6625 21.7401 20.6744 21.7226 20.6863 21.7063L20.7046 21.6767L20.2666 21.0325C20.1813 20.9167 20.1447 20.7619 20.1699 20.6057C20.1957 20.4481 20.2849 20.3053 20.4146 20.2137L21.8346 19.2156C21.9484 19.1291 22.1072 19.0909 22.2606 19.1155C22.4194 19.1413 22.5622 19.2328 22.6528 19.3663L23.0886 20.0071C23.0967 20.0051 23.1048 20.0028 23.1127 20.0007C23.1222 19.9978 23.1321 19.9954 23.1422 19.9937C23.1524 19.9917 23.1629 19.9899 23.1734 19.9885L23.3095 19.2311C23.3388 19.0702 23.4256 18.9332 23.5551 18.8435C23.6834 18.7546 23.8405 18.7222 23.9981 18.7509L25.6916 19.0648C26.0168 19.125 26.2252 19.4294 26.1662 19.7574L26.0301 20.5134C26.0492 20.5259 26.0672 20.5387 26.0841 20.5514L26.1058 20.5657L26.7338 20.1241C26.8476 20.0375 27.0064 19.999 27.1598 20.0239C27.3185 20.0497 27.4614 20.1412 27.552 20.2748L28.5251 21.7165C28.6098 21.8315 28.6464 21.9863 28.6212 22.1424C28.5954 22.3 28.5062 22.4429 28.3765 22.5343L27.7424 22.9797C27.745 22.9914 27.7476 23.0027 27.7505 23.0133C27.7532 23.0227 27.7554 23.0319 27.7569 23.0418C27.759 23.0532 27.761 23.0645 27.7627 23.0761L28.5045 23.2136C28.8018 23.2689 29.01 23.5441 29.0001 23.8673C28.9995 23.8815 28.9981 23.8956 28.9954 23.9097L28.6845 25.6397C28.6555 25.8002 28.5687 25.9375 28.4389 26.0273C28.31 26.116 28.1532 26.1478 27.9956 26.1196L27.2596 25.9828C27.2479 26.0011 27.236 26.0185 27.2241 26.0348L27.2058 26.0641L27.644 26.7086C27.7296 26.8251 27.7662 26.98 27.7404 27.1363C27.7145 27.2939 27.6255 27.4365 27.4953 27.5277L26.0759 28.5255C25.9622 28.6123 25.804 28.6511 25.65 28.6259C25.4916 28.5998 25.3487 28.5086 25.2578 28.3754L24.8242 27.7372C24.8052 27.741 24.7866 27.7445 24.7686 27.748C24.7582 27.7497 24.748 27.7518 24.7373 27.7532L24.6012 28.5103C24.5724 28.6707 24.4856 28.8079 24.3561 28.8976C24.2577 28.965 24.143 29.0001 24.0239 29.0001ZM21.7989 26.5268C21.87 26.5268 21.9409 26.5531 21.9963 26.6044C22.026 26.6317 22.06 26.6523 22.0939 26.6747L22.1604 26.7188C22.1894 26.7403 22.2324 26.7695 22.3166 26.8085C22.4365 26.8639 22.5041 26.9934 22.4806 27.1235L22.3079 28.0848L24.0184 28.4189L24.2025 27.4457C24.2228 27.3325 24.3076 27.2426 24.4194 27.2149C24.4791 27.2005 24.5378 27.1925 24.5945 27.1856C24.6182 27.1825 24.6414 27.1798 24.6638 27.1758C24.699 27.1693 24.7843 27.1534 24.8392 27.1316C24.9663 27.0808 25.1112 27.1252 25.1876 27.2376L25.7384 28.0479L27.1615 27.0518L26.6124 26.2243C26.5376 26.114 26.5471 25.9669 26.6363 25.8675C26.6633 25.8373 26.6836 25.8025 26.7057 25.7677L26.7492 25.7004C26.7704 25.671 26.7994 25.6265 26.8387 25.5398C26.8933 25.4179 27.0224 25.35 27.1565 25.3731L28.1018 25.5484L28.4192 23.8333C28.4165 23.8036 28.404 23.7859 28.3985 23.7848L27.4532 23.6094C27.3404 23.5885 27.2504 23.5028 27.2238 23.3908C27.2094 23.3307 27.2022 23.2721 27.1952 23.2158C27.1928 23.1951 27.1905 23.1745 27.1876 23.1551C27.1798 23.1252 27.1728 23.0939 27.1664 23.0615C27.1595 23.0285 27.1537 22.9939 27.1418 22.9629C27.0927 22.8383 27.1357 22.6967 27.2448 22.6194L28.0421 22.0592L27.0709 20.6002L26.2705 21.1597C26.1581 21.2384 26.0066 21.2282 25.9061 21.135C25.8766 21.1077 25.8425 21.0871 25.8085 21.0647L25.742 21.0206C25.713 20.9991 25.6697 20.9695 25.5858 20.9309C25.4658 20.876 25.398 20.7459 25.4215 20.6159L25.5946 19.6546L23.8924 19.3219L23.7084 20.2951C23.6881 20.4078 23.6036 20.498 23.4926 20.5256C23.4325 20.5404 23.3742 20.5483 23.3175 20.5552C23.2978 20.5578 23.2784 20.5602 23.2598 20.563C23.2299 20.571 23.1986 20.5782 23.167 20.5849C23.1352 20.5915 23.1022 20.5973 23.0731 20.609C22.9466 20.6616 22.8008 20.6168 22.7236 20.5035L22.1728 19.6932L20.7497 20.6891L21.2987 21.5165C21.3739 21.6271 21.364 21.7746 21.2744 21.8739C21.2476 21.9038 21.2276 21.9381 21.2058 21.9725L21.1619 22.0406C21.1408 22.0698 21.1118 22.1143 21.0725 22.2011C21.0179 22.323 20.8896 22.3909 20.7547 22.3678L19.8093 22.1924L19.4873 23.9343L20.4248 24.1253C20.5375 24.1463 20.6272 24.2316 20.6542 24.343C20.6686 24.4037 20.6763 24.4627 20.6832 24.5195C20.6861 24.5439 20.689 24.5677 20.6927 24.5907C20.6988 24.6253 20.7143 24.7137 20.7367 24.7716C20.7852 24.8949 20.7436 25.0353 20.6362 25.1127L19.8555 25.676L20.8312 27.1377L21.6323 26.5791C21.6825 26.5443 21.7409 26.5268 21.7989 26.5268Z" fill="#494949"/>
<path d="M24.0239 29.0001C23.9871 29.0001 23.9496 28.9967 23.9125 28.9899L22.2108 28.6746C21.8858 28.6142 21.6772 28.31 21.7362 27.982L21.872 27.226C21.8532 27.2135 21.8352 27.2008 21.8184 27.188L21.7966 27.1737L21.1686 27.6153C21.0551 27.7022 20.8966 27.7413 20.7428 27.7155C20.5839 27.6895 20.4411 27.5981 20.3505 27.4646L19.3698 26.0223C19.2842 25.9059 19.2476 25.7508 19.2734 25.5946C19.2992 25.437 19.3884 25.2944 19.5184 25.2032L20.1331 24.7597C20.1281 24.7359 20.124 24.7132 20.1203 24.6921C20.1182 24.6813 20.1165 24.6702 20.1148 24.6589L19.3727 24.5214C19.2206 24.4929 19.0838 24.4017 18.9979 24.2707C18.9097 24.1361 18.8815 23.9752 18.9178 23.8175L19.2261 22.1018C19.2549 21.9415 19.3416 21.8041 19.471 21.7145C19.5998 21.6254 19.7571 21.5925 19.9145 21.6215L20.651 21.7583C20.6625 21.7401 20.6744 21.7226 20.6863 21.7063L20.7046 21.6767L20.2666 21.0325C20.1813 20.9167 20.1447 20.7619 20.1699 20.6057C20.1957 20.4481 20.2849 20.3053 20.4146 20.2137L21.8346 19.2156C21.9484 19.1291 22.1072 19.0909 22.2606 19.1155C22.4194 19.1413 22.5622 19.2328 22.6528 19.3663L23.0886 20.0071C23.0967 20.0051 23.1048 20.0028 23.1127 20.0007C23.1222 19.9978 23.1321 19.9954 23.1422 19.9937C23.1524 19.9917 23.1629 19.9899 23.1734 19.9885L23.3095 19.2311C23.3388 19.0702 23.4256 18.9332 23.5551 18.8435C23.6834 18.7546 23.8405 18.7222 23.9981 18.7509L25.6916 19.0648C26.0168 19.125 26.2252 19.4294 26.1662 19.7574L26.0301 20.5134C26.0492 20.5259 26.0672 20.5387 26.0841 20.5514L26.1058 20.5657L26.7338 20.1241C26.8476 20.0375 27.0064 19.999 27.1598 20.0239C27.3185 20.0497 27.4614 20.1412 27.552 20.2748L28.5251 21.7165C28.6098 21.8315 28.6464 21.9863 28.6212 22.1424C28.5954 22.3 28.5062 22.4429 28.3765 22.5343L27.7424 22.9797C27.745 22.9914 27.7476 23.0027 27.7505 23.0133C27.7532 23.0227 27.7554 23.0319 27.7569 23.0418C27.759 23.0532 27.761 23.0645 27.7627 23.0761L28.5045 23.2136C28.8018 23.2689 29.01 23.5441 29.0001 23.8673C28.9995 23.8815 28.9981 23.8956 28.9954 23.9097L28.6845 25.6397C28.6555 25.8002 28.5687 25.9375 28.4389 26.0273C28.31 26.116 28.1532 26.1478 27.9956 26.1196L27.2596 25.9828C27.2479 26.0011 27.236 26.0185 27.2241 26.0348L27.2058 26.0641L27.644 26.7086C27.7296 26.8251 27.7662 26.98 27.7404 27.1363C27.7145 27.2939 27.6255 27.4365 27.4953 27.5277L26.0759 28.5255C25.9622 28.6123 25.804 28.6511 25.65 28.6259C25.4916 28.5998 25.3487 28.5086 25.2578 28.3754L24.8242 27.7372C24.8052 27.741 24.7866 27.7445 24.7686 27.748C24.7582 27.7497 24.748 27.7518 24.7373 27.7532L24.6012 28.5103C24.5724 28.6707 24.4856 28.8079 24.3561 28.8976C24.2577 28.965 24.143 29.0001 24.0239 29.0001ZM21.7989 26.5268C21.87 26.5268 21.9409 26.5531 21.9963 26.6044C22.026 26.6317 22.06 26.6523 22.0939 26.6747L22.1604 26.7188C22.1894 26.7403 22.2324 26.7695 22.3166 26.8085C22.4365 26.8639 22.5041 26.9934 22.4806 27.1235L22.3079 28.0848L24.0184 28.4189L24.2025 27.4457C24.2228 27.3325 24.3076 27.2426 24.4194 27.2149C24.4791 27.2005 24.5378 27.1925 24.5945 27.1856C24.6182 27.1825 24.6414 27.1798 24.6638 27.1758C24.699 27.1693 24.7843 27.1534 24.8392 27.1316C24.9663 27.0808 25.1112 27.1252 25.1876 27.2376L25.7384 28.0479L27.1615 27.0518L26.6124 26.2243C26.5376 26.114 26.5471 25.9669 26.6363 25.8675C26.6633 25.8373 26.6836 25.8025 26.7057 25.7677L26.7492 25.7004C26.7704 25.671 26.7994 25.6265 26.8387 25.5398C26.8933 25.4179 27.0224 25.35 27.1565 25.3731L28.1018 25.5484L28.4192 23.8333C28.4165 23.8036 28.404 23.7859 28.3985 23.7848L27.4532 23.6094C27.3404 23.5885 27.2504 23.5028 27.2238 23.3908C27.2094 23.3307 27.2022 23.2721 27.1952 23.2158C27.1928 23.1951 27.1905 23.1745 27.1876 23.1551C27.1798 23.1252 27.1728 23.0939 27.1664 23.0615C27.1595 23.0285 27.1537 22.9939 27.1418 22.9629C27.0927 22.8383 27.1357 22.6967 27.2448 22.6194L28.0421 22.0592L27.0709 20.6002L26.2705 21.1597C26.1581 21.2384 26.0066 21.2282 25.9061 21.135C25.8766 21.1077 25.8425 21.0871 25.8085 21.0647L25.742 21.0206C25.713 20.9991 25.6697 20.9695 25.5858 20.9309C25.4658 20.876 25.398 20.7459 25.4215 20.6159L25.5946 19.6546L23.8924 19.3219L23.7084 20.2951C23.6881 20.4078 23.6036 20.498 23.4926 20.5256C23.4325 20.5404 23.3742 20.5483 23.3175 20.5552C23.2978 20.5578 23.2784 20.5602 23.2598 20.563C23.2299 20.571 23.1986 20.5782 23.167 20.5849C23.1352 20.5915 23.1022 20.5973 23.0731 20.609C22.9466 20.6616 22.8008 20.6168 22.7236 20.5035L22.1728 19.6932L20.7497 20.6891L21.2987 21.5165C21.3739 21.6271 21.364 21.7746 21.2744 21.8739C21.2476 21.9038 21.2276 21.9381 21.2058 21.9725L21.1619 22.0406C21.1408 22.0698 21.1118 22.1143 21.0725 22.2011C21.0179 22.323 20.8896 22.3909 20.7547 22.3678L19.8093 22.1924L19.4873 23.9343L20.4248 24.1253C20.5375 24.1463 20.6272 24.2316 20.6542 24.343C20.6686 24.4037 20.6763 24.4627 20.6832 24.5195C20.6861 24.5439 20.689 24.5677 20.6927 24.5907C20.6988 24.6253 20.7143 24.7137 20.7367 24.7716C20.7852 24.8949 20.7436 25.0353 20.6362 25.1127L19.8555 25.676L20.8312 27.1377L21.6323 26.5791C21.6825 26.5443 21.7409 26.5268 21.7989 26.5268Z" stroke="#494949" stroke-width="0.5" mask="url(#path-5-outside-1_14214_7036)"/>
</svg>
