<svg width="16" height="16" viewBox="0 0 16 16" fill="none" xmlns="http://www.w3.org/2000/svg">
<path d="M15.375 6.79172C15.7202 6.79172 16 6.51188 16 6.16665V4.33338C16 4.09713 15.8669 3.88104 15.6557 3.7751L8.28072 0.0666205C8.104 -0.0222068 7.89588 -0.0222068 7.71916 0.0666205L0.344377 3.7751C0.133207 3.88104 8.2664e-05 4.09713 8.2664e-05 4.33338V6.16665C8.2664e-05 6.51188 0.279924 6.79172 0.625155 6.79172H1.20851V12.2934C0.940387 12.3112 0.711405 12.4992 0.644374 12.7626L0.0193013 15.2209C-0.0282765 15.408 0.0132076 15.6063 0.131566 15.7586C0.249924 15.9109 0.432032 16 0.624921 16H15.3747C15.5676 16 15.7497 15.9109 15.8681 15.7586C15.9864 15.6063 16.0279 15.408 15.9803 15.2209L15.3553 12.7626C15.2866 12.4924 15.0473 12.3016 14.7703 12.2925V6.79172H15.3745H15.375ZM1.24999 4.71869L7.99994 1.3245L14.7499 4.71846V5.54157H1.24999V4.71846V4.71869ZM5.5416 12.2915V6.79148H10.4374V12.2915H5.5416ZM4.29169 6.79148V12.2915H2.45842V6.79148H4.29169ZM1.42882 14.7496L1.73608 13.5412H4.91582C4.91582 13.5412 4.91653 13.5412 4.91676 13.5412C4.91699 13.5412 4.91746 13.5412 4.9177 13.5412H14.145C14.145 13.5412 14.1457 13.5412 14.1459 13.5412C14.1461 13.5412 14.1466 13.5412 14.1468 13.5412H14.264L14.5713 14.7496H1.42882ZM13.5208 12.2913H11.6876V6.79125H13.5208V12.2913Z" fill="#494949"/>
</svg>
