<svg width="40" height="40" viewBox="0 0 40 40" fill="none" xmlns="http://www.w3.org/2000/svg">
<path d="M17.0299 19.3898C17.0945 19.3898 17.1597 19.3878 17.2249 19.3843C17.2935 20.2272 17.6491 21.0509 18.2922 21.6941C18.9903 22.3922 19.9176 22.7765 20.9047 22.7765C21.8917 22.7765 22.8198 22.3922 23.5171 21.6941C24.1425 21.0688 24.5145 20.2574 24.5845 19.3837C24.6531 19.3878 24.7225 19.3898 24.7911 19.3898C25.7782 19.3898 26.7062 19.0054 27.4036 18.3074C28.1003 17.6107 28.484 16.6827 28.484 15.6949C28.484 14.7072 28.1003 13.7792 27.4036 13.0825C26.7055 12.3844 25.7775 12 24.7911 12C23.8048 12 22.876 12.3844 22.1787 13.0825C21.5527 13.7085 21.1806 14.5191 21.1106 15.3929C21.042 15.3895 20.9733 15.3867 20.904 15.3867C20.8388 15.3867 20.7743 15.3888 20.7098 15.3922C20.6397 14.5184 20.2677 13.7085 19.6424 13.0831C18.945 12.3844 18.017 12 17.0299 12C16.0429 12 15.1149 12.3844 14.4175 13.0825C12.9767 14.5232 12.9767 16.8673 14.4175 18.3081C15.1156 19.0061 16.0429 19.3905 17.0299 19.3905V19.3898ZM17.0299 12.9582C17.761 12.9582 18.4481 13.2431 18.9649 13.7599C19.4461 14.2411 19.7296 14.8898 19.7618 15.5666C19.2134 15.7443 18.7109 16.0491 18.2922 16.4685C17.7404 17.0204 17.4006 17.7047 17.2716 18.4199C17.1906 18.4275 17.1096 18.4309 17.0299 18.4309C16.2989 18.4309 15.6118 18.1461 15.095 17.6292C14.5781 17.1123 14.2932 16.4252 14.2932 15.6942C14.2932 14.9632 14.5781 14.2761 15.095 13.7593C15.6118 13.2424 16.2989 12.9575 17.0299 12.9575V12.9582ZM24.7918 12.9582C25.5228 12.9582 26.2099 13.2431 26.7268 13.7599C27.7934 14.8266 27.7934 16.5625 26.7268 17.6299C26.2099 18.1468 25.5228 18.4316 24.7918 18.4316C24.7081 18.4316 24.6236 18.4275 24.5385 18.4193C24.4067 17.6841 24.056 17.0073 23.5178 16.4692C23.1019 16.0532 22.6035 15.7498 22.0599 15.5714C22.0915 14.8932 22.3743 14.2432 22.8568 13.7606C23.3737 13.2438 24.0608 12.9589 24.7918 12.9589V12.9582ZM20.9047 16.3443C21.6357 16.3443 22.3228 16.6291 22.8397 17.146C23.9063 18.2126 23.9063 19.9492 22.8397 21.0159C22.3228 21.5328 21.6357 21.8176 20.9047 21.8176C20.1737 21.8176 19.4866 21.5328 18.9697 21.0159C18.4529 20.4991 18.168 19.812 18.168 19.0809C18.168 18.3499 18.4529 17.6628 18.9697 17.146C19.4866 16.6291 20.1737 16.3443 20.9047 16.3443Z" fill="#494949"/>
<path d="M28.9845 24.1733C28.9097 23.6482 28.5919 23.202 28.1347 22.9796C27.6906 22.7634 27.1799 22.7868 26.7344 23.0442L23.2276 25.0697C22.6881 23.4732 20.5575 23.5487 19.1188 23.5995C18.8985 23.607 18.6891 23.6146 18.5031 23.6159C17.9622 23.0346 17.3726 22.6955 16.6045 22.5239C15.9648 22.3804 15.2221 22.3653 14.3929 22.3722V22.1628C14.3929 21.4599 13.8211 20.8889 13.1189 20.8889H11.5141C11.3768 20.8889 11.2478 20.9424 11.151 21.0392C11.0542 21.136 11 21.265 11 21.4023V28.0316C11 28.3151 11.2306 28.5457 11.5141 28.5457H13.1189C13.8149 28.5457 14.3819 27.9849 14.3929 27.2916C14.9249 27.4289 15.4287 27.6637 15.9181 27.8916C16.6368 28.2258 17.3149 28.5423 18.0377 28.5443L23.0677 28.5587H23.0684C23.1576 28.5587 23.2461 28.5354 23.3237 28.4901L28.2397 25.6518C28.7923 25.3326 29.071 24.7801 28.9845 24.1733ZM18.9499 25.2873C18.6671 25.2873 18.4372 25.5173 18.4372 25.8001C18.4372 26.0829 18.6671 26.3128 18.9499 26.3128L22.9826 26.3149C23.0766 26.3149 23.1693 26.2888 23.2496 26.2401L27.2479 23.9317C27.4497 23.8157 27.6076 23.8576 27.7043 23.9138C27.8608 24.0044 27.9707 24.1939 27.9707 24.3751C27.9707 24.4877 27.9288 24.6462 27.7277 24.7622L22.9311 27.5319L18.0391 27.5181C17.5517 27.5168 17.0019 27.2607 16.3649 26.9649C15.7787 26.6924 15.1212 26.387 14.3936 26.238V23.3977C15.163 23.3915 15.8433 23.4038 16.3828 23.5246C16.9971 23.6619 17.4447 23.9406 17.8785 24.4561C17.9725 24.5673 18.1091 24.6339 18.2546 24.6387C18.5202 24.6476 18.8305 24.6366 19.1593 24.6256C20.3289 24.5858 21.7566 24.5378 22.1918 25.2894L18.9513 25.2873H18.9499ZM13.364 22.1628V27.2724C13.364 27.4056 13.2514 27.5181 13.1182 27.5181H12.0275V21.9171H13.1182C13.2514 21.9171 13.364 22.0297 13.364 22.1628Z" fill="#494949"/>
</svg>
