<svg width="32" height="32" viewBox="0 0 32 32" fill="none" xmlns="http://www.w3.org/2000/svg">
<path d="M26.6668 11.3566L18.6668 4.93294C17.9334 4.33215 16.984 4 16.0001 4C15.0162 4 14.0668 4.33215 13.3335 4.93294L5.33346 11.3566C4.90995 11.7035 4.57199 12.1291 4.34209 12.605C4.11218 13.0809 3.99561 13.5962 4.00013 14.1166V24.7901C4.00013 25.7618 4.42155 26.6937 5.1717 27.3807C5.92184 28.0678 6.93926 28.4538 8.00013 28.4538H24.0001C25.061 28.4538 26.0784 28.0678 26.8286 27.3807C27.5787 26.6937 28.0001 25.7618 28.0001 24.7901V14.1044C28.0027 13.586 27.8853 13.0731 27.6554 12.5994C27.4256 12.1258 27.0886 11.7022 26.6668 11.3566ZM18.6668 26.0113H13.3335V19.9052C13.3335 19.5813 13.4739 19.2707 13.724 19.0417C13.974 18.8126 14.3132 18.684 14.6668 18.684H17.3335C17.6871 18.684 18.0262 18.8126 18.2763 19.0417C18.5263 19.2707 18.6668 19.5813 18.6668 19.9052V26.0113ZM25.3335 24.7901C25.3335 25.114 25.193 25.4246 24.9429 25.6537C24.6929 25.8827 24.3537 26.0113 24.0001 26.0113H21.3335V19.9052C21.3335 18.9335 20.912 18.0017 20.1619 17.3146C19.4117 16.6275 18.3943 16.2415 17.3335 16.2415H14.6668C13.6059 16.2415 12.5885 16.6275 11.8384 17.3146C11.0882 18.0017 10.6668 18.9335 10.6668 19.9052V26.0113H8.00013C7.6465 26.0113 7.30737 25.8827 7.05732 25.6537C6.80727 25.4246 6.66679 25.114 6.66679 24.7901V14.1044C6.66703 13.931 6.70758 13.7596 6.78575 13.6017C6.86391 13.4438 6.9779 13.3029 7.12013 13.1884L15.1201 6.77699C15.3634 6.5812 15.6762 6.47323 16.0001 6.47323C16.324 6.47323 16.6368 6.5812 16.8801 6.77699L24.8801 13.1884C25.0223 13.3029 25.1363 13.4438 25.2145 13.6017C25.2927 13.7596 25.3332 13.931 25.3335 14.1044V24.7901Z" fill="#26A6E0"/>
</svg>
