<svg width="32" height="32" viewBox="0 0 32 32" fill="none" xmlns="http://www.w3.org/2000/svg">
<path d="M29.3335 14.4667V11.2C29.334 10.8391 29.2633 10.4817 29.1255 10.1483C28.9876 9.81479 28.7853 9.51179 28.5302 9.25663C28.275 9.00148 27.972 8.79918 27.6386 8.66133C27.3051 8.52349 26.9477 8.4528 26.5868 8.45333H24.8002L10.2002 2.37333C9.95192 2.26848 9.68521 2.21432 9.41573 2.21405C9.14625 2.21378 8.87943 2.2674 8.63097 2.37175C8.38251 2.4761 8.15743 2.62908 7.96896 2.82169C7.78048 3.01431 7.63243 3.24266 7.5335 3.49333L5.54683 8.45333H4.08017C3.71932 8.4528 3.36192 8.52349 3.02844 8.66133C2.69496 8.79918 2.39196 9.00148 2.1368 9.25663C1.88165 9.51179 1.67935 9.81479 1.5415 10.1483C1.40366 10.4817 1.33297 10.8391 1.3335 11.2V27.04C1.33297 27.4008 1.40366 27.7582 1.5415 28.0917C1.67935 28.4252 1.88165 28.7282 2.1368 28.9834C2.39196 29.2385 2.69496 29.4408 3.02844 29.5787C3.36192 29.7165 3.71932 29.7872 4.08017 29.7867H26.5868C26.9477 29.7872 27.3051 29.7165 27.6386 29.5787C27.972 29.4408 28.275 29.2385 28.5302 28.9834C28.7853 28.7282 28.9876 28.4252 29.1255 28.0917C29.2633 27.7582 29.334 27.4008 29.3335 27.04V23.7733C29.6901 23.7609 30.0281 23.611 30.2766 23.355C30.5251 23.099 30.665 22.7568 30.6668 22.4V15.84C30.665 15.4832 30.5251 15.141 30.2766 14.885C30.0281 14.629 29.6901 14.4791 29.3335 14.4667ZM8.7735 3.98666C8.80549 3.89983 8.8552 3.82061 8.91947 3.75404C8.98375 3.68747 9.06118 3.63501 9.14683 3.59999C9.31838 3.53345 9.50862 3.53345 9.68017 3.59999L21.3335 8.45333H18.1068L10.2135 5.82666C10.0507 5.76997 9.87219 5.77858 9.71556 5.85068C9.55894 5.92278 9.43633 6.05276 9.3735 6.21333L8.50683 8.45333H6.98683L8.7735 3.98666ZM13.8935 8.45333H9.94683L10.3868 7.29333L13.8935 8.45333ZM28.0002 27.04C27.9998 27.4147 27.8508 27.774 27.5858 28.039C27.3208 28.304 26.9616 28.453 26.5868 28.4533H4.08017C3.70543 28.453 3.34615 28.304 3.08118 28.039C2.8162 27.774 2.66719 27.4147 2.66683 27.04V11.2C2.66928 10.8259 2.81897 10.4678 3.08349 10.2033C3.34801 9.9388 3.70608 9.78911 4.08017 9.78666H26.5868C26.9609 9.78911 27.319 9.9388 27.5835 10.2033C27.848 10.4678 27.9977 10.8259 28.0002 11.2V14.4533H22.0002C20.7625 14.4533 19.5755 14.945 18.7003 15.8202C17.8252 16.6953 17.3335 17.8823 17.3335 19.12C17.3335 20.3577 17.8252 21.5447 18.7003 22.4198C19.5755 23.295 20.7625 23.7867 22.0002 23.7867H28.0002V27.04ZM29.3335 22.4C29.3326 22.4138 29.3266 22.4269 29.3168 22.4367C29.307 22.4465 29.294 22.4524 29.2802 22.4533H22.0002C21.1161 22.4533 20.2683 22.1021 19.6431 21.477C19.018 20.8519 18.6668 20.004 18.6668 19.12C18.6668 18.2359 19.018 17.3881 19.6431 16.763C20.2683 16.1379 21.1161 15.7867 22.0002 15.7867L29.3335 15.84V22.4Z" fill="#1E4B83"/>
<path d="M22.0003 14.4533H28.0003V11.2C27.9979 10.8259 27.8482 10.4678 27.5837 10.2033C27.3191 9.9388 26.9611 9.78911 26.587 9.78667H4.08033C3.70624 9.78911 3.34817 9.9388 3.08365 10.2033C2.81913 10.4678 2.66944 10.8259 2.66699 11.2V27.04C2.66735 27.4147 2.81636 27.774 3.08134 28.039C3.34631 28.304 3.70559 28.453 4.08033 28.4533H26.587C26.9617 28.453 27.321 28.304 27.586 28.039C27.851 27.774 28 27.4147 28.0003 27.04V23.7867H22.0003C20.7627 23.7867 19.5757 23.295 18.7005 22.4198C17.8253 21.5447 17.3337 20.3577 17.3337 19.12C17.3337 17.8823 17.8253 16.6953 18.7005 15.8202C19.5757 14.945 20.7627 14.4533 22.0003 14.4533ZM6.00033 12.4533H8.66699C8.8438 12.4533 9.01337 12.5236 9.1384 12.6486C9.26342 12.7736 9.33366 12.9432 9.33366 13.12C9.33366 13.2968 9.26342 13.4664 9.1384 13.5914C9.01337 13.7164 8.8438 13.7867 8.66699 13.7867H6.00033C5.82351 13.7867 5.65395 13.7164 5.52892 13.5914C5.4039 13.4664 5.33366 13.2968 5.33366 13.12C5.33366 12.9432 5.4039 12.7736 5.52892 12.6486C5.65395 12.5236 5.82351 12.4533 6.00033 12.4533ZM11.3337 16.4533H6.00033C5.82351 16.4533 5.65395 16.3831 5.52892 16.2581C5.4039 16.133 5.33366 15.9635 5.33366 15.7867C5.33366 15.6099 5.4039 15.4403 5.52892 15.3153C5.65395 15.1902 5.82351 15.12 6.00033 15.12H11.3337C11.5105 15.12 11.68 15.1902 11.8051 15.3153C11.9301 15.4403 12.0003 15.6099 12.0003 15.7867C12.0003 15.9635 11.9301 16.133 11.8051 16.2581C11.68 16.3831 11.5105 16.4533 11.3337 16.4533Z" fill="white"/>
<path d="M13.8934 8.45334H9.94678L10.3868 7.29333L13.8934 8.45334Z" fill="white"/>
<path d="M22.0003 15.7867C21.1163 15.7867 20.2684 16.1379 19.6433 16.763C19.0182 17.3881 18.667 18.2359 18.667 19.12C18.667 20.0041 19.0182 20.8519 19.6433 21.477C20.2684 22.1021 21.1163 22.4533 22.0003 22.4533H29.2803C29.2942 22.4524 29.3072 22.4465 29.317 22.4367C29.3268 22.4269 29.3327 22.4138 29.3337 22.4V15.84L22.0003 15.7867ZM22.0003 21.12C21.6048 21.12 21.2181 21.0027 20.8892 20.7829C20.5603 20.5632 20.3039 20.2508 20.1526 19.8854C20.0012 19.5199 19.9616 19.1178 20.0388 18.7298C20.1159 18.3419 20.3064 17.9855 20.5861 17.7058C20.8658 17.4261 21.2222 17.2356 21.6101 17.1584C21.9981 17.0813 22.4002 17.1209 22.7657 17.2722C23.1311 17.4236 23.4435 17.68 23.6633 18.0089C23.883 18.3378 24.0003 18.7244 24.0003 19.12C24.0003 19.6504 23.7896 20.1591 23.4145 20.5342C23.0395 20.9093 22.5308 21.12 22.0003 21.12Z" fill="#26A6E0"/>
<path d="M21.3335 8.45332H18.1068L10.2135 5.82666C10.0506 5.76997 9.87217 5.77858 9.71555 5.85068C9.55892 5.92278 9.43632 6.05276 9.37348 6.21332L8.50682 8.45332H6.98682L8.77348 3.98666C8.80547 3.89983 8.85518 3.8206 8.91946 3.75403C8.98373 3.68746 9.06116 3.635 9.14682 3.59999C9.31837 3.53344 9.5086 3.53344 9.68015 3.59999L21.3335 8.45332Z" fill="#26A6E0"/>
<path d="M22 17.12C21.6044 17.12 21.2178 17.2373 20.8889 17.4571C20.56 17.6768 20.3036 17.9892 20.1522 18.3546C20.0009 18.7201 19.9613 19.1222 20.0384 19.5102C20.1156 19.8981 20.3061 20.2545 20.5858 20.5342C20.8655 20.8139 21.2219 21.0044 21.6098 21.0816C21.9978 21.1587 22.3999 21.1191 22.7654 20.9678C23.1308 20.8164 23.4432 20.56 23.6629 20.2311C23.8827 19.9022 24 19.5156 24 19.12C24 18.5896 23.7893 18.0809 23.4142 17.7058C23.0391 17.3307 22.5304 17.12 22 17.12ZM22 19.7867C21.8681 19.7867 21.7393 19.7476 21.6296 19.6743C21.52 19.6011 21.4345 19.4969 21.3841 19.3751C21.3336 19.2533 21.3204 19.1193 21.3461 18.9899C21.3719 18.8606 21.4354 18.7418 21.5286 18.6486C21.6218 18.5554 21.7406 18.4919 21.8699 18.4661C21.9993 18.4404 22.1333 18.4536 22.2551 18.5041C22.3769 18.5545 22.4811 18.64 22.5543 18.7496C22.6276 18.8592 22.6667 18.9881 22.6667 19.12C22.6667 19.2968 22.5964 19.4664 22.4714 19.5914C22.3464 19.7164 22.1768 19.7867 22 19.7867Z" fill="#303754"/>
<path d="M22.0002 19.7867C22.3684 19.7867 22.6668 19.4882 22.6668 19.12C22.6668 18.7518 22.3684 18.4533 22.0002 18.4533C21.632 18.4533 21.3335 18.7518 21.3335 19.12C21.3335 19.4882 21.632 19.7867 22.0002 19.7867Z" fill="#2C98F6"/>
<path d="M9.3335 13.12C9.3335 13.2968 9.26326 13.4664 9.13823 13.5914C9.01321 13.7164 8.84364 13.7867 8.66683 13.7867H6.00016C5.82335 13.7867 5.65378 13.7164 5.52876 13.5914C5.40373 13.4664 5.3335 13.2968 5.3335 13.12C5.3335 12.9432 5.40373 12.7736 5.52876 12.6486C5.65378 12.5236 5.82335 12.4533 6.00016 12.4533H8.66683C8.84364 12.4533 9.01321 12.5236 9.13823 12.6486C9.26326 12.7736 9.3335 12.9432 9.3335 13.12Z" fill="#303754"/>
<path d="M12.0002 15.7867C12.0002 15.9635 11.9299 16.133 11.8049 16.2581C11.6799 16.3831 11.5103 16.4533 11.3335 16.4533H6.00016C5.82335 16.4533 5.65378 16.3831 5.52876 16.2581C5.40373 16.133 5.3335 15.9635 5.3335 15.7867C5.3335 15.6099 5.40373 15.4403 5.52876 15.3153C5.65378 15.1902 5.82335 15.12 6.00016 15.12H11.3335C11.5103 15.12 11.6799 15.1902 11.8049 15.3153C11.9299 15.4403 12.0002 15.6099 12.0002 15.7867Z" fill="#303754"/>
</svg>
