<svg width="30" height="30" viewBox="0 0 30 30" fill="none" xmlns="http://www.w3.org/2000/svg">
<g opacity="0.7">
<path d="M16.7999 1.5C17.9478 1.5 18.8999 2.45216 18.8999 3.6V4.65C19.1247 4.7336 19.3468 4.82379 19.5655 4.92188L20.3062 4.18125C21.1177 3.36969 22.4665 3.36969 23.278 4.18125L25.8187 6.72188C26.6302 7.53344 26.6302 8.87282 25.8187 9.68439L25.078 10.425C25.1779 10.6473 25.2651 10.8716 25.3499 11.1H26.3999C27.5478 11.1 28.4999 12.0522 28.4999 13.2V16.8C28.4999 17.9478 27.5478 18.9 26.3999 18.9H25.3499C25.2664 19.1247 25.1761 19.3468 25.078 19.5656L25.8187 20.3063C26.6302 21.1178 26.6302 22.4572 25.8187 23.2688L23.278 25.8094C22.4665 26.6209 21.1177 26.6209 20.3062 25.8094L19.5655 25.0688C19.3468 25.1668 19.1247 25.257 18.8999 25.3406V26.4C18.8999 27.5478 17.9478 28.5 16.7999 28.5H13.1999C12.0521 28.5 11.0999 27.5478 11.0999 26.4V25.3406C10.878 25.2574 10.6593 25.1659 10.4437 25.0688L9.70305 25.8094C8.89338 26.619 7.55274 26.6152 6.74055 25.8094H6.73125L4.18125 23.2781C4.18122 23.2751 4.18122 23.2718 4.18125 23.2688C3.36969 22.4573 3.36969 21.1179 4.18125 20.3063L4.93125 19.5563C4.83261 19.3411 4.73547 19.1237 4.65 18.9001H3.6C2.45217 18.9001 1.5 17.9479 1.5 16.8001V13.2001C1.5 12.0523 2.45217 11.1001 3.6 11.1001H4.65C4.73673 10.8727 4.8309 10.6531 4.93125 10.4344L4.18125 9.68445C3.36969 8.87289 3.36969 7.53351 4.18125 6.72195L6.73125 4.18132C7.54281 3.36976 8.89158 3.36976 9.70311 4.18132L10.4437 4.92195C10.6594 4.82478 10.8781 4.73332 11.1 4.65007V3.60007C11.1 2.45224 12.0522 1.50007 13.2 1.50007H16.8L16.7999 1.5ZM16.7999 3.3H13.1999C13.0182 3.3 12.8999 3.41824 12.8999 3.6V5.25C12.8966 5.62985 12.6258 5.99232 12.2624 6.10313C11.6958 6.27754 11.1588 6.49851 10.6499 6.76875C10.3121 6.9481 9.86064 6.88018 9.59055 6.60938L8.42805 5.44688C8.29947 5.31827 8.1348 5.31827 8.00619 5.44688C8.00622 5.45 8.00622 5.45314 8.00619 5.45623L5.45619 7.98748C5.32761 8.11609 5.32761 8.29013 5.45619 8.41873L6.62805 9.59061C6.89889 9.8607 6.96681 10.3122 6.78744 10.65C6.51324 11.1674 6.28356 11.705 6.11244 12.2625C6.00072 12.6288 5.63295 12.9007 5.24994 12.9H3.59994C3.4182 12.9 3.29994 13.0182 3.29994 13.2V16.8C3.29994 16.9818 3.4182 17.1 3.59994 17.1H5.24994C5.63064 17.097 5.99742 17.3652 6.11244 17.7281C6.28356 18.2857 6.51324 18.8326 6.78744 19.35C6.96243 19.6858 6.89478 20.1312 6.62805 20.4L5.45619 21.5719C5.32761 21.7005 5.32761 21.8745 5.45619 22.0031L8.00619 24.5437C8.1348 24.6723 8.29944 24.6723 8.42805 24.5437L9.59055 23.3812C9.86067 23.1104 10.3121 23.0425 10.6499 23.2219C11.1588 23.4921 11.6958 23.7131 12.2624 23.8875C12.6288 23.9992 12.9006 24.367 12.8999 24.75V26.4C12.8999 26.5817 13.0182 26.7 13.1999 26.7H16.7999C16.9817 26.7 17.0999 26.5817 17.0999 26.4V24.75C17.0999 24.367 17.3711 23.9992 17.7374 23.8875C18.3091 23.712 18.8505 23.4921 19.3593 23.2219C19.6971 23.0425 20.1486 23.1104 20.4187 23.3812L21.5812 24.5437C21.7098 24.6723 21.8744 24.6723 22.003 24.5437L24.5437 22.0031C24.6723 21.8745 24.6723 21.7005 24.5437 21.5719L23.3812 20.4094C23.1145 20.1406 23.0468 19.6951 23.2218 19.3594C23.492 18.8506 23.712 18.2998 23.8874 17.7281C24.0025 17.3652 24.3693 17.0981 24.7499 17.1H26.3999C26.5817 17.1 26.6999 16.9818 26.6999 16.8V13.2C26.6999 13.0182 26.5817 12.9 26.3999 12.9H24.7499C24.367 12.9 23.9992 12.6288 23.8874 12.2625C23.712 11.6908 23.492 11.1494 23.2218 10.6406C23.0425 10.3028 23.1104 9.85134 23.3812 9.58125L24.5437 8.41873C24.6723 8.29013 24.6723 8.11609 24.5437 7.98748L22.003 5.44686C21.8745 5.31825 21.7098 5.31825 21.5812 5.44686L20.4187 6.60936C20.1486 6.88016 19.6971 6.94808 19.3593 6.76873C18.8506 6.49855 18.3091 6.27856 17.7374 6.10311C17.3741 5.9923 17.1032 5.62984 17.0999 5.24998V3.59998C17.0999 3.41822 16.9817 3.29998 16.7999 3.29998V3.3ZM14.9999 8.7C18.4687 8.7 21.2999 11.5312 21.2999 15C21.2999 18.4687 18.4687 21.3 14.9999 21.3C11.5312 21.3 8.69994 18.4687 8.69994 15C8.69994 11.5312 11.5312 8.7 14.9999 8.7ZM14.9999 10.5C12.504 10.5 10.4999 12.504 10.4999 15C10.4999 17.4959 12.504 19.5 14.9999 19.5C17.4959 19.5 19.4999 17.4959 19.4999 15C19.4999 12.504 17.4959 10.5 14.9999 10.5Z" fill="#26A6E0"/>
</g>
</svg>
