<svg width="40" height="40" viewBox="0 0 40 40" fill="none" xmlns="http://www.w3.org/2000/svg">
<g clip-path="url(#clip0_1488_5129)">
<path d="M28.902 19.6103C28.902 19.0502 28.6765 18.5192 28.2643 18.1215C27.8594 17.7287 27.3283 17.5129 26.7682 17.5129H22.537V12.5737L20.9633 11L19.9134 12.0499L18.8635 11L17.8136 12.0499L16.7685 11L15.7186 12.0499L14.6711 11L13.6212 12.0499L12.5737 11L11 12.5737V25.3788C11 26.824 12.176 28.0024 13.6236 28.0024H23.5894C24.1495 28.0024 24.6805 27.7866 25.0854 27.3938C25.4976 26.9937 25.7231 26.4651 25.7231 25.905V24.8551H28.9044V19.6103H28.902ZM12.0499 25.3788V13.0077L12.5737 12.484L13.6236 13.5339L14.6735 12.484L15.7234 13.5339L16.7734 12.484L17.8233 13.5339L18.8732 12.484L19.9231 13.5339L20.973 12.484L21.4968 13.0077V25.9026C21.4968 26.2857 21.6011 26.6421 21.7781 26.9525H13.6236C12.7555 26.9525 12.0499 26.2469 12.0499 25.3788ZM24.6732 25.9026C24.6732 26.4724 24.1762 26.9525 23.5894 26.9525C23.0026 26.9525 22.5394 26.4821 22.5394 25.9026V18.5604H24.9545C24.7751 18.8684 24.6732 19.2272 24.6732 19.6103V25.905V25.9026ZM27.8545 23.8052H25.7207V19.6103C25.7207 19.0308 26.1911 18.5604 26.7706 18.5604C27.3502 18.5604 27.8545 19.0405 27.8545 19.6103V23.8052Z" fill="#494949"/>
<path d="M20.4401 24.8551H15.1953V25.905H20.4401V24.8551Z" fill="#494949"/>
<path d="M14.1476 24.8551H13.0977V25.905H14.1476V24.8551Z" fill="#494949"/>
<path d="M20.4401 22.7552H15.1953V23.8052H20.4401V22.7552Z" fill="#494949"/>
<path d="M14.1476 22.7552H13.0977V23.8052H14.1476V22.7552Z" fill="#494949"/>
<path d="M16.7714 19.6225C16.478 19.6225 16.2477 19.4018 16.2477 19.1205H15.1977C15.1977 19.5424 15.3626 19.9353 15.6633 20.2262C15.8306 20.3887 16.027 20.5075 16.2428 20.5827V21.7078H17.2927V20.5827C17.9038 20.3669 18.3451 19.7825 18.3451 19.0987C18.3451 18.2306 17.6395 17.525 16.7714 17.525C16.4829 17.525 16.2477 17.2898 16.2477 17.0013C16.2477 16.7127 16.4829 16.4775 16.7714 16.4775C17.06 16.4775 17.2952 16.7273 17.2952 17.0255H18.3451C18.3451 16.3321 17.9062 15.738 17.2927 15.5198V14.4019H16.2428V15.5198C15.6342 15.738 15.1953 16.3199 15.1953 17.0013C15.1953 17.8694 15.9009 18.575 16.769 18.575C17.0575 18.575 17.2927 18.8102 17.2927 19.0987C17.2927 19.3873 17.0575 19.6225 16.769 19.6225H16.7714Z" fill="#494949"/>
</g>
<defs>
<clipPath id="clip0_1488_5129">
<rect width="17.902" height="17" fill="white" transform="translate(11 11)"/>
</clipPath>
</defs>
</svg>
