<svg width="40" height="40" viewBox="0 0 40 40" fill="none" xmlns="http://www.w3.org/2000/svg">
<path d="M27.0661 12H12.0652C11.4777 12 11 12.4779 11 13.0653V25.0538C11 25.6412 11.4777 26.1191 12.0652 26.1191H13.3483C13.5303 26.1191 13.6777 25.9715 13.6777 25.7896C13.6777 25.6077 13.5303 25.4602 13.3483 25.4602H12.0652C11.8413 25.4602 11.6589 25.2778 11.6589 25.0538V15.8196H27.4725V25.0538C27.4725 25.2778 27.29 25.4602 27.0661 25.4602H25.8783C25.6961 25.4602 25.5488 25.6077 25.5488 25.7896C25.5488 25.9715 25.6961 26.1191 25.8783 26.1191H27.0661C27.6535 26.1191 28.1314 25.6412 28.1314 25.0538V13.0653C28.1314 12.4779 27.6535 12 27.0661 12ZM27.4725 15.1607H11.6589V13.0653C11.6589 12.8412 11.8413 12.6589 12.0652 12.6589H27.0661C27.29 12.6589 27.4725 12.8412 27.4725 13.0653V15.1607Z" fill="black"/>
<path d="M22.6637 14.3372C22.8998 14.3372 23.0911 14.1459 23.0911 13.9098C23.0911 13.6738 22.8998 13.4824 22.6637 13.4824C22.4277 13.4824 22.2363 13.6738 22.2363 13.9098C22.2363 14.1459 22.4277 14.3372 22.6637 14.3372Z" fill="black"/>
<path d="M24.2321 14.3372C24.4681 14.3372 24.6595 14.1459 24.6595 13.9098C24.6595 13.6738 24.4681 13.4824 24.2321 13.4824C23.996 13.4824 23.8047 13.6738 23.8047 13.9098C23.8047 14.1459 23.996 14.3372 24.2321 14.3372Z" fill="black"/>
<path d="M25.7985 14.3372C26.0345 14.3372 26.2259 14.1459 26.2259 13.9098C26.2259 13.6738 26.0345 13.4824 25.7985 13.4824C25.5624 13.4824 25.3711 13.6738 25.3711 13.9098C25.3711 14.1459 25.5624 14.3372 25.7985 14.3372Z" fill="black"/>
<path d="M19.5647 21.4736C18.116 21.4736 16.9375 22.6521 16.9375 24.1007C16.9375 25.5492 18.116 26.7277 19.5647 26.7277C21.0132 26.7277 22.1917 25.5492 22.1917 24.1007C22.1917 22.6521 21.0132 21.4736 19.5647 21.4736ZM19.5647 26.0688C18.4796 26.0688 17.5964 25.1859 17.5964 24.1007C17.5964 23.0155 18.4796 22.1325 19.5647 22.1325C20.6499 22.1325 21.5328 23.0155 21.5328 24.1007C21.5328 25.1859 20.6499 26.0688 19.5647 26.0688Z" fill="black"/>
<path d="M24.2441 23.1914L23.1464 22.8078C23.1069 22.6998 23.0614 22.5917 23.011 22.4843L23.5164 21.4351C23.5772 21.309 23.5517 21.1582 23.4526 21.0592L22.6069 20.2132C22.5081 20.1144 22.3572 20.0885 22.2308 20.1494L21.1816 20.6552C21.0742 20.6044 20.966 20.5592 20.8583 20.5197L20.4747 19.4221C20.4284 19.2898 20.3036 19.2012 20.1637 19.2012H18.9672C18.8272 19.2012 18.7024 19.2898 18.6561 19.4221L18.2726 20.5197C18.1648 20.5592 18.0566 20.6044 17.9492 20.6552L16.9001 20.1494C16.774 20.0882 16.6227 20.1141 16.524 20.2132L15.6782 21.0592C15.5791 21.1582 15.5537 21.309 15.6144 21.4351L16.1199 22.4843C16.0694 22.5917 16.024 22.6998 15.9844 22.8078L14.8867 23.1914C14.7545 23.2376 14.666 23.3622 14.666 23.5023V24.6987C14.666 24.8389 14.7545 24.9635 14.8867 25.0097L15.9844 25.3933C16.024 25.5015 16.0694 25.6097 16.1199 25.717L15.6144 26.766C15.5537 26.8921 15.5791 27.0429 15.6782 27.142L16.524 27.9879C16.6231 28.0872 16.774 28.1128 16.9001 28.0517L17.9489 27.546C18.0566 27.597 18.1648 27.6422 18.2729 27.6817L18.6561 28.7791C18.7024 28.9113 18.8272 28.9999 18.9672 28.9999H20.1637C20.3036 28.9999 20.4284 28.9114 20.4747 28.7791L20.8583 27.6816C20.9664 27.6422 21.0745 27.5969 21.1819 27.546L22.2308 28.0517C22.3572 28.1126 22.5081 28.0869 22.6069 27.9879L23.4526 27.142C23.5517 27.0429 23.5772 26.8921 23.5164 26.766L23.011 25.7168C23.0614 25.6097 23.1069 25.5015 23.1464 25.3933L24.2441 25.0097C24.3764 24.9635 24.4648 24.8389 24.4648 24.6987V23.5023C24.4648 23.3622 24.3764 23.2376 24.2441 23.1914ZM23.8059 24.4648L22.7774 24.8243C22.6789 24.8586 22.6027 24.9376 22.5718 25.0371C22.5171 25.2115 22.4435 25.3878 22.3524 25.5611C22.3038 25.6534 22.3019 25.7635 22.3473 25.8574L22.8214 26.8414L22.3063 27.3567L21.3226 26.8823C21.2279 26.8369 21.1182 26.8387 21.0262 26.8874C20.8522 26.9789 20.6758 27.0526 20.5021 27.1069C20.4027 27.1379 20.3236 27.2142 20.2891 27.3126L19.9298 28.341H19.2011L18.842 27.3127C18.8076 27.2142 18.7285 27.1378 18.6287 27.1069C18.4553 27.0528 18.279 26.9789 18.1047 26.8874C18.0123 26.8387 17.9026 26.8371 17.8082 26.8823L16.8245 27.3567L16.3094 26.8414L16.7836 25.8574C16.829 25.7635 16.8271 25.6534 16.7785 25.5611C16.6874 25.3878 16.6137 25.2115 16.5591 25.0371C16.5282 24.9376 16.4519 24.8586 16.3534 24.8243L15.3249 24.4648V23.7363L16.3538 23.3768C16.4522 23.3423 16.5288 23.2633 16.5597 23.1636C16.6137 22.99 16.6874 22.8139 16.7785 22.6402C16.8271 22.5478 16.829 22.4378 16.7836 22.3438L16.3094 21.3597L16.8245 20.8444L17.8087 21.319C17.9029 21.364 18.0126 21.3619 18.1049 21.3138C18.279 21.2225 18.4553 21.1488 18.6284 21.0949C18.7281 21.0638 18.8073 20.9874 18.8417 20.8889L19.2011 19.8601H19.9298L20.2891 20.8889C20.3236 20.9874 20.4027 21.0638 20.5024 21.0949C20.6755 21.1488 20.8519 21.2225 21.0259 21.3138C21.1182 21.3622 21.2279 21.3642 21.3222 21.319L22.3063 20.8444L22.8214 21.3597L22.3473 22.3438C22.3019 22.4378 22.3038 22.5478 22.3524 22.6402C22.4435 22.8139 22.5171 22.99 22.5712 23.1636C22.602 23.2633 22.6786 23.3423 22.7771 23.3768L23.8059 23.7363V24.4648Z" fill="black"/>
</svg>
