<svg width="40" height="40" viewBox="0 0 40 40" fill="none" xmlns="http://www.w3.org/2000/svg">
<path d="M13.1666 12.55H18.1666C18.5064 12.55 18.7834 12.8271 18.7834 13.1666V16.1666C18.7834 16.5063 18.5063 16.7834 18.1666 16.7834H13.1666C12.8271 16.7834 12.55 16.5063 12.55 16.1666V13.1666C12.55 12.8271 12.8271 12.55 13.1666 12.55Z" stroke="#494949" stroke-width="1.1"/>
<path d="M13.1666 19.2166H18.1666C18.5063 19.2166 18.7834 19.4937 18.7834 19.8334V26.8334C18.7834 27.1729 18.5064 27.45 18.1666 27.45H13.1666C12.8271 27.45 12.55 27.1729 12.55 26.8334V19.8334C12.55 19.4937 12.8271 19.2166 13.1666 19.2166Z" stroke="#494949" stroke-width="1.1"/>
<path d="M21.8318 23.2166H26.8318C27.1713 23.2166 27.4484 23.4937 27.4484 23.8334V26.8334C27.4484 27.1729 27.1714 27.45 26.8318 27.45H21.8318C21.4921 27.45 21.215 27.1729 21.215 26.8334V23.8334C21.215 23.4937 21.4921 23.2166 21.8318 23.2166Z" stroke="#494949" stroke-width="1.1"/>
<path d="M21.8318 12.55H26.8318C27.1714 12.55 27.4484 12.8271 27.4484 13.1666V20.1666C27.4484 20.5064 27.1713 20.7834 26.8318 20.7834H21.8318C21.4921 20.7834 21.215 20.5063 21.215 20.1666V13.1666C21.215 12.8271 21.4921 12.55 21.8318 12.55Z" stroke="#494949" stroke-width="1.1"/>
</svg>
