<svg width="32" height="32" viewBox="0 0 32 32" fill="none" xmlns="http://www.w3.org/2000/svg">
<path d="M29.333 14.4667V11.2C29.3335 10.8391 29.2629 10.4817 29.125 10.1483C28.9872 9.81479 28.7849 9.51179 28.5297 9.25663C28.2745 9.00148 27.9715 8.79918 27.6381 8.66133C27.3046 8.52349 26.9472 8.4528 26.5863 8.45333H24.7997L10.1997 2.37333C9.95143 2.26848 9.68472 2.21432 9.41524 2.21405C9.14576 2.21378 8.87894 2.2674 8.63048 2.37175C8.38202 2.4761 8.15694 2.62908 7.96847 2.82169C7.78 3.01431 7.63194 3.24266 7.53301 3.49333L5.54634 8.45333H4.07968C3.71883 8.4528 3.36143 8.52349 3.02795 8.66133C2.69447 8.79918 2.39147 9.00148 2.13632 9.25663C1.88116 9.51179 1.67886 9.81479 1.54102 10.1483C1.40317 10.4817 1.33248 10.8391 1.33301 11.2V27.04C1.33248 27.4008 1.40317 27.7582 1.54102 28.0917C1.67886 28.4252 1.88116 28.7282 2.13632 28.9834C2.39147 29.2385 2.69447 29.4408 3.02795 29.5787C3.36143 29.7165 3.71883 29.7872 4.07968 29.7867H26.5863C26.9472 29.7872 27.3046 29.7165 27.6381 29.5787C27.9715 29.4408 28.2745 29.2385 28.5297 28.9834C28.7849 28.7282 28.9872 28.4252 29.125 28.0917C29.2629 27.7582 29.3335 27.4008 29.333 27.04V23.7733C29.6896 23.7609 30.0276 23.611 30.2761 23.355C30.5247 23.099 30.6645 22.7568 30.6663 22.4V15.84C30.6645 15.4832 30.5247 15.141 30.2761 14.885C30.0276 14.629 29.6896 14.4791 29.333 14.4667ZM8.77301 3.98666C8.805 3.89983 8.85471 3.82061 8.91898 3.75404C8.98326 3.68747 9.06069 3.63501 9.14634 3.59999C9.31789 3.53345 9.50813 3.53345 9.67968 3.59999L21.333 8.45333H18.1063L10.213 5.82666C10.0502 5.76997 9.8717 5.77858 9.71507 5.85068C9.55845 5.92278 9.43585 6.05276 9.37301 6.21333L8.50634 8.45333H6.98634L8.77301 3.98666ZM13.893 8.45333H9.94634L10.3863 7.29333L13.893 8.45333ZM27.9997 27.04C27.9993 27.4147 27.8503 27.774 27.5853 28.039C27.3204 28.304 26.9611 28.453 26.5863 28.4533H4.07968C3.70495 28.453 3.34566 28.304 3.08069 28.039C2.81571 27.774 2.6667 27.4147 2.66634 27.04V11.2C2.66879 10.8259 2.81848 10.4678 3.083 10.2033C3.34753 9.9388 3.70559 9.78911 4.07968 9.78666H26.5863C26.9604 9.78911 27.3185 9.9388 27.583 10.2033C27.8475 10.4678 27.9972 10.8259 27.9997 11.2V14.4533H21.9997C20.762 14.4533 19.575 14.945 18.6998 15.8202C17.8247 16.6953 17.333 17.8823 17.333 19.12C17.333 20.3577 17.8247 21.5447 18.6998 22.4198C19.575 23.295 20.762 23.7867 21.9997 23.7867H27.9997V27.04ZM29.333 22.4C29.3321 22.4138 29.3262 22.4269 29.3163 22.4367C29.3065 22.4465 29.2935 22.4524 29.2797 22.4533H21.9997C21.1156 22.4533 20.2678 22.1021 19.6427 21.477C19.0175 20.8519 18.6663 20.004 18.6663 19.12C18.6663 18.2359 19.0175 17.3881 19.6427 16.763C20.2678 16.1379 21.1156 15.7867 21.9997 15.7867L29.333 15.84V22.4Z" fill="#7F7886"/>
<path d="M21.9994 14.4533H27.9994V11.2C27.9969 10.8259 27.8472 10.4678 27.5827 10.2033C27.3182 9.9388 26.9601 9.78911 26.586 9.78667H4.07935C3.70526 9.78911 3.3472 9.9388 3.08267 10.2033C2.81815 10.4678 2.66846 10.8259 2.66602 11.2V27.04C2.66637 27.4147 2.81539 27.774 3.08036 28.039C3.34534 28.304 3.70462 28.453 4.07935 28.4533H26.586C26.9608 28.453 27.32 28.304 27.585 28.039C27.85 27.774 27.999 27.4147 27.9994 27.04V23.7867H21.9994C20.7617 23.7867 19.5747 23.295 18.6995 22.4198C17.8243 21.5447 17.3327 20.3577 17.3327 19.12C17.3327 17.8823 17.8243 16.6953 18.6995 15.8202C19.5747 14.945 20.7617 14.4533 21.9994 14.4533ZM5.99935 12.4533H8.66602C8.84283 12.4533 9.0124 12.5236 9.13742 12.6486C9.26244 12.7736 9.33268 12.9432 9.33268 13.12C9.33268 13.2968 9.26244 13.4664 9.13742 13.5914C9.0124 13.7164 8.84283 13.7867 8.66602 13.7867H5.99935C5.82254 13.7867 5.65297 13.7164 5.52794 13.5914C5.40292 13.4664 5.33268 13.2968 5.33268 13.12C5.33268 12.9432 5.40292 12.7736 5.52794 12.6486C5.65297 12.5236 5.82254 12.4533 5.99935 12.4533ZM11.3327 16.4533H5.99935C5.82254 16.4533 5.65297 16.3831 5.52794 16.2581C5.40292 16.133 5.33268 15.9635 5.33268 15.7867C5.33268 15.6099 5.40292 15.4403 5.52794 15.3153C5.65297 15.1902 5.82254 15.12 5.99935 15.12H11.3327C11.5095 15.12 11.6791 15.1902 11.8041 15.3153C11.9291 15.4403 11.9993 15.6099 11.9993 15.7867C11.9993 15.9635 11.9291 16.133 11.8041 16.2581C11.6791 16.3831 11.5095 16.4533 11.3327 16.4533Z" fill="white"/>
<path d="M13.893 8.45334H9.94629L10.3863 7.29333L13.893 8.45334Z" fill="white"/>
<path d="M21.9993 15.7867C21.1153 15.7867 20.2674 16.1379 19.6423 16.763C19.0172 17.3881 18.666 18.2359 18.666 19.12C18.666 20.0041 19.0172 20.8519 19.6423 21.477C20.2674 22.1021 21.1153 22.4533 21.9993 22.4533H29.2793C29.2932 22.4524 29.3062 22.4465 29.316 22.4367C29.3258 22.4269 29.3317 22.4138 29.3327 22.4V15.84L21.9993 15.7867ZM21.9993 21.12C21.6038 21.12 21.2171 21.0027 20.8882 20.7829C20.5593 20.5632 20.303 20.2508 20.1516 19.8854C20.0002 19.5199 19.9606 19.1178 20.0378 18.7298C20.1149 18.3419 20.3054 17.9855 20.5851 17.7058C20.8648 17.4261 21.2212 17.2356 21.6092 17.1584C21.9971 17.0813 22.3993 17.1209 22.7647 17.2722C23.1302 17.4236 23.4425 17.68 23.6623 18.0089C23.8821 18.3378 23.9993 18.7244 23.9993 19.12C23.9993 19.6504 23.7886 20.1591 23.4136 20.5342C23.0385 20.9093 22.5298 21.12 21.9993 21.12Z" fill="white"/>
<path d="M21.333 8.45332H18.1063L10.213 5.82666C10.0502 5.76997 9.87169 5.77858 9.71506 5.85068C9.55843 5.92278 9.43583 6.05276 9.373 6.21332L8.50633 8.45332H6.98633L8.77299 3.98666C8.80498 3.89983 8.85469 3.8206 8.91897 3.75403C8.98324 3.68746 9.06067 3.635 9.14633 3.59999C9.31788 3.53344 9.50811 3.53344 9.67966 3.59999L21.333 8.45332Z" fill="white"/>
<path d="M22 17.12C21.6044 17.12 21.2178 17.2373 20.8889 17.4571C20.56 17.6768 20.3036 17.9892 20.1522 18.3546C20.0009 18.7201 19.9613 19.1222 20.0384 19.5102C20.1156 19.8981 20.3061 20.2545 20.5858 20.5342C20.8655 20.8139 21.2219 21.0044 21.6098 21.0816C21.9978 21.1587 22.3999 21.1191 22.7654 20.9678C23.1308 20.8164 23.4432 20.56 23.6629 20.2311C23.8827 19.9022 24 19.5156 24 19.12C24 18.5896 23.7893 18.0809 23.4142 17.7058C23.0391 17.3307 22.5304 17.12 22 17.12ZM22 19.7867C21.8681 19.7867 21.7393 19.7476 21.6296 19.6743C21.52 19.6011 21.4345 19.4969 21.3841 19.3751C21.3336 19.2533 21.3204 19.1193 21.3461 18.9899C21.3719 18.8606 21.4354 18.7418 21.5286 18.6486C21.6218 18.5554 21.7406 18.4919 21.8699 18.4661C21.9993 18.4404 22.1333 18.4536 22.2551 18.5041C22.3769 18.5545 22.4811 18.64 22.5543 18.7496C22.6276 18.8592 22.6667 18.9881 22.6667 19.12C22.6667 19.2968 22.5964 19.4664 22.4714 19.5914C22.3464 19.7164 22.1768 19.7867 22 19.7867Z" fill="#7F7886"/>
<path d="M21.9997 19.7867C22.3679 19.7867 22.6663 19.4882 22.6663 19.12C22.6663 18.7518 22.3679 18.4533 21.9997 18.4533C21.6315 18.4533 21.333 18.7518 21.333 19.12C21.333 19.4882 21.6315 19.7867 21.9997 19.7867Z" fill="white"/>
<path d="M9.33301 13.12C9.33301 13.2968 9.26277 13.4664 9.13775 13.5914C9.01272 13.7164 8.84315 13.7867 8.66634 13.7867H5.99967C5.82286 13.7867 5.65329 13.7164 5.52827 13.5914C5.40325 13.4664 5.33301 13.2968 5.33301 13.12C5.33301 12.9432 5.40325 12.7736 5.52827 12.6486C5.65329 12.5236 5.82286 12.4533 5.99967 12.4533H8.66634C8.84315 12.4533 9.01272 12.5236 9.13775 12.6486C9.26277 12.7736 9.33301 12.9432 9.33301 13.12Z" fill="#7F7886"/>
<path d="M11.9997 15.7867C11.9997 15.9635 11.9294 16.133 11.8044 16.2581C11.6794 16.3831 11.5098 16.4533 11.333 16.4533H5.99967C5.82286 16.4533 5.65329 16.3831 5.52827 16.2581C5.40325 16.133 5.33301 15.9635 5.33301 15.7867C5.33301 15.6099 5.40325 15.4403 5.52827 15.3153C5.65329 15.1902 5.82286 15.12 5.99967 15.12H11.333C11.5098 15.12 11.6794 15.1902 11.8044 15.3153C11.9294 15.4403 11.9997 15.6099 11.9997 15.7867Z" fill="#7F7886"/>
</svg>
