<svg width="40" height="40" viewBox="0 0 40 40" fill="none" xmlns="http://www.w3.org/2000/svg">
<g clip-path="url(#clip0_1500_4392)">
<path fill-rule="evenodd" clip-rule="evenodd" d="M22.32 22.99C22.32 22.81 22.39 22.65 22.52 22.52L22.5 22.53C22.75 22.28 23.2 22.28 23.45 22.53C23.58 22.65 23.65 22.82 23.65 23V24.88C23.65 25.81 23.29 26.69 22.63 27.35C21.98 28.01 21.1 28.37 20.17 28.37H15.48C14.55 28.37 13.68 28.01 13.02 27.35C12.36 26.69 12 25.81 12 24.88V15.49C12 14.56 12.36 13.68 13.03 13.02C13.68 12.36 14.56 12 15.49 12H20.18C21.11 12 21.99 12.36 22.64 13.03C23.3 13.68 23.66 14.56 23.66 15.49V17.37C23.66 17.54 23.59 17.71 23.46 17.83C23.21 18.07 22.78 18.07 22.53 17.83C22.41 17.71 22.33 17.54 22.33 17.37V15.49C22.33 14.92 22.11 14.38 21.7 13.97C21.29 13.56 20.75 13.34 20.18 13.34H15.49C14.92 13.34 14.38 13.56 13.97 13.97C13.56 14.38 13.34 14.92 13.34 15.49V24.87C13.34 25.45 13.56 25.98 13.97 26.39C14.38 26.8 14.92 27.02 15.49 27.02H20.17C20.75 27.02 21.28 26.8 21.69 26.39C22.09 25.99 22.32 25.44 22.32 24.87V22.99ZM25.3596 17.84L27.2296 19.71V19.69C27.3596 19.81 27.4296 19.99 27.4296 20.16C27.4296 20.33 27.3596 20.5 27.2296 20.63L25.3496 22.51C25.2996 22.57 25.2196 22.62 25.1396 22.66C25.0596 22.7 24.9696 22.72 24.8796 22.72H24.8696C24.7896 22.72 24.6996 22.7 24.6196 22.67C24.5396 22.63 24.4696 22.58 24.3996 22.52C24.3296 22.46 24.2796 22.38 24.2496 22.3C24.2196 22.22 24.1996 22.13 24.1996 22.04C24.1996 21.95 24.2196 21.86 24.2596 21.78C24.2996 21.69 24.3496 21.62 24.4196 21.56L25.1496 20.83H18.3196C18.2296 20.84 18.1396 20.82 18.0596 20.79C17.9796 20.76 17.8996 20.71 17.8396 20.65C17.7796 20.59 17.7296 20.51 17.6896 20.43C17.6596 20.35 17.6396 20.26 17.6396 20.17C17.6396 20.08 17.6496 19.99 17.6896 19.91C17.7196 19.83 17.7696 19.75 17.8396 19.69C17.8996 19.63 17.9796 19.58 18.0596 19.55C18.1396 19.52 18.2396 19.51 18.3196 19.51H25.1496L24.4096 18.78C24.3496 18.72 24.2996 18.65 24.2596 18.57C24.2196 18.49 24.1996 18.4 24.1996 18.31C24.1996 18.22 24.2196 18.13 24.2496 18.05C24.2896 17.97 24.3396 17.89 24.3996 17.83C24.4596 17.77 24.5396 17.71 24.6196 17.68C24.6996 17.65 24.7896 17.63 24.8796 17.63C24.9696 17.63 25.0596 17.65 25.1396 17.69C25.2296 17.72 25.2996 17.77 25.3596 17.84Z" fill="#494949"/>
</g>
<defs>
<clipPath id="clip0_1500_4392">
<rect width="15.42" height="16.36" fill="white" transform="translate(12 12)"/>
</clipPath>
</defs>
</svg>
