<svg width="40" height="40" viewBox="0 0 40 40" fill="none" xmlns="http://www.w3.org/2000/svg">
<path d="M23.8037 16.1938C22.7871 15.1772 21.4352 14.6171 19.9975 14.6171C18.5598 14.6171 17.2079 15.1772 16.1913 16.1938C14.0925 18.2926 14.0925 21.7079 16.1913 23.8067C17.2079 24.8233 18.5598 25.3834 19.9975 25.3834C21.4352 25.3834 22.7871 24.8233 23.8037 23.8067C25.9026 21.7079 25.9026 18.2926 23.8037 16.1938ZM22.9616 22.9646C22.1697 23.7565 21.117 24.1923 19.9969 24.1923C18.8768 24.1923 17.8242 23.7565 17.0323 22.9646C15.3977 21.33 15.3977 18.6705 17.0323 17.0359C17.8242 16.244 18.8768 15.8082 19.9969 15.8082C21.117 15.8082 22.1697 16.244 22.9616 17.0359C24.5962 18.6705 24.5962 21.33 22.9616 22.9646Z" fill="#494949"/>
<path d="M20.7575 13.3439C20.9863 13.5727 21.3571 13.5727 21.586 13.3439C21.8149 13.115 21.8149 12.7442 21.586 12.5153L21.5807 12.51C24.1272 13.0511 26.2834 14.8732 27.1959 17.3807C27.3065 17.6847 27.643 17.8414 27.947 17.7308C28.251 17.6202 28.4077 17.2837 28.2971 16.9797C27.6832 15.2943 26.5839 13.8507 25.1166 12.8057C23.9776 11.9937 22.6824 11.4733 21.3163 11.2693L21.5854 11.0002C21.8143 10.7713 21.8143 10.4005 21.5854 10.1717C21.3565 9.94278 20.9857 9.94278 20.7569 10.1717L19.5847 11.3438C19.3559 11.5727 19.3559 11.9435 19.5847 12.1723L20.7569 13.3445L20.7575 13.3439Z" fill="#494949"/>
<path d="M12.1717 20.4146L13.3439 19.2425C13.5727 19.0136 13.5727 18.6428 13.3439 18.4139C13.115 18.185 12.7442 18.185 12.5153 18.4139L12.51 18.4192C13.0511 15.8727 14.8732 13.7165 17.3807 12.804C17.6847 12.6934 17.8414 12.3569 17.7308 12.0529C17.6202 11.7489 17.2837 11.5922 16.9797 11.7028C15.2943 12.3167 13.8507 13.4161 12.8057 14.8833C11.9937 16.0223 11.4733 17.3175 11.2693 18.6836L11.0002 18.4145C10.7713 18.1856 10.4005 18.1856 10.1717 18.4145C9.94278 18.6434 9.94278 19.0142 10.1717 19.243L11.3438 20.4152C11.5727 20.6441 11.9435 20.6441 12.1723 20.4152L12.1717 20.4146Z" fill="#494949"/>
<path d="M19.2401 26.6561C19.0113 26.4273 18.6405 26.4273 18.4116 26.6561C18.1827 26.885 18.1827 27.2558 18.4116 27.4847L18.4169 27.49C15.8704 26.9489 13.7142 25.1268 12.8017 22.6193C12.6911 22.3153 12.3546 22.1586 12.0506 22.2692C11.7466 22.3798 11.5899 22.7163 11.7005 23.0203C12.3144 24.7057 13.4138 26.1493 14.881 27.1943C16.02 28.0063 17.3152 28.5267 18.6813 28.7307L18.4122 28.9998C18.1833 29.2287 18.1833 29.5995 18.4122 29.8284C18.6411 30.0572 19.0119 30.0572 19.2407 29.8284L20.4129 28.6562C20.6417 28.4273 20.6417 28.0565 20.4129 27.8277L19.2407 26.6555L19.2401 26.6561Z" fill="#494949"/>
<path d="M29.8267 20.7575L28.6545 19.5854C28.4257 19.3565 28.0548 19.3565 27.826 19.5854L26.6538 20.7575C26.425 20.9864 26.425 21.3572 26.6538 21.5861C26.8827 21.815 27.2535 21.815 27.4824 21.5861L27.4877 21.5808C26.9466 24.1273 25.1245 26.2835 22.617 27.196C22.313 27.3066 22.1563 27.6431 22.2669 27.9471C22.3775 28.2511 22.714 28.4078 23.018 28.2972C24.7034 27.6833 26.147 26.5839 27.192 25.1167C28.004 23.9777 28.5244 22.6825 28.7284 21.3164L28.9975 21.5855C29.2264 21.8144 29.5972 21.8144 29.8261 21.5855C30.0549 21.3566 30.0549 20.9858 29.8261 20.757L29.8267 20.7575Z" fill="#494949"/>
<path d="M19.9984 16.6704C19.9498 16.6681 19.9008 16.6667 19.8518 16.6667C19 16.6667 18.1995 17.0132 17.5973 17.6429C16.3543 18.9426 16.3543 21.0573 17.5973 22.3571C18.1995 22.9867 19 23.3333 19.8518 23.3333C19.9008 23.3333 19.9498 23.3319 19.9984 23.3296V16.6704Z" fill="#494949"/>
</svg>
