<svg width="40" height="40" viewBox="0 0 40 40" fill="none" xmlns="http://www.w3.org/2000/svg">
<path d="M19.6332 23.3322C17.7952 23.3322 16.2998 21.8368 16.2998 19.9988C16.2998 18.1608 17.7952 16.6654 19.6332 16.6654C21.4711 16.6654 22.9664 18.1608 22.9664 19.9988C22.9664 21.8368 21.4711 23.3322 19.6332 23.3322ZM19.6332 17.6654C18.3464 17.6654 17.2998 18.7122 17.2998 19.9988C17.2998 21.2854 18.3464 22.3322 19.6332 22.3322C20.9198 22.3322 21.9664 21.2854 21.9664 19.9988C21.9664 18.7122 20.9198 17.6654 19.6332 17.6654Z" fill="#494949" stroke="#494949" stroke-width="0.2"/>
<path d="M20.7435 28H18.5261C17.9928 28 17.5215 27.6213 17.4055 27.0994L17.1249 25.8513C16.6675 25.6573 16.2315 25.4041 15.8222 25.0947L14.6068 25.4786C14.0855 25.6406 13.5188 25.4193 13.2575 24.9526L12.1522 23.0414C11.8875 22.568 11.9768 21.9854 12.3662 21.6187L13.3081 20.7527C13.2795 20.4987 13.2655 20.2467 13.2655 20C13.2655 19.7533 13.2795 19.5013 13.3075 19.2473L12.3709 18.3854C11.9768 18.0146 11.8868 17.432 12.1488 16.9647L13.2609 15.0414C13.5188 14.58 14.0868 14.3607 14.6049 14.52L15.8222 14.9047C16.2315 14.5953 16.6675 14.342 17.1249 14.1479L17.4061 12.8987C17.5215 12.3787 17.9928 12 18.5261 12H20.7435C21.2769 12 21.7482 12.3787 21.8641 12.9006L22.1448 14.1487C22.6022 14.3427 23.0382 14.5959 23.4475 14.9053L24.6629 14.5214C25.1856 14.3607 25.7509 14.5807 26.0122 15.0474L27.1176 16.9586C27.3822 17.432 27.2929 18.0146 26.9035 18.3813L25.9616 19.2473C25.9895 19.5013 26.0036 19.754 26.0036 20C26.0036 20.246 25.9895 20.4987 25.9616 20.7527L26.8988 21.614C26.9002 21.6154 26.9015 21.6167 26.9035 21.618C27.2929 21.9846 27.3828 22.5674 27.1209 23.0347L26.0088 24.958C25.7509 25.4193 25.1842 25.64 24.6642 25.4786L23.4468 25.094C23.0375 25.4033 22.6015 25.6566 22.1442 25.8507L21.8628 27.1C21.7482 27.6213 21.2769 28 20.7435 28ZM15.9242 24.0393C16.0388 24.0393 16.1515 24.0786 16.2422 24.1533C16.7002 24.53 17.1995 24.8207 17.7282 25.0154C17.8875 25.074 18.0055 25.2094 18.0429 25.3746L18.3822 26.8813C18.3975 26.9507 18.4581 27 18.5269 27H20.7442C20.8129 27 20.8735 26.9507 20.8882 26.8827L21.2282 25.3746C21.2655 25.2094 21.3836 25.074 21.5429 25.0154C22.0708 24.8207 22.5708 24.53 23.0288 24.1533C23.1596 24.0453 23.3355 24.0106 23.4976 24.062L24.9649 24.5254C25.0348 24.5474 25.1095 24.5214 25.1415 24.464L26.2536 22.5406C26.2869 22.4813 26.2748 22.4 26.2216 22.348L25.0962 21.3134C24.9741 21.2013 24.9155 21.0353 24.9402 20.8713C24.9841 20.576 25.0062 20.2827 25.0062 19.9994C25.0062 19.7159 24.9841 19.4226 24.9402 19.1273C24.9155 18.9634 24.9741 18.798 25.0962 18.6853L26.2241 17.6479C26.2748 17.6007 26.2869 17.5179 26.2501 17.452L25.1448 15.5406C25.1089 15.4773 25.0328 15.452 24.9635 15.474L23.4982 15.9366C23.3368 15.988 23.1609 15.9534 23.0296 15.8453C22.5715 15.4686 22.0722 15.178 21.5435 14.9833C21.3842 14.9247 21.2661 14.7893 21.2289 14.624L20.8895 13.1173C20.8728 13.0493 20.8121 13 20.7435 13H18.5261C18.4575 13 18.3969 13.0493 18.3822 13.1173L18.0421 14.6254C18.0049 14.7906 17.8869 14.9253 17.7275 14.9846C17.1995 15.1793 16.6995 15.47 16.2422 15.8467C16.1108 15.9547 15.9335 15.9886 15.7736 15.938L14.3062 15.4746C14.2376 15.4534 14.1615 15.4786 14.1295 15.536L13.0175 17.4586C12.9841 17.5187 12.9962 17.6013 13.0515 17.6533L14.1755 18.686C14.2975 18.798 14.3562 18.964 14.3316 19.1281C14.2875 19.4233 14.2655 19.7167 14.2655 20C14.2655 20.2833 14.2875 20.5767 14.3316 20.8719C14.3562 21.036 14.2975 21.2013 14.1755 21.314L13.0475 22.3513C12.9968 22.3987 12.9849 22.4813 13.0215 22.5474L14.1268 24.4586C14.1621 24.522 14.2382 24.5466 14.3081 24.5254L15.7736 24.0626C15.8229 24.0466 15.8735 24.0393 15.9242 24.0393Z" fill="#494949" stroke="#494949" stroke-width="0.2"/>
</svg>
