<svg width="40" height="40" viewBox="0 0 40 40" fill="none" xmlns="http://www.w3.org/2000/svg">
<path d="M18.8574 15.1778V18.035" stroke="#494949" stroke-width="1.1" stroke-miterlimit="10" stroke-linecap="round" stroke-linejoin="round"/>
<path d="M21.1445 12.32V16.6058" stroke="#494949" stroke-width="1.1" stroke-miterlimit="10" stroke-linecap="round" stroke-linejoin="round"/>
<path d="M23.4307 12.32V16.6058" stroke="#494949" stroke-width="1.1" stroke-miterlimit="10" stroke-linecap="round" stroke-linejoin="round"/>
<path d="M16.5713 20.8836V15.1787C16.5713 14.5475 17.083 14.0358 17.7142 14.0358C18.3454 14.0358 18.8571 14.5475 18.8571 15.1787V12.3215C18.8571 11.6903 19.3687 11.1786 19.9999 11.1786C20.6311 11.1786 21.1428 11.6903 21.1428 12.3215V11.1429C21.1428 10.5117 21.6545 10 22.2857 10C22.9169 10 23.4286 10.5117 23.4286 11.1429V12.3215C23.4286 11.6903 23.9403 11.1786 24.5715 11.1786C25.2027 11.1786 25.7143 11.6903 25.7143 12.3215V18.0359C25.7143 17.2469 26.3539 16.6073 27.1429 16.6073H28.0001C28.0001 16.6073 28.0001 19.7859 28.0001 21.5002C28.0001 24.6562 25.4417 27.2147 22.2857 27.2147C21.8436 27.2147 21.4132 27.1645 21 27.0694" stroke="#494949" stroke-width="1.1" stroke-miterlimit="10" stroke-linecap="round" stroke-linejoin="round"/>
<path d="M25.7164 18.0358V20.0358C25.7164 20.0358 23.7164 20.0358 23.4307 22.0358" stroke="#494949" stroke-width="1.1" stroke-miterlimit="10" stroke-linecap="round" stroke-linejoin="round"/>
<path d="M20.3993 21.7989C19.4698 20.8694 18.2337 20.3574 16.9193 20.3574C15.6048 20.3574 14.3687 20.8694 13.4392 21.7989C11.5203 23.7179 11.5203 26.8405 13.4392 28.7595C14.3687 29.689 15.6048 30.201 16.9193 30.201C18.2337 30.201 19.4698 29.689 20.3993 28.7595C22.3183 26.8405 22.3183 23.7179 20.3993 21.7989ZM19.6293 27.9895C18.9053 28.7135 17.9428 29.112 16.9187 29.112C15.8946 29.112 14.9322 28.7135 14.2081 27.9895C12.7136 26.495 12.7136 24.0634 14.2081 22.5689C14.9322 21.8449 15.8946 21.4464 16.9187 21.4464C17.9428 21.4464 18.9053 21.8449 19.6293 22.5689C21.1239 24.0634 21.1239 26.495 19.6293 27.9895Z" fill="#494949"/>
</svg>
