<svg width="40" height="40" viewBox="0 0 40 40" fill="none" xmlns="http://www.w3.org/2000/svg">
<path d="M20 29C24.9629 29 29 24.9629 29 20C29 15.0371 24.9629 11 20 11C15.0371 11 11 15.0371 11 20C11 24.9629 15.0371 29 20 29ZM20 12.2857C24.2557 12.2857 27.7143 15.7443 27.7143 20C27.7143 24.2557 24.2557 27.7143 20 27.7143C15.7443 27.7143 12.2857 24.2557 12.2857 20C12.2857 15.7443 15.7443 12.2857 20 12.2857Z" fill="#494949"/>
<path d="M16.1428 19.3571H23.8571C24.2124 19.3571 24.4999 19.0693 24.4999 18.7143C24.4999 18.3593 24.2124 18.0714 23.8571 18.0714H17.3441L17.9634 17.1423C18.1603 16.8469 18.0805 16.4476 17.7851 16.2509C17.4892 16.0534 17.0902 16.1335 16.8937 16.4291L15.608 18.3577C15.4765 18.5548 15.4642 18.8085 15.576 19.0175C15.688 19.2266 15.9058 19.3571 16.1428 19.3571Z" fill="#494949"/>
<path d="M16.1429 21.9286H22.6562L22.0365 22.8577C21.8394 23.1531 21.9191 23.5524 22.2148 23.7492C22.3247 23.8223 22.4484 23.8572 22.5708 23.8572C22.7786 23.8572 22.9826 23.7567 23.1063 23.5709L24.392 21.6423C24.5232 21.4452 24.5357 21.1915 24.424 20.9825C24.3123 20.7734 24.0944 20.6429 23.8571 20.6429H16.1429C15.7879 20.6429 15.5 20.9307 15.5 21.2857C15.5 21.6407 15.7879 21.9286 16.1429 21.9286Z" fill="#494949"/>
</svg>
