<svg width="40" height="40" viewBox="0 0 40 40" fill="none" xmlns="http://www.w3.org/2000/svg">
<g clip-path="url(#clip0_1498_4357)">
<path d="M14.7862 18.8512H16.312C16.4498 18.8512 16.5778 18.802 16.6663 18.7035C16.7549 18.6051 16.814 18.4771 16.814 18.3492C16.814 18.2212 16.7648 18.0834 16.6663 17.9948C16.5778 17.8964 16.4399 17.8471 16.312 17.8471H14.7862C14.6484 17.8471 14.5204 17.8964 14.4318 17.9948C14.3432 18.0932 14.2842 18.2212 14.2842 18.3492C14.2842 18.4771 14.3334 18.6149 14.4318 18.7035C14.5303 18.802 14.6582 18.8512 14.7862 18.8512Z" fill="#494949"/>
<path d="M17.8377 19.3729H14.796C14.6582 19.3729 14.5302 19.4221 14.4416 19.5205C14.353 19.619 14.2939 19.747 14.2939 19.8749C14.2939 20.0029 14.3432 20.1309 14.4416 20.2293C14.54 20.3277 14.668 20.3769 14.796 20.3769H17.8377C17.9755 20.3769 18.0936 20.3277 18.192 20.2293C18.2905 20.1309 18.3397 20.0029 18.3397 19.8749C18.3397 19.747 18.2905 19.6091 18.192 19.5205C18.0936 19.4221 17.9656 19.3729 17.8377 19.3729Z" fill="#494949"/>
<path d="M28.7441 19.2745C28.6063 19.1367 28.4291 19.0383 28.2421 19.0087V17.2566C28.2421 17.0302 28.2027 16.8136 28.1141 16.6069C28.0256 16.4002 27.9074 16.2131 27.7499 16.0556C27.5924 15.8981 27.4054 15.7702 27.1987 15.6914C26.992 15.6028 26.7754 15.5634 26.549 15.5634H25.5548L17.2369 12.0985C16.9219 11.9705 16.5577 11.9705 16.2427 12.0985C16.0852 12.1674 15.9474 12.256 15.8194 12.3839C15.7013 12.5021 15.6127 12.6497 15.5438 12.8072L14.4413 15.5634H13.6833C13.4569 15.5634 13.2404 15.6028 13.0337 15.6914C12.8269 15.78 12.6399 15.8981 12.4824 16.0556C12.3249 16.2131 12.197 16.4002 12.1182 16.6069C12.0296 16.8136 11.9902 17.0302 11.9902 17.2566V26.3029C11.9902 26.5293 12.0296 26.7458 12.1182 26.9526C12.2068 27.1593 12.3249 27.3463 12.4824 27.5038C12.6399 27.6613 12.8269 27.7893 13.0337 27.868C13.2404 27.9566 13.4569 27.996 13.6833 27.996H26.5392C26.7656 27.996 26.9821 27.9566 27.1888 27.868C27.3956 27.7794 27.5826 27.6613 27.7401 27.5038C27.8976 27.3463 28.0256 27.1593 28.1043 26.9526C28.1929 26.7458 28.2323 26.5293 28.2323 26.3029V24.5507C28.4193 24.5212 28.5965 24.4227 28.7343 24.2849C28.9016 24.1176 28.9902 23.8912 28.9902 23.6549V19.9045C28.9902 19.6683 28.9016 19.4418 28.7343 19.2745H28.7441ZM16.4888 13.1813C16.4888 13.1813 16.5183 13.1124 16.5478 13.0828C16.5774 13.0533 16.6069 13.0336 16.6364 13.0238C16.7053 12.9943 16.7841 12.9943 16.853 13.0238L22.9462 15.5634H15.534L16.4888 13.1813ZM27.2381 26.3029C27.2381 26.4801 27.1692 26.6573 27.0412 26.7852C26.9132 26.9132 26.736 26.9821 26.5589 26.9821H13.6932C13.516 26.9821 13.3388 26.9132 13.2108 26.7852C13.0829 26.6573 13.014 26.4801 13.014 26.3029V17.2566C13.014 17.0794 13.0927 16.9022 13.2207 16.7742C13.3487 16.6462 13.5258 16.5773 13.703 16.5675H26.5589C26.736 16.5675 26.9132 16.6462 27.0412 16.7742C27.1692 16.9022 27.2381 17.0695 27.2479 17.2566V18.989H23.9404C23.1923 18.989 22.4934 19.2745 21.9717 19.8061C21.45 20.3376 21.1547 21.0365 21.1547 21.7748C21.1547 22.5131 21.4401 23.2218 21.9717 23.7435C22.5033 24.2652 23.2022 24.5606 23.9404 24.5606H27.2479V26.293L27.2381 26.3029ZM27.996 23.5565H23.9306C23.4581 23.5565 23.0053 23.3695 22.6706 23.0348C22.3359 22.7001 22.1489 22.2473 22.1489 21.7748C22.1489 21.3023 22.3359 20.8495 22.6706 20.5148C23.0053 20.1801 23.4581 19.9931 23.9306 19.9931L27.996 20.0226V23.5565Z" fill="#494949"/>
<path d="M23.2216 20.7313C23.0148 20.8691 22.8475 21.066 22.7589 21.3023C22.6605 21.5385 22.6408 21.7846 22.69 22.0307C22.7392 22.2768 22.8573 22.5032 23.0345 22.6804C23.2117 22.8576 23.4381 22.9757 23.6842 23.0249C23.763 23.0446 23.8515 23.0446 23.9303 23.0446C24.0976 23.0446 24.2551 23.0151 24.4126 22.9461C24.6489 22.8477 24.8359 22.6902 24.9836 22.4835C25.1312 22.2768 25.2001 22.0307 25.2001 21.7846C25.2001 21.4499 25.0722 21.1251 24.8261 20.8888C24.4126 20.4754 23.7236 20.4065 23.2314 20.7313H23.2216ZM23.9205 21.2826C24.1961 21.2826 24.4225 21.509 24.4225 21.7846C24.4225 22.0602 24.1961 22.2866 23.9205 22.2866C23.6448 22.2866 23.4184 22.0602 23.4184 21.7846C23.4184 21.509 23.6448 21.2826 23.9205 21.2826Z" fill="#494949"/>
</g>
<defs>
<clipPath id="clip0_1498_4357">
<rect width="17" height="15.9959" fill="white" transform="translate(12 12)"/>
</clipPath>
</defs>
</svg>
