<svg width="15" height="7" viewBox="0 0 15 7" fill="none" xmlns="http://www.w3.org/2000/svg">
<path d="M10.91 0.000333119C9.95624 0.000333119 9.0648 0.376631 8.3998 1.0599L7.45 2.03581L8.63159 3.24936L9.61374 2.24012C9.9579 1.88682 10.4181 1.69217 10.91 1.69217C11.9079 1.69217 12.7193 2.50343 12.7193 3.50067C12.7193 4.4979 11.9075 5.30883 10.91 5.30883C10.4181 5.30883 9.95757 5.11418 9.61374 4.76055C6.37314 1.43153 6.01863 1.0669 6.01196 1.06023C5.34697 0.376964 4.45553 0.000666491 3.50172 0.000666491C1.57077 0.00033319 0 1.57052 0 3.50033C0 5.43015 1.57077 7 3.50172 7C4.45553 7 5.34697 6.6237 6.01196 5.94043L6.96176 4.96453L5.78018 3.75098L4.79803 4.75988C4.45419 5.11351 3.99363 5.30816 3.50172 5.30816C2.5039 5.30816 1.6925 4.49691 1.6925 3.5C1.6925 2.5031 2.50423 1.69151 3.50172 1.69151C3.99363 1.69151 4.45419 1.88615 4.79803 2.23945C4.93843 2.38377 8.36612 5.90544 8.3998 5.9401C9.0648 6.62337 9.95624 6.99967 10.91 6.99967C12.841 6.99967 14.4118 5.42982 14.4118 3.5C14.4118 1.57018 12.841 0 10.91 0V0.000333119Z" fill="#808080"/>
</svg>
