<svg width="16" height="16" viewBox="0 0 16 16" fill="none" xmlns="http://www.w3.org/2000/svg">
<path fill-rule="evenodd" clip-rule="evenodd" d="M2.809 10.5658C2.99835 10.3765 3.30533 10.3765 3.49468 10.5658L5.09123 12.1624L6.68779 10.5658C6.87713 10.3765 7.18413 10.3765 7.37347 10.5658C7.5628 10.7552 7.5628 11.0622 7.37347 11.2515L5.43407 13.1909C5.24474 13.3802 4.93774 13.3802 4.74839 13.1909L2.809 11.2515C2.61966 11.0622 2.61966 10.7552 2.809 10.5658Z" fill="black"/>
<path fill-rule="evenodd" clip-rule="evenodd" d="M5.09129 2.66602C5.35908 2.66602 5.57614 2.88309 5.57614 3.15086V12.8478C5.57614 13.1156 5.35908 13.3327 5.09129 13.3327C4.82352 13.3327 4.60645 13.1156 4.60645 12.8478V3.15086C4.60645 2.88309 4.82352 2.66602 5.09129 2.66602Z" fill="black"/>
<path fill-rule="evenodd" clip-rule="evenodd" d="M10.5667 2.80802C10.7561 2.61868 11.0631 2.61868 11.2524 2.80802L13.1918 4.74742C13.3811 4.93676 13.3811 5.24376 13.1918 5.43309C13.0025 5.62243 12.6955 5.62243 12.5061 5.43309L10.9096 3.83654L9.31302 5.43309C9.12369 5.62243 8.81668 5.62243 8.62735 5.43309C8.43802 5.24376 8.43802 4.93676 8.62735 4.74742L10.5667 2.80802Z" fill="#9C9C9C"/>
<path fill-rule="evenodd" clip-rule="evenodd" d="M10.9097 2.66602C11.1774 2.66602 11.3945 2.88309 11.3945 3.15086V12.8478C11.3945 13.1156 11.1774 13.3327 10.9097 13.3327C10.6419 13.3327 10.4248 13.1156 10.4248 12.8478V3.15086C10.4248 2.88309 10.6419 2.66602 10.9097 2.66602Z" fill="#9C9C9C"/>
</svg>
