<svg width="24" height="25" viewBox="0 0 24 25" fill="none" xmlns="http://www.w3.org/2000/svg">
<path d="M21.9998 11.2285H4.41379L9.70679 5.93551C9.8023 5.84327 9.87848 5.73292 9.93089 5.61092C9.9833 5.48892 10.0109 5.3577 10.012 5.22492C10.0132 5.09214 9.98789 4.96046 9.93761 4.83756C9.88733 4.71466 9.81307 4.60301 9.71918 4.50912C9.62529 4.41523 9.51364 4.34097 9.39074 4.29069C9.26784 4.24041 9.13616 4.21511 9.00339 4.21626C8.87061 4.21742 8.73939 4.245 8.61738 4.29741C8.49538 4.34982 8.38503 4.426 8.29279 4.52151L1.29279 11.5215C1.10532 11.709 1 11.9634 1 12.2285C1 12.4937 1.10532 12.748 1.29279 12.9355L8.29279 19.9355C8.48139 20.1177 8.73399 20.2185 8.99619 20.2162C9.25838 20.2139 9.5092 20.1087 9.6946 19.9233C9.88001 19.7379 9.98518 19.4871 9.98746 19.2249C9.98974 18.9627 9.88894 18.7101 9.70679 18.5215L4.41379 13.2285H21.9998C22.265 13.2285 22.5194 13.1232 22.7069 12.9356C22.8944 12.7481 22.9998 12.4937 22.9998 12.2285C22.9998 11.9633 22.8944 11.7089 22.7069 11.5214C22.5194 11.3339 22.265 11.2285 21.9998 11.2285Z" fill="black"/>
</svg>
