<svg width="187" height="50" viewBox="0 0 187 50" fill="none" xmlns="http://www.w3.org/2000/svg">
<g clip-path="url(#clip0_516_2126)">
<path d="M7.46842 39.4518L0.0766323 19.1221C-0.152707 18.4468 0.153079 17.9774 0.852858 17.9774H4.38116C4.63247 17.9702 4.87912 18.0444 5.08241 18.1884C5.28569 18.3324 5.4341 18.538 5.50434 18.773L10.7321 35.0676L15.6423 18.8131C15.6977 18.5669 15.8409 18.3479 16.0466 18.1949C16.2522 18.0419 16.507 17.9648 16.7655 17.9774H20.5525C20.8108 17.966 21.065 18.0435 21.2704 18.1963C21.4758 18.3491 21.6193 18.5675 21.6757 18.8131L26.5977 35.0447L31.7843 18.7673C31.8426 18.5257 31.988 18.3126 32.1942 18.1666C32.4003 18.0206 32.6534 17.9514 32.9075 17.9717H36.5475C37.2414 17.9717 37.5531 18.4468 37.3179 19.1164L29.8026 39.4518C29.7401 39.684 29.5984 39.8886 29.4007 40.0321C29.203 40.1756 28.9611 40.2495 28.7147 40.2416H24.4984C24.2406 40.2545 23.9866 40.1782 23.781 40.0264C23.5755 39.8745 23.4317 39.6568 23.3752 39.4117L18.6708 24.1645L13.8958 39.4003C13.8393 39.6454 13.6955 39.8631 13.49 40.0149C13.2844 40.1668 13.0304 40.243 12.7726 40.2302H8.55044C8.30628 40.2384 8.06646 40.1659 7.87001 40.0246C7.67355 39.8833 7.53201 39.6814 7.46842 39.4518Z" fill="black"/>
<path d="M37.5059 33.9342C37.5059 29.4242 39.17 27.7644 44.4331 27.2092L52.5599 26.3793C52.7421 26.3784 52.9218 26.339 53.0868 26.2638C53.2517 26.1887 53.3979 26.0796 53.5153 25.9441C53.6328 25.8086 53.7186 25.6499 53.7668 25.479C53.8151 25.3081 53.8246 25.129 53.7948 24.9542C53.7948 23.3287 53.1186 23.0998 51.1075 23.0998H40.2579C39.9584 23.0597 39.6862 22.909 39.4978 22.6788C39.3095 22.4486 39.2195 22.1566 39.2465 21.8635V19.0018C39.2278 18.8704 39.2395 18.7366 39.2806 18.6102C39.3217 18.4837 39.3913 18.3678 39.4842 18.2707C39.5771 18.1737 39.6911 18.0981 39.8178 18.0493C39.9445 18.0005 40.0808 17.9798 40.2168 17.9887H51.1898C56.7645 17.9887 58.905 20.0263 58.905 24.5421V39.2399C58.923 39.3696 58.9109 39.5016 58.8696 39.6261C58.8283 39.7507 58.7589 39.8647 58.6664 39.9597C58.5738 40.0546 58.4606 40.1282 58.335 40.175C58.2094 40.2218 58.0746 40.2406 57.9406 40.23H54.7651C54.6306 40.2415 54.4952 40.2234 54.3688 40.177C54.2425 40.1306 54.1285 40.0572 54.0353 39.9621C53.9421 39.867 53.8721 39.7527 53.8305 39.6277C53.7889 39.5026 53.7767 39.3701 53.7948 39.2399V37.3797C52.7893 39.2799 51.2427 40.2415 47.8791 40.2415H45.6327C40.4461 40.23 37.5059 38.41 37.5059 33.9342ZM50.3783 35.0789C52.9363 35.0789 53.7948 34.4665 53.7948 32.0455V30.2083L45.3093 31.0382C43.257 31.2328 42.6748 31.7994 42.6748 33.2703C42.6748 34.6325 43.6392 35.056 45.5798 35.056L50.3783 35.0789Z" fill="black"/>
<path d="M93.1058 39.2227V36.2179C93.0963 35.9906 93.1364 35.7638 93.2236 35.5527C93.3108 35.3415 93.443 35.1508 93.6115 34.9931L105.819 23.1055H94.1172C93.9782 23.1113 93.8396 23.0877 93.7108 23.0365C93.5821 22.9852 93.4662 22.9074 93.3713 22.8084C93.2763 22.7095 93.2045 22.5917 93.1607 22.4632C93.1169 22.3346 93.1022 22.1984 93.1176 22.0638V18.9732C93.0997 18.8425 93.112 18.7095 93.1536 18.5841C93.1952 18.4586 93.265 18.3437 93.3579 18.2477C93.4508 18.1518 93.5646 18.0772 93.6909 18.0295C93.8171 17.9817 93.9527 17.9619 94.0878 17.9716H112.082C112.217 17.9619 112.353 17.9817 112.479 18.0295C112.605 18.0772 112.719 18.1518 112.812 18.2477C112.905 18.3437 112.975 18.4586 113.016 18.5841C113.058 18.7095 113.07 18.8425 113.052 18.9732V21.9837C113.06 22.2109 113.019 22.4371 112.932 22.6479C112.845 22.8588 112.714 23.0497 112.547 23.2085L100.409 35.0618H112.17C112.788 35.0618 113.058 35.4281 113.058 36.0634V39.2456C113.077 39.3758 113.064 39.5084 113.023 39.6334C112.981 39.7584 112.911 39.8727 112.818 39.9678C112.725 40.0629 112.611 40.1364 112.484 40.1828C112.358 40.2292 112.223 40.2473 112.088 40.2358H94.0937C93.9555 40.2509 93.8157 40.2346 93.685 40.1882C93.5544 40.1418 93.4366 40.0665 93.3409 39.9684C93.2452 39.8702 93.1741 39.7518 93.1333 39.6224C93.0925 39.4931 93.0831 39.3562 93.1058 39.2227V39.2227Z" fill="black"/>
<path d="M138.221 26.6483V31.4389C138.221 37.0936 136.404 40.2244 130.212 40.2244H126.495C123.514 40.2244 121.791 39.3487 120.885 37.6889V47.0238C120.904 47.154 120.891 47.2866 120.85 47.4116C120.808 47.5366 120.738 47.6509 120.645 47.746C120.552 47.8411 120.438 47.9146 120.311 47.961C120.185 48.0073 120.05 48.0255 119.915 48.014H116.757C116.623 48.0255 116.487 48.0073 116.361 47.961C116.235 47.9146 116.121 47.8411 116.027 47.746C115.934 47.6509 115.864 47.5366 115.823 47.4116C115.781 47.2866 115.769 47.154 115.787 47.0238V18.9789C115.769 18.848 115.782 18.7148 115.823 18.5891C115.865 18.4634 115.934 18.3482 116.027 18.2518C116.12 18.1555 116.234 18.0804 116.36 18.0319C116.486 17.9835 116.622 17.9629 116.757 17.9716H119.933C120.068 17.9627 120.203 17.9832 120.329 18.0317C120.456 18.0802 120.569 18.1554 120.661 18.2519C120.754 18.3484 120.823 18.4637 120.864 18.5895C120.904 18.7153 120.916 18.8483 120.897 18.9789V20.5243C121.826 18.8645 123.526 17.9716 126.507 17.9716H130.224C136.416 17.9659 138.221 21.1367 138.221 26.6483ZM133.123 26.7571C133.123 24.1472 132.417 23.0998 130.094 23.0998H123.931C121.838 23.0998 120.915 24.0785 120.915 26.7685V31.1412C120.915 33.8713 121.838 35.0561 123.926 35.0561H130.13C132.452 35.0561 133.146 33.8198 133.146 31.1641L133.123 26.7571Z" fill="black"/>
<path d="M140.479 33.9229C140.479 29.4128 142.144 27.753 147.407 27.1978L155.534 26.3679C155.716 26.3669 155.896 26.3274 156.061 26.2524C156.226 26.1773 156.373 26.0683 156.491 25.9329C156.608 25.7976 156.695 25.639 156.744 25.4681C156.793 25.2972 156.803 25.118 156.774 24.9428C156.774 23.3173 156.08 23.1056 154.069 23.1056H143.243C143.109 23.1171 142.973 23.099 142.847 23.0526C142.721 23.0062 142.607 22.9327 142.514 22.8376C142.42 22.7425 142.35 22.6282 142.309 22.5032C142.267 22.3782 142.255 22.2456 142.273 22.1154L142.22 18.9675C142.201 18.8371 142.213 18.7043 142.254 18.5788C142.294 18.4533 142.364 18.3382 142.456 18.2422C142.549 18.1461 142.662 18.0714 142.788 18.0236C142.914 17.9758 143.05 17.9561 143.185 17.9659H154.175C159.75 17.9659 161.885 19.9977 161.885 24.5078V39.2285C161.902 39.3583 161.889 39.4902 161.847 39.6145C161.805 39.7388 161.735 39.8523 161.641 39.9467C161.548 40.0412 161.435 40.1141 161.309 40.1602C161.183 40.2062 161.048 40.2243 160.914 40.2129H157.739C157.605 40.2245 157.47 40.2065 157.345 40.1604C157.219 40.1143 157.106 40.0413 157.013 39.9467C156.92 39.8521 156.851 39.7384 156.81 39.6141C156.768 39.4898 156.756 39.358 156.774 39.2285V37.3684C155.769 39.2628 154.222 40.2301 150.853 40.2301H148.606C143.42 40.2129 140.479 38.3929 140.479 33.9229ZM153.317 35.0676C155.869 35.0676 156.774 34.6497 156.774 32.1143V30.2026L148.259 31.0726C146.207 31.2729 145.631 31.8682 145.631 33.4078C145.631 34.8329 146.683 35.0561 148.618 35.0561L153.317 35.0676Z" fill="black"/>
<path d="M168.076 48.9469V45.8677C168.076 45.1923 168.423 44.8089 169.041 44.8089H178.838C181.154 44.8089 181.895 43.8817 181.895 41.226V37.3455C181.002 39.24 179.379 40.2072 176.28 40.2072H172.798C166.565 40.2072 164.789 36.8762 164.789 30.8379V19.0305C164.789 18.3551 165.124 17.9602 165.742 17.9602H168.917C169.535 17.9602 169.893 18.3551 169.893 19.0305V31.4389C169.893 34.3922 170.593 35.0561 172.875 35.0561H178.885C180.937 35.0561 181.895 34.4838 181.895 31.4389V19.0305C181.895 18.3551 182.242 17.9659 182.86 17.9659H186.029C186.653 17.9659 187 18.3551 187 19.0305V40.6365C187 46.4114 185.03 50 178.838 50H169.041C168.423 50 168.076 49.6223 168.076 48.9469Z" fill="black"/>
<path d="M72.7418 46.0679C74.0311 46.0679 75.0763 45.0506 75.0763 43.7957C75.0763 42.5408 74.0311 41.5235 72.7418 41.5235C71.4524 41.5235 70.4072 42.5408 70.4072 43.7957C70.4072 45.0506 71.4524 46.0679 72.7418 46.0679Z" fill="#FFB504"/>
<path d="M81.6978 46.0679C82.9872 46.0679 84.0324 45.0506 84.0324 43.7957C84.0324 42.5408 82.9872 41.5235 81.6978 41.5235C80.4085 41.5235 79.3633 42.5408 79.3633 43.7957C79.3633 45.0506 80.4085 46.0679 81.6978 46.0679Z" fill="#FFB504"/>
<path d="M92.7059 13.164H112.905L92.0649 15.751L92.7059 13.164Z" fill="#FFB504"/>
<path d="M93.4296 10.2278H106.22L93.0591 11.7331L93.4296 10.2278Z" fill="#FFB504"/>
<path d="M82.4389 39.9095H70.0898C69.1135 39.8877 68.1683 39.5708 67.3854 39.0026C66.6025 38.4344 66.0207 37.6432 65.7206 36.7387L61.4161 22.7391C61.2482 22.2198 61.2096 21.6691 61.3034 21.1325C61.3972 20.5958 61.6207 20.0885 61.9556 19.6524C62.2905 19.2164 62.727 18.8641 63.2293 18.6246C63.7316 18.385 64.2852 18.2652 64.8444 18.2748H80.1337C80.6804 18.2711 81.212 18.4497 81.6399 18.7808C82.0678 19.1119 82.3664 19.5757 82.4859 20.0949C82.5526 20.4254 82.5434 20.7661 82.4592 21.0928C82.375 21.4195 82.2178 21.724 81.9988 21.9848C81.7797 22.2455 81.5043 22.456 81.1921 22.6012C80.8799 22.7465 80.5386 22.8229 80.1926 22.825H66.3498L70.1722 35.3135H70.2016H82.2978L89.6425 7.40031C90.1094 5.8502 91.1263 4.51163 92.5122 3.62283L97.5106 0.663814C98.0298 0.335088 98.6581 0.211289 99.2677 0.317622C99.8773 0.423955 100.422 0.752426 100.792 1.23616C100.967 1.49196 101.087 1.77941 101.145 2.08138C101.204 2.38334 101.199 2.69365 101.131 2.99379C101.064 3.29394 100.935 3.5778 100.752 3.82845C100.57 4.0791 100.337 4.29141 100.069 4.45273L94.9467 7.48616C94.5936 7.76358 94.3252 8.12974 94.1705 8.545L86.7905 36.6471C86.539 37.5833 85.9752 38.4116 85.1875 39.0021C84.3999 39.5926 83.4331 39.9118 82.4389 39.9095V39.9095Z" fill="black" stroke="black" stroke-width="0.5" stroke-miterlimit="10"/>
</g>
<defs>
<clipPath id="clip0_516_2126">
<rect width="187" height="50" fill="white"/>
</clipPath>
</defs>
</svg>
