<svg width="20" height="20" viewBox="0 0 20 20" fill="none" xmlns="http://www.w3.org/2000/svg">
<g clip-path="url(#clip0_1_1627)">
<path d="M7.82938 10.8271C7.82938 10.6267 7.66681 10.4643 7.46622 10.4643H6.19891C5.99854 10.4643 5.83594 10.6267 5.83594 10.8271V12.0943C5.83594 12.295 5.99854 12.4574 6.19891 12.4574H7.46622C7.66681 12.4574 7.82938 12.295 7.82938 12.0943V10.8271Z" fill="#2D2D2D"/>
<path d="M10.9967 10.8271C10.9967 10.6267 10.8341 10.4643 10.6339 10.4643H9.36639C9.16602 10.4643 9.00342 10.6267 9.00342 10.8271V12.0943C9.00342 12.295 9.16602 12.4574 9.36639 12.4574H10.6339C10.8341 12.4574 10.9967 12.295 10.9967 12.0943V10.8271Z" fill="#2D2D2D"/>
<path d="M14.1639 10.8271C14.1639 10.6267 14.0012 10.4643 13.8009 10.4643H12.5336C12.333 10.4643 12.1704 10.6267 12.1704 10.8271V12.0943C12.1704 12.295 12.333 12.4574 12.5336 12.4574H13.8009C14.0012 12.4574 14.1639 12.295 14.1639 12.0943V10.8271Z" fill="#2D2D2D"/>
<path d="M7.82938 13.9946C7.82938 13.7939 7.66681 13.6316 7.46622 13.6316H6.19891C5.99854 13.6316 5.83594 13.7939 5.83594 13.9946V15.2615C5.83594 15.4621 5.99854 15.6245 6.19891 15.6245H7.46622C7.66681 15.6245 7.82938 15.4621 7.82938 15.2615V13.9946Z" fill="#2D2D2D"/>
<path d="M10.9967 13.9946C10.9967 13.7939 10.8341 13.6316 10.6339 13.6316H9.36639C9.16602 13.6316 9.00342 13.7939 9.00342 13.9946V15.2615C9.00342 15.4621 9.16602 15.6245 9.36639 15.6245H10.6339C10.8341 15.6245 10.9967 15.4621 10.9967 15.2615V13.9946Z" fill="#2D2D2D"/>
<path d="M14.1639 13.9946C14.1639 13.7939 14.0012 13.6316 13.801 13.6316H12.5336C12.333 13.6316 12.1704 13.7939 12.1704 13.9946V15.2615C12.1704 15.4621 12.333 15.6245 12.5336 15.6245H13.801C14.0012 15.6245 14.1639 15.4621 14.1639 15.2615V13.9946Z" fill="#2D2D2D"/>
<path d="M16.43 3.78155V5.71701C16.43 6.59182 15.7203 7.29678 14.8456 7.29678H13.8461C12.9714 7.29678 12.2523 6.59182 12.2523 5.71701V3.7746H7.74748V5.71701C7.74748 6.59182 7.02842 7.29678 6.15381 7.29678H5.15416C4.27951 7.29678 3.56986 6.59182 3.56986 5.71701V3.78155C2.80541 3.80459 2.17725 4.43715 2.17725 5.21464V16.5574C2.17725 17.3495 2.81928 18 3.61139 18H16.3884C17.1793 18 17.8225 17.3481 17.8225 16.5574V5.21464C17.8225 4.43715 17.1944 3.80459 16.43 3.78155ZM15.9657 15.851C15.9657 16.1934 15.6882 16.4711 15.3457 16.4711H4.62675C4.28429 16.4711 4.00674 16.1934 4.00674 15.851V9.9921C4.00674 9.64965 4.28426 9.37194 4.62675 9.37194H15.3457C15.6882 9.37194 15.9657 9.64965 15.9657 9.9921L15.9657 15.851Z" fill="#2D2D2D"/>
<path d="M5.15079 6.25917H6.1394C6.43947 6.25917 6.68278 6.01622 6.68278 5.71615V2.54321C6.68278 2.2431 6.43947 2 6.1394 2H5.15079C4.85069 2 4.60742 2.2431 4.60742 2.54321V5.71615C4.60742 6.01622 4.85069 6.25917 5.15079 6.25917Z" fill="#2D2D2D"/>
<path d="M13.8334 6.25917H14.822C15.1219 6.25917 15.3652 6.01622 15.3652 5.71615V2.54321C15.3652 2.2431 15.1219 2 14.822 2H13.8334C13.5333 2 13.29 2.2431 13.29 2.54321V5.71615C13.29 6.01622 13.5333 6.25917 13.8334 6.25917Z" fill="#2D2D2D"/>
</g>
<defs>
<clipPath id="clip0_1_1627">
<rect width="16" height="16" fill="white" transform="translate(2 2)"/>
</clipPath>
</defs>
</svg>
