<svg width="12" height="12" viewBox="0 0 12 12" fill="none" xmlns="http://www.w3.org/2000/svg">
<g clip-path="url(#clip0_0_5402)">
<path d="M11.6923 9.73547L2.28788 0.331052C1.87773 -0.0791007 1.21277 -0.0791007 0.803259 0.331052L0.307615 0.825927C-0.102538 1.23621 -0.102538 1.90117 0.307615 2.31068L9.71203 11.7151C10.1223 12.1253 10.7873 12.1253 11.1968 11.7151L11.6917 11.2202C12.1026 10.8107 12.1026 10.1456 11.6923 9.73547Z" fill="#F44336"/>
<path d="M9.71203 0.330956L0.307615 9.73538C-0.102538 10.1455 -0.102538 10.8106 0.307615 11.2201L0.80249 11.715C1.21277 12.1252 1.87773 12.1252 2.28724 11.715L11.6923 2.31123C12.1026 1.90107 12.1026 1.23611 11.6923 0.8266L11.1974 0.331725C10.7873 -0.0791968 10.1223 -0.0791968 9.71203 0.330956Z" fill="#F44336"/>
</g>
<defs>
<clipPath id="clip0_0_5402">
<rect width="12" height="12" fill="white"/>
</clipPath>
</defs>
</svg>
