<svg width="16" height="16" viewBox="0 0 16 16" fill="none" xmlns="http://www.w3.org/2000/svg">
<path fill-rule="evenodd" clip-rule="evenodd" d="M13.191 5.43417C13.0017 5.62351 12.6947 5.62351 12.5053 5.43417L10.9088 3.83761L9.31221 5.43417C9.12287 5.6235 8.81587 5.6235 8.62653 5.43417C8.4372 5.24484 8.4372 4.93783 8.62654 4.7485L10.5659 2.80911C10.7553 2.61977 11.0623 2.61977 11.2516 2.80911L13.191 4.7485C13.3803 4.93783 13.3803 5.24484 13.191 5.43417Z" fill="black"/>
<path fill-rule="evenodd" clip-rule="evenodd" d="M10.9087 13.334C10.6409 13.334 10.4239 13.1169 10.4239 12.8491L10.4239 3.15217C10.4239 2.88438 10.6409 2.66732 10.9087 2.66732C11.1765 2.66732 11.3936 2.88438 11.3936 3.15217L11.3936 12.8491C11.3936 13.1169 11.1765 13.334 10.9087 13.334Z" fill="black"/>
<path fill-rule="evenodd" clip-rule="evenodd" d="M5.43325 13.192C5.24392 13.3813 4.93692 13.3813 4.74758 13.192L2.80819 11.2526C2.61885 11.0632 2.61885 10.7562 2.80819 10.5669C2.99752 10.3776 3.30453 10.3776 3.49386 10.5669L5.09042 12.1635L6.68698 10.5669C6.87631 10.3776 7.18332 10.3776 7.37265 10.5669C7.56198 10.7562 7.56198 11.0632 7.37265 11.2526L5.43325 13.192Z" fill="#9C9C9C"/>
<path fill-rule="evenodd" clip-rule="evenodd" d="M5.09035 13.334C4.82257 13.334 4.6055 13.1169 4.6055 12.8491L4.6055 3.15217C4.6055 2.88438 4.82257 2.66732 5.09035 2.66732C5.35813 2.66732 5.5752 2.88438 5.5752 3.15217L5.5752 12.8491C5.5752 13.1169 5.35813 13.334 5.09035 13.334Z" fill="#9C9C9C"/>
</svg>
