<svg width="24" height="24" viewBox="0 0 24 24" fill="none" xmlns="http://www.w3.org/2000/svg">
<g clip-path="url(#clip0_0_4881)">
<path d="M16.6666 12.0306C16.298 12.0306 16 12.3293 16 12.6973V18.0306C16 18.3979 15.7013 18.6973 15.3334 18.6973H6C5.63196 18.6973 5.33337 18.3979 5.33337 18.0306V8.69727C5.33337 8.32996 5.63196 8.03064 6 8.03064H11.3334C11.702 8.03064 12 7.73193 12 7.36401C12 6.99597 11.702 6.69727 11.3334 6.69727H6C4.89734 6.69727 4 7.5946 4 8.69727V18.0306C4 19.1333 4.89734 20.0306 6 20.0306H15.3334C16.436 20.0306 17.3334 19.1333 17.3334 18.0306V12.6973C17.3334 12.3286 17.0353 12.0306 16.6666 12.0306Z" fill="#4F3F3F"/>
<path d="M10.2508 11.4236C10.2041 11.4702 10.1727 11.5295 10.1594 11.5935L9.68813 13.9509C9.66616 14.0602 9.70082 14.1729 9.77944 14.2522C9.84279 14.3156 9.92812 14.3495 10.0155 14.3495C10.0368 14.3495 10.0589 14.3475 10.0808 14.3429L12.4375 13.8716C12.5028 13.8582 12.5622 13.8269 12.6082 13.7802L17.8828 8.50549L15.5261 6.14893L10.2508 11.4236Z" fill="#4F3F3F"/>
<path d="M19.5117 4.51877C18.8618 3.86874 17.8044 3.86874 17.155 4.51877L16.2324 5.44138L18.5891 7.79807L19.5117 6.87534C19.8264 6.56137 19.9998 6.14267 19.9998 5.69736C19.9998 5.25204 19.8264 4.83334 19.5117 4.51877Z" fill="#4F3F3F"/>
</g>
<defs>
<clipPath id="clip0_0_4881">
<rect width="16" height="16" fill="white" transform="translate(4 4)"/>
</clipPath>
</defs>
</svg>
