<svg width="13" height="12" viewBox="0 0 13 12" fill="none" xmlns="http://www.w3.org/2000/svg">
<path d="M12.4633 9.19536L7.96441 0.913016C7.62486 0.341393 7.02516 0 6.36026 0C5.69537 0 5.09567 0.341393 4.75611 0.913016C4.75355 0.917389 4.75139 0.921762 4.74883 0.926135L0.264901 9.18226C-0.0819338 9.76594 -0.0884933 10.4669 0.247036 11.0571C0.583336 11.6477 1.1892 12 1.86868 12H10.827C11.5065 12 12.1372 11.6477 12.4735 11.0571C12.809 10.4669 12.8025 9.76591 12.4633 9.19536ZM5.61412 3.79232C5.61412 3.38022 5.94818 3.04618 6.36026 3.04618C6.77237 3.04618 7.10641 3.38024 7.10641 3.79232V6.77693C7.10641 7.18899 6.77234 7.52308 6.36026 7.52308C5.94818 7.52308 5.61412 7.18896 5.61412 6.77693V3.79232ZM6.36026 10.5077C5.7431 10.5077 5.24102 10.0057 5.24102 9.38847C5.24102 8.7713 5.74307 8.26925 6.36026 8.26925C6.97743 8.26925 7.47948 8.7713 7.47948 9.38847C7.47951 10.0056 6.97745 10.5077 6.36026 10.5077Z" fill="#F70000"/>
</svg>
