<svg width="14" height="14" viewBox="0 0 14 14" fill="none" xmlns="http://www.w3.org/2000/svg">
<path d="M4.89971 13.1527V7.83305L0.126028 1.08904C0.0527974 0.985264 0.00971523 0.863631 0.00145941 0.737348C-0.0067964 0.611065 0.0200896 0.484958 0.0791984 0.37272C0.138307 0.260482 0.22738 0.166401 0.336746 0.100693C0.446111 0.0349848 0.57159 0.000160121 0.699558 0H13.3C13.428 0.000160121 13.5534 0.0349848 13.6628 0.100693C13.7722 0.166401 13.8613 0.260482 13.9204 0.37272C13.9795 0.484958 14.0064 0.611065 13.9981 0.737348C13.9898 0.863631 13.9468 0.985264 13.8735 1.08904L9.09985 7.83305V11.4221C9.09978 11.5395 9.06955 11.6549 9.012 11.7576C8.95446 11.8603 8.87147 11.9469 8.77084 12.0092L5.97074 13.7398C5.86473 13.805 5.74301 13.8411 5.61817 13.8442C5.49334 13.8473 5.36993 13.8174 5.26071 13.7576C5.15149 13.6977 5.06044 13.6101 4.99697 13.5037C4.9335 13.3974 4.89992 13.2762 4.89971 13.1527ZM2.04424 1.38449L6.17326 7.21792C6.25548 7.33427 6.29963 7.47276 6.29976 7.61471V11.9037L7.6998 11.0384V7.61471C7.69993 7.47276 7.74408 7.33427 7.8263 7.21792L11.9553 1.38449H2.04424Z" fill="#131313"/>
</svg>
