<svg width="24" height="24" viewBox="0 0 24 24" fill="none" xmlns="http://www.w3.org/2000/svg">
<path d="M12 0C5.36705 0 0 5.36752 0 12C0 18.633 5.36752 24 12 24C18.633 24 24 18.6325 24 12C24 5.36705 18.6324 0 12 0ZM12 22.125C6.40345 22.125 1.875 17.5962 1.875 12C1.875 6.40345 6.40383 1.875 12 1.875C17.5965 1.875 22.125 6.40383 22.125 12C22.125 17.5965 17.5961 22.125 12 22.125Z" fill="black"/>
<path d="M12 10.0461C11.4822 10.0461 11.0625 10.4659 11.0625 10.9836V17.0208C11.0625 17.5386 11.4822 17.9583 12 17.9583C12.5178 17.9583 12.9375 17.5385 12.9375 17.0208V10.9836C12.9375 10.4659 12.5178 10.0461 12 10.0461Z" fill="black"/>
<path d="M12 8.89771C12.699 8.89771 13.2656 8.33107 13.2656 7.63208C13.2656 6.93309 12.699 6.36646 12 6.36646C11.301 6.36646 10.7344 6.93309 10.7344 7.63208C10.7344 8.33107 11.301 8.89771 12 8.89771Z" fill="black"/>
</svg>
