<svg width="210" height="19" viewBox="0 0 210 19" fill="none" xmlns="http://www.w3.org/2000/svg">
<path d="M15.9176 6.65625H12.1847C12.1165 6.1733 11.9773 5.74432 11.767 5.36932C11.5568 4.98864 11.2869 4.66477 10.9574 4.39773C10.6278 4.13068 10.2472 3.92614 9.81534 3.78409C9.3892 3.64205 8.92614 3.57102 8.42614 3.57102C7.52273 3.57102 6.7358 3.79545 6.06534 4.24432C5.39489 4.6875 4.875 5.33523 4.50568 6.1875C4.13636 7.03409 3.9517 8.0625 3.9517 9.27273C3.9517 10.517 4.13636 11.5625 4.50568 12.4091C4.88068 13.2557 5.40341 13.8949 6.07386 14.3267C6.74432 14.7585 7.51989 14.9744 8.40057 14.9744C8.89489 14.9744 9.35227 14.9091 9.77273 14.7784C10.1989 14.6477 10.5767 14.4574 10.9062 14.2074C11.2358 13.9517 11.5085 13.642 11.7244 13.2784C11.946 12.9148 12.0994 12.5 12.1847 12.0341L15.9176 12.0511C15.821 12.8523 15.5795 13.625 15.1932 14.3693C14.8125 15.108 14.2983 15.7699 13.6506 16.3551C13.0085 16.9347 12.2415 17.3949 11.3494 17.7358C10.4631 18.071 9.46023 18.2386 8.34091 18.2386C6.78409 18.2386 5.39205 17.8864 4.16477 17.1818C2.94318 16.4773 1.97727 15.4574 1.26705 14.1222C0.5625 12.7869 0.210227 11.1705 0.210227 9.27273C0.210227 7.36932 0.568182 5.75 1.28409 4.41477C2 3.07955 2.97159 2.0625 4.19886 1.36364C5.42614 0.659091 6.80682 0.306818 8.34091 0.306818C9.35227 0.306818 10.2898 0.448863 11.1534 0.732954C12.0227 1.01705 12.7926 1.43182 13.4631 1.97727C14.1335 2.51704 14.679 3.17898 15.0994 3.96307C15.5256 4.74716 15.7983 5.64489 15.9176 6.65625ZM29.3452 0.545454H33.0355V11.8807C33.0355 13.1534 32.7315 14.267 32.1236 15.2216C31.5213 16.1761 30.6776 16.9205 29.5923 17.4545C28.5071 17.983 27.2429 18.2472 25.7997 18.2472C24.3509 18.2472 23.0838 17.983 21.9986 17.4545C20.9134 16.9205 20.0696 16.1761 19.4673 15.2216C18.8651 14.267 18.5639 13.1534 18.5639 11.8807V0.545454H22.2543V11.5653C22.2543 12.2301 22.3991 12.821 22.6889 13.3381C22.9844 13.8551 23.3991 14.2614 23.9332 14.5568C24.4673 14.8523 25.0895 15 25.7997 15C26.5156 15 27.1378 14.8523 27.6662 14.5568C28.2003 14.2614 28.6122 13.8551 28.902 13.3381C29.1974 12.821 29.3452 12.2301 29.3452 11.5653V0.545454ZM45.5405 5.56534C45.4723 4.87784 45.1797 4.34375 44.6626 3.96307C44.1456 3.58239 43.4439 3.39204 42.5575 3.39204C41.9553 3.39204 41.4467 3.47727 41.032 3.64773C40.6172 3.8125 40.299 4.04261 40.0774 4.33807C39.8615 4.63352 39.7536 4.96875 39.7536 5.34375C39.7422 5.65625 39.8075 5.92898 39.9496 6.16193C40.0973 6.39489 40.299 6.59659 40.5547 6.76705C40.8104 6.93182 41.1058 7.0767 41.4411 7.2017C41.7763 7.32102 42.1342 7.4233 42.5149 7.50852L44.0831 7.88352C44.8445 8.05398 45.5433 8.28125 46.1797 8.56534C46.8161 8.84943 47.3672 9.19886 47.8331 9.61364C48.299 10.0284 48.6598 10.517 48.9155 11.0795C49.1768 11.642 49.3104 12.2869 49.3161 13.0142C49.3104 14.0824 49.0376 15.0085 48.4979 15.7926C47.9638 16.571 47.1911 17.1761 46.1797 17.608C45.174 18.0341 43.9609 18.2472 42.5405 18.2472C41.1314 18.2472 39.9041 18.0312 38.8587 17.5994C37.8189 17.1676 37.0064 16.5284 36.4212 15.6818C35.8416 14.8295 35.5376 13.7756 35.5092 12.5199H39.0803C39.12 13.1051 39.2876 13.5937 39.5831 13.9858C39.8842 14.3722 40.2848 14.6648 40.7848 14.8636C41.2905 15.0568 41.8615 15.1534 42.4979 15.1534C43.1229 15.1534 43.6655 15.0625 44.1257 14.8807C44.5916 14.6989 44.9524 14.446 45.2081 14.1222C45.4638 13.7983 45.5916 13.4261 45.5916 13.0057C45.5916 12.6136 45.4751 12.2841 45.2422 12.017C45.0149 11.75 44.6797 11.5227 44.2365 11.3352C43.799 11.1477 43.2621 10.9773 42.6257 10.8239L40.7251 10.3466C39.2536 9.98864 38.0916 9.42898 37.2393 8.66761C36.3871 7.90625 35.9638 6.88068 35.9695 5.59091C35.9638 4.53409 36.245 3.6108 36.8132 2.82102C37.3871 2.03125 38.174 1.41477 39.174 0.971591C40.174 0.528409 41.3104 0.306818 42.5831 0.306818C43.8786 0.306818 45.0092 0.528409 45.9751 0.971591C46.9467 1.41477 47.7024 2.03125 48.2422 2.82102C48.782 3.6108 49.0604 4.52557 49.0774 5.56534H45.5405ZM51.1335 3.58807V0.545454H65.4688V3.58807H60.125V18H56.4773V3.58807H51.1335ZM83.0724 9.27273C83.0724 11.1761 82.7116 12.7955 81.9901 14.1307C81.2741 15.4659 80.2969 16.4858 79.0582 17.1903C77.8253 17.8892 76.4389 18.2386 74.8991 18.2386C73.348 18.2386 71.956 17.8864 70.723 17.1818C69.4901 16.4773 68.5156 15.4574 67.7997 14.1222C67.0838 12.7869 66.7259 11.1705 66.7259 9.27273C66.7259 7.36932 67.0838 5.75 67.7997 4.41477C68.5156 3.07955 69.4901 2.0625 70.723 1.36364C71.956 0.659091 73.348 0.306818 74.8991 0.306818C76.4389 0.306818 77.8253 0.659091 79.0582 1.36364C80.2969 2.0625 81.2741 3.07955 81.9901 4.41477C82.7116 5.75 83.0724 7.36932 83.0724 9.27273ZM79.331 9.27273C79.331 8.03977 79.1463 7 78.777 6.15341C78.4134 5.30682 77.8991 4.66477 77.2344 4.22727C76.5696 3.78977 75.7912 3.57102 74.8991 3.57102C74.0071 3.57102 73.2287 3.78977 72.5639 4.22727C71.8991 4.66477 71.3821 5.30682 71.0128 6.15341C70.6491 7 70.4673 8.03977 70.4673 9.27273C70.4673 10.5057 70.6491 11.5455 71.0128 12.392C71.3821 13.2386 71.8991 13.8807 72.5639 14.3182C73.2287 14.7557 74.0071 14.9744 74.8991 14.9744C75.7912 14.9744 76.5696 14.7557 77.2344 14.3182C77.8991 13.8807 78.4134 13.2386 78.777 12.392C79.1463 11.5455 79.331 10.5057 79.331 9.27273ZM85.8061 0.545454H90.3572L95.1641 12.2727H95.3686L100.175 0.545454H104.727V18H101.147V6.6392H101.002L96.4851 17.9148H94.0476L89.5305 6.59659H89.3857V18H85.8061V0.545454ZM107.767 18V0.545454H119.528V3.58807H111.457V7.74716H118.923V10.7898H111.457V14.9574H119.562V18H107.767ZM122.462 18V0.545454H129.349C130.667 0.545454 131.792 0.78125 132.724 1.25284C133.661 1.71875 134.374 2.38068 134.863 3.23864C135.357 4.09091 135.604 5.09375 135.604 6.24716C135.604 7.40625 135.354 8.40341 134.854 9.23864C134.354 10.0682 133.63 10.7045 132.681 11.1477C131.738 11.5909 130.596 11.8125 129.255 11.8125H124.644V8.84659H128.658C129.363 8.84659 129.948 8.75 130.414 8.55682C130.88 8.36364 131.227 8.07386 131.454 7.6875C131.687 7.30114 131.803 6.82102 131.803 6.24716C131.803 5.66761 131.687 5.17898 131.454 4.78125C131.227 4.38352 130.877 4.08239 130.406 3.87784C129.94 3.66761 129.352 3.5625 128.641 3.5625H126.153V18H122.462ZM131.888 10.0568L136.227 18H132.153L127.908 10.0568H131.888ZM143.767 18V0.545454H147.457V14.9574H154.94V18H143.767ZM172.744 9.27273C172.744 11.1761 172.384 12.7955 171.662 14.1307C170.946 15.4659 169.969 16.4858 168.73 17.1903C167.497 17.8892 166.111 18.2386 164.571 18.2386C163.02 18.2386 161.628 17.8864 160.395 17.1818C159.162 16.4773 158.188 15.4574 157.472 14.1222C156.756 12.7869 156.398 11.1705 156.398 9.27273C156.398 7.36932 156.756 5.75 157.472 4.41477C158.188 3.07955 159.162 2.0625 160.395 1.36364C161.628 0.659091 163.02 0.306818 164.571 0.306818C166.111 0.306818 167.497 0.659091 168.73 1.36364C169.969 2.0625 170.946 3.07955 171.662 4.41477C172.384 5.75 172.744 7.36932 172.744 9.27273ZM169.003 9.27273C169.003 8.03977 168.818 7 168.449 6.15341C168.085 5.30682 167.571 4.66477 166.906 4.22727C166.241 3.78977 165.463 3.57102 164.571 3.57102C163.679 3.57102 162.901 3.78977 162.236 4.22727C161.571 4.66477 161.054 5.30682 160.685 6.15341C160.321 7 160.139 8.03977 160.139 9.27273C160.139 10.5057 160.321 11.5455 160.685 12.392C161.054 13.2386 161.571 13.8807 162.236 14.3182C162.901 14.7557 163.679 14.9744 164.571 14.9744C165.463 14.9744 166.241 14.7557 166.906 14.3182C167.571 13.8807 168.085 13.2386 168.449 12.392C168.818 11.5455 169.003 10.5057 169.003 9.27273ZM187.052 6.1875C186.933 5.77273 186.765 5.40625 186.549 5.08807C186.333 4.7642 186.069 4.49148 185.756 4.26989C185.45 4.04261 185.097 3.86932 184.7 3.75C184.308 3.63068 183.873 3.57102 183.396 3.57102C182.504 3.57102 181.719 3.79261 181.043 4.23579C180.373 4.67898 179.85 5.32386 179.475 6.17045C179.1 7.01136 178.913 8.03977 178.913 9.25568C178.913 10.4716 179.097 11.5057 179.467 12.358C179.836 13.2102 180.359 13.8608 181.035 14.3097C181.711 14.7528 182.509 14.9744 183.43 14.9744C184.265 14.9744 184.978 14.8267 185.569 14.5312C186.165 14.2301 186.62 13.8068 186.933 13.2614C187.251 12.7159 187.41 12.071 187.41 11.3267L188.16 11.4375H183.66V8.65909H190.964V10.858C190.964 12.392 190.64 13.7102 189.992 14.8125C189.344 15.9091 188.452 16.7557 187.316 17.3523C186.18 17.9432 184.879 18.2386 183.413 18.2386C181.776 18.2386 180.339 17.8778 179.1 17.1562C177.862 16.429 176.896 15.3977 176.202 14.0625C175.515 12.7216 175.171 11.1307 175.171 9.28977C175.171 7.875 175.376 6.61364 175.785 5.50568C176.2 4.39205 176.779 3.44886 177.523 2.67614C178.268 1.90341 179.134 1.31534 180.123 0.911931C181.112 0.508522 182.183 0.306818 183.336 0.306818C184.325 0.306818 185.245 0.451704 186.097 0.741477C186.95 1.02557 187.705 1.42898 188.364 1.9517C189.029 2.47443 189.572 3.09659 189.992 3.81818C190.413 4.53409 190.683 5.32386 190.802 6.1875H187.052ZM209.776 9.27273C209.776 11.1761 209.415 12.7955 208.693 14.1307C207.977 15.4659 207 16.4858 205.761 17.1903C204.528 17.8892 203.142 18.2386 201.602 18.2386C200.051 18.2386 198.659 17.8864 197.426 17.1818C196.193 16.4773 195.219 15.4574 194.503 14.1222C193.787 12.7869 193.429 11.1705 193.429 9.27273C193.429 7.36932 193.787 5.75 194.503 4.41477C195.219 3.07955 196.193 2.0625 197.426 1.36364C198.659 0.659091 200.051 0.306818 201.602 0.306818C203.142 0.306818 204.528 0.659091 205.761 1.36364C207 2.0625 207.977 3.07955 208.693 4.41477C209.415 5.75 209.776 7.36932 209.776 9.27273ZM206.034 9.27273C206.034 8.03977 205.849 7 205.48 6.15341C205.116 5.30682 204.602 4.66477 203.938 4.22727C203.273 3.78977 202.494 3.57102 201.602 3.57102C200.71 3.57102 199.932 3.78977 199.267 4.22727C198.602 4.66477 198.085 5.30682 197.716 6.15341C197.352 7 197.17 8.03977 197.17 9.27273C197.17 10.5057 197.352 11.5455 197.716 12.392C198.085 13.2386 198.602 13.8807 199.267 14.3182C199.932 14.7557 200.71 14.9744 201.602 14.9744C202.494 14.9744 203.273 14.7557 203.938 14.3182C204.602 13.8807 205.116 13.2386 205.48 12.392C205.849 11.5455 206.034 10.5057 206.034 9.27273Z" fill="#FFC235"/>
</svg>
