<svg width="82" height="76" viewBox="0 0 82 76" fill="none" xmlns="http://www.w3.org/2000/svg">
<path d="M70.3017 0H11.6983C5.24768 0 0 5.26436 0 11.7351V51.412C0 57.8828 5.24768 63.1472 11.6983 63.1472H16.2889L16.3787 73.507C16.3867 74.4618 16.9333 75.3296 17.7895 75.747C18.1375 75.9166 18.5121 76 18.885 76C19.4294 76 19.9697 75.8223 20.4169 75.4759L36.3404 63.1472H70.3017C76.7523 63.1472 82 57.8828 82 51.412V11.7351C82 5.26436 76.7523 0 70.3017 0ZM76.9865 51.4122C76.9865 55.1098 73.9877 58.118 70.3017 58.118H35.4857C34.9315 58.118 34.3929 58.3023 33.9541 58.6419L21.348 68.402L21.2804 60.6108C21.2686 59.2306 20.1497 58.118 18.7738 58.118H11.6983C8.0123 58.118 5.01353 55.1098 5.01353 51.4122V11.7351C5.01353 8.03753 8.0123 5.02932 11.6983 5.02932H70.3019C73.9879 5.02932 76.9866 8.03753 76.9866 11.7351L76.9865 51.4122Z" fill="black"/>
<path d="M41.004 12.0864C30.099 12.0864 21.2275 20.9858 21.2275 31.9252C21.2275 42.8645 30.099 51.7639 41.004 51.7639C51.909 51.7639 60.7805 42.8646 60.7805 31.9252C60.7805 20.9857 51.9091 12.0864 41.004 12.0864ZM54.6845 23.9897H49.9003C49.3719 21.7576 48.6191 19.6044 47.6456 17.5401C50.5995 18.9185 53.0577 21.1788 54.6845 23.9897ZM56.8252 31.9252C56.8252 33.2973 56.6324 34.6222 56.3044 35.8929H50.6252C50.7839 34.5764 50.8922 33.2527 50.8922 31.9252C50.8922 30.595 50.7839 29.271 50.6257 27.9574H56.3044C56.6324 29.2282 56.8252 30.553 56.8252 31.9252ZM35.3751 35.8929C35.1947 34.5792 35.0711 33.2547 35.0711 31.9252C35.0711 30.5982 35.1945 29.2747 35.3756 27.9574H46.6329C46.8134 29.2706 46.9369 30.5948 46.9369 31.9252C46.9369 33.2516 46.8135 34.5753 46.6324 35.8929H35.3751ZM25.1828 31.9252C25.1828 30.553 25.3756 29.2282 25.7036 27.9574H31.3827C31.2241 29.2736 31.1158 30.5974 31.1158 31.9252C31.1158 33.2548 31.2242 34.5791 31.3824 35.8929H25.7036C25.3756 34.6222 25.1828 33.2973 25.1828 31.9252ZM42.3762 16.1239C43.9204 18.5777 45.0838 21.2064 45.8384 23.9897H36.1691C36.9221 21.2117 38.0857 18.5807 39.6318 16.1239C40.0849 16.0846 40.5408 16.0542 41.0039 16.0542C41.4671 16.0542 41.9231 16.0846 42.3762 16.1239ZM34.3619 17.5404C33.3868 19.6072 32.6338 21.7608 32.107 23.9897H27.3236C28.9503 21.1789 31.408 18.9187 34.3619 17.5404ZM27.3236 39.8607H32.1078C32.6361 42.0928 33.3889 44.246 34.3624 46.3102C31.4084 44.9319 28.9503 42.6716 27.3236 39.8607ZM39.6319 47.7264C38.0875 45.2725 36.9244 42.6437 36.1695 39.8607H45.8389C45.0859 42.6386 43.9224 45.2697 42.3762 47.7264C41.9231 47.7658 41.4672 47.7962 41.004 47.7962C40.5409 47.7962 40.0849 47.7658 39.6319 47.7264ZM47.646 46.31C48.6209 44.2432 49.3739 42.0897 49.9008 39.8607H54.6845C53.0577 42.6714 50.5998 44.9315 47.646 46.31Z" fill="black"/>
</svg>
