<svg width="50" height="42" viewBox="0 0 50 42" fill="none" xmlns="http://www.w3.org/2000/svg">
<path d="M24.8445 15.6847H22.1981C21.9884 15.6792 21.7861 15.6093 21.6188 15.4843C21.4514 15.3592 21.3264 15.1845 21.262 14.9859L20.3406 11.9036C20.3038 11.7896 20.2965 11.6682 20.3167 11.5505C20.3369 11.4328 20.3847 11.3206 20.4565 11.225C20.5282 11.1293 20.622 11.0521 20.7287 10.9988C20.8372 10.9454 20.9549 10.9197 21.0744 10.9215H24.3498C24.4675 10.9215 24.5815 10.9602 24.6716 11.0337C24.7636 11.1073 24.828 11.2084 24.8537 11.3225C24.8684 11.396 24.8666 11.4696 24.8482 11.5413C24.8298 11.613 24.7967 11.6811 24.7489 11.7381C24.7011 11.7951 24.6422 11.8411 24.576 11.8742C24.5098 11.9054 24.4362 11.9238 24.3627 11.9238H21.3962L22.2146 14.6733H24.8133L26.3875 8.52889C26.4868 8.18682 26.7057 7.89257 27.0018 7.69762L28.0721 7.04659C28.1824 6.97487 28.3185 6.94728 28.4491 6.97119C28.5797 6.9951 28.6974 7.06682 28.7765 7.17349C28.8133 7.2305 28.839 7.29303 28.8519 7.35923C28.8647 7.42544 28.8629 7.49349 28.8482 7.55969C28.8335 7.6259 28.8059 7.68843 28.7673 7.7436C28.7287 7.79877 28.679 7.84475 28.6201 7.88153L27.5222 8.54912C27.4468 8.60981 27.3898 8.69073 27.3567 8.78268L25.7751 14.9693C25.7218 15.1753 25.6004 15.3574 25.4312 15.488C25.262 15.6185 25.056 15.6884 24.8427 15.6884L24.8445 15.6847Z" fill="black"/>
<path d="M22.2666 16.5417C22.2666 16.8176 22.491 17.042 22.7668 17.042C23.0427 17.042 23.2671 16.8176 23.2671 16.5417C23.2671 16.2659 23.0427 16.0415 22.7668 16.0415C22.491 16.0415 22.2666 16.2659 22.2666 16.5417Z" fill="black"/>
<path d="M24.1865 16.5417C24.1865 16.8176 24.4109 17.042 24.6868 17.042C24.9626 17.042 25.187 16.8176 25.187 16.5417C25.187 16.2659 24.9626 16.0415 24.6868 16.0415C24.4109 16.0415 24.1865 16.2659 24.1865 16.5417Z" fill="black"/>
<path d="M30.7368 18.1123C31.0164 18.3312 31.421 18.2834 31.6417 18.0038C33.1902 16.0323 33.9129 13.5735 33.6738 11.076C33.4348 8.58038 32.2614 6.30176 30.3672 4.65946C28.4729 3.01716 26.049 2.17854 23.546 2.29624C21.0412 2.41394 18.7092 3.47693 16.9768 5.29026C15.2444 7.1036 14.2899 9.48337 14.2881 11.99C14.2862 14.4967 15.2352 16.8783 16.9621 18.6953C18.689 20.5123 21.021 21.5808 23.524 21.7041C23.6858 21.7114 23.8476 21.7151 24.0095 21.7151C26.3396 21.7151 28.5759 20.8857 30.3506 19.3537C30.6191 19.122 30.6485 18.7156 30.4168 18.4452C30.1851 18.1767 29.7787 18.1454 29.5083 18.379C27.8623 19.8006 25.7584 20.5234 23.5865 20.4167C21.4145 20.31 19.3934 19.3831 17.8945 17.807C16.3957 16.231 15.5718 14.1657 15.5736 11.99C15.5754 9.8144 16.4049 7.75095 17.9074 6.17854C19.4099 4.60613 21.4329 3.68291 23.6049 3.57992C25.7787 3.47693 27.8789 4.20521 29.5212 5.63049C31.1653 7.05578 32.1842 9.03279 32.3902 11.1974C32.5961 13.362 31.9708 15.4972 30.6265 17.2057C30.4076 17.4852 30.4554 17.8898 30.735 18.1105L30.7368 18.1123Z" fill="black"/>
<path d="M32.5851 3.6145C30.4095 1.38921 27.4982 0.107371 24.3865 0.00622161C21.2785 -0.0930887 18.2881 0.999325 15.9745 3.08116C15.7097 3.31841 15.6895 3.72668 15.9267 3.98967C16.164 4.2545 16.5722 4.27473 16.8352 4.03749C18.9005 2.17818 21.5654 1.20346 24.346 1.29358C27.1231 1.38369 29.7217 2.5276 31.6637 4.51381C33.6058 6.50185 34.689 9.12622 34.7129 11.9051C34.7368 14.6839 33.7014 17.3285 31.7943 19.3497C29.8872 21.3708 27.3106 22.5607 24.5336 22.7005C21.7585 22.8421 19.0734 21.9115 16.9768 20.0908C14.8785 18.2683 13.5837 15.7414 13.3318 12.9736C13.0798 10.2058 13.8964 7.48576 15.6306 5.31565C15.8532 5.03795 15.8072 4.63335 15.5295 4.41082C15.2518 4.18829 14.8472 4.23427 14.6247 4.51197C12.6826 6.94323 11.7686 9.99059 12.05 13.0894C12.3332 16.1901 13.7824 19.0205 16.1327 21.0619C18.3304 22.969 21.1001 24.0007 23.9911 24.0007C24.1934 24.0007 24.3957 23.9952 24.598 23.986C27.706 23.8315 30.5952 22.4982 32.7304 20.2324C34.8656 17.9685 36.026 15.0058 35.9985 11.894C35.9709 8.78231 34.7571 5.84162 32.5833 3.6145H32.5851Z" fill="black"/>
<path d="M27.1562 9.57348L29.9406 9.24612H27.239L27.1562 9.57348Z" fill="black"/>
<path d="M26.9297 10.4599L31.3729 9.89163H27.0731L26.9297 10.4599Z" fill="black"/>
<g clip-path="url(#clip0_1_81)">
<path d="M1.99749 38.5865L0.0210748 33.1322C-0.0402459 32.951 0.041515 32.8251 0.228622 32.8251H1.17202C1.23921 32.8232 1.30516 32.8431 1.35952 32.8817C1.41387 32.9204 1.45355 32.9755 1.47233 33.0386L2.87013 37.4103L4.18302 33.0493C4.19782 32.9833 4.23612 32.9245 4.29111 32.8835C4.3461 32.8424 4.41421 32.8217 4.48334 32.8251H5.49592C5.56497 32.8221 5.63293 32.8428 5.68785 32.8838C5.74277 32.9248 5.78115 32.9834 5.79623 33.0493L7.11227 37.4042L8.49906 33.037C8.51465 32.9722 8.55354 32.915 8.60865 32.8759C8.66376 32.8367 8.73144 32.8182 8.79938 32.8236H9.77265C9.95818 32.8236 10.0415 32.951 9.97862 33.1307L7.96919 38.5865C7.95247 38.6488 7.91458 38.7037 7.86173 38.7422C7.80888 38.7807 7.74421 38.8006 7.67831 38.7984H6.55095C6.48204 38.8019 6.4141 38.7814 6.35915 38.7407C6.30419 38.7 6.26575 38.6415 6.25063 38.5758L4.99277 34.4851L3.71604 38.5727C3.70092 38.6385 3.66249 38.6969 3.60753 38.7376C3.55258 38.7784 3.48464 38.7988 3.41573 38.7954H2.2868C2.22152 38.7976 2.15739 38.7781 2.10486 38.7402C2.05234 38.7023 2.01449 38.6481 1.99749 38.5865Z" fill="black"/>
<path d="M10.0283 37.1063C10.0283 35.8963 10.4733 35.4509 11.8805 35.302L14.0535 35.0793C14.1022 35.0791 14.1502 35.0685 14.1943 35.0484C14.2384 35.0282 14.2775 34.9989 14.3089 34.9626C14.3403 34.9262 14.3633 34.8837 14.3762 34.8378C14.3891 34.7919 14.3916 34.7439 14.3837 34.697C14.3837 34.2609 14.2028 34.1995 13.6651 34.1995H10.7642C10.6841 34.1887 10.6113 34.1483 10.5609 34.0865C10.5106 34.0247 10.4865 33.9464 10.4937 33.8678V33.1C10.4887 33.0648 10.4919 33.0289 10.5029 32.9949C10.5138 32.961 10.5324 32.9299 10.5573 32.9039C10.5821 32.8778 10.6126 32.8575 10.6465 32.8445C10.6804 32.8314 10.7168 32.8258 10.7532 32.8282H13.6871C15.1777 32.8282 15.75 33.3749 15.75 34.5864V38.5297C15.7548 38.5645 15.7516 38.5999 15.7406 38.6334C15.7295 38.6668 15.7109 38.6974 15.6862 38.7228C15.6615 38.7483 15.6312 38.7681 15.5976 38.7806C15.564 38.7932 15.528 38.7982 15.4922 38.7954H14.6431C14.6071 38.7985 14.5709 38.7936 14.5371 38.7812C14.5034 38.7687 14.4729 38.749 14.448 38.7235C14.423 38.698 14.4043 38.6673 14.3932 38.6338C14.3821 38.6002 14.3788 38.5647 14.3837 38.5297V38.0307C14.1148 38.5405 13.7013 38.7985 12.8019 38.7985H12.2013C10.8145 38.7954 10.0283 38.3071 10.0283 37.1063ZM13.4701 37.4134C14.1541 37.4134 14.3837 37.2491 14.3837 36.5995V36.1066L12.1148 36.3293C11.5661 36.3815 11.4104 36.5335 11.4104 36.9281C11.4104 37.2936 11.6683 37.4072 12.1871 37.4072L13.4701 37.4134Z" fill="black"/>
<path d="M24.8938 38.5251V37.719C24.8913 37.658 24.902 37.5971 24.9253 37.5405C24.9487 37.4838 24.984 37.4327 25.0291 37.3904L28.2932 34.201H25.1643C25.1271 34.2026 25.0901 34.1962 25.0556 34.1825C25.0212 34.1687 24.9902 34.1479 24.9648 34.1213C24.9394 34.0948 24.9202 34.0632 24.9085 34.0287C24.8968 33.9942 24.8929 33.9576 24.897 33.9215V33.0923C24.8922 33.0573 24.8955 33.0216 24.9066 32.9879C24.9177 32.9543 24.9364 32.9234 24.9613 32.8977C24.9861 32.872 25.0165 32.852 25.0503 32.8391C25.084 32.8263 25.1203 32.821 25.1564 32.8236H29.9677C30.0039 32.821 30.0401 32.8263 30.0739 32.8391C30.1077 32.852 30.1381 32.872 30.1629 32.8977C30.1878 32.9234 30.2064 32.9543 30.2175 32.9879C30.2287 33.0216 30.232 33.0573 30.2272 33.0923V33.9C30.2292 33.961 30.2183 34.0217 30.195 34.0782C30.1717 34.1348 30.1366 34.186 30.092 34.2286L26.8467 37.4088H29.9913C30.1564 37.4088 30.2288 37.5071 30.2288 37.6775V38.5313C30.2336 38.5662 30.2304 38.6018 30.2192 38.6353C30.2081 38.6689 30.1894 38.6995 30.1645 38.725C30.1395 38.7506 30.1091 38.7703 30.0753 38.7827C30.0415 38.7952 30.0053 38.8 29.9693 38.7969H25.158C25.1211 38.801 25.0836 38.7966 25.0487 38.7842C25.0138 38.7717 24.9823 38.7515 24.9567 38.7252C24.9311 38.6989 24.9121 38.6671 24.9012 38.6324C24.8903 38.5977 24.8878 38.561 24.8938 38.5251Z" fill="black"/>
<path d="M36.9576 35.1515V36.4368C36.9576 37.9539 36.4718 38.7939 34.8161 38.7939H33.8224C33.0253 38.7939 32.5646 38.5589 32.3224 38.1136V40.6181C32.3273 40.653 32.324 40.6886 32.3129 40.7221C32.3018 40.7557 32.283 40.7863 32.2581 40.8119C32.2332 40.8374 32.2027 40.8571 32.169 40.8695C32.1352 40.882 32.099 40.8868 32.063 40.8837H31.2187C31.1827 40.8868 31.1465 40.882 31.1127 40.8695C31.0789 40.8571 31.0484 40.8374 31.0235 40.8119C30.9986 40.7863 30.9799 40.7557 30.9687 40.7221C30.9576 40.6886 30.9544 40.653 30.9592 40.6181V33.0939C30.9545 33.0587 30.9578 33.023 30.9689 32.9893C30.98 32.9555 30.9986 32.9246 31.0235 32.8988C31.0483 32.8729 31.0787 32.8528 31.1124 32.8398C31.1462 32.8268 31.1824 32.8213 31.2187 32.8236H32.0677C32.1039 32.8212 32.1401 32.8267 32.1738 32.8397C32.2075 32.8527 32.2378 32.8729 32.2625 32.8988C32.2872 32.9247 32.3057 32.9556 32.3166 32.9894C32.3275 33.0231 32.3306 33.0588 32.3256 33.0939V33.5085C32.574 33.0632 33.0284 32.8236 33.8256 32.8236H34.8193C36.4749 32.8221 36.9576 33.6728 36.9576 35.1515ZM35.5944 35.1807C35.5944 34.4805 35.4058 34.1995 34.7847 34.1995H33.1369C32.5771 34.1995 32.3303 34.462 32.3303 35.1838V36.3569C32.3303 37.0894 32.5771 37.4072 33.1353 37.4072H34.7941C35.4152 37.4072 35.6007 37.0756 35.6007 36.3631L35.5944 35.1807Z" fill="black"/>
<path d="M37.5615 37.1032C37.5615 35.8932 38.0065 35.4479 39.4137 35.2989L41.5867 35.0763C41.6354 35.076 41.6835 35.0654 41.7277 35.0453C41.7719 35.0251 41.811 34.9959 41.8426 34.9596C41.8741 34.9232 41.8972 34.8807 41.9103 34.8349C41.9234 34.789 41.9261 34.7409 41.9184 34.6939C41.9184 34.2578 41.7329 34.201 41.1952 34.201H38.3005C38.2646 34.2041 38.2283 34.1992 38.1946 34.1868C38.1608 34.1743 38.1303 34.1546 38.1054 34.1291C38.0805 34.1036 38.0617 34.0729 38.0506 34.0394C38.0395 34.0058 38.0362 33.9703 38.0411 33.9354L38.0269 33.0908C38.0219 33.0558 38.025 33.0202 38.0359 32.9865C38.0468 32.9528 38.0653 32.922 38.09 32.8962C38.1148 32.8704 38.1451 32.8504 38.1788 32.8375C38.2125 32.8247 38.2487 32.8194 38.2848 32.8221H41.2235C42.714 32.8221 43.2848 33.3672 43.2848 34.5772V38.5267C43.2894 38.5615 43.2859 38.5969 43.2747 38.6302C43.2635 38.6636 43.2447 38.694 43.2198 38.7194C43.1949 38.7447 43.1645 38.7643 43.1309 38.7766C43.0972 38.789 43.0612 38.7938 43.0254 38.7908H42.1763C42.1405 38.7939 42.1045 38.7891 42.0709 38.7767C42.0373 38.7643 42.007 38.7447 41.9823 38.7194C41.9575 38.694 41.9389 38.6635 41.9278 38.6301C41.9168 38.5968 41.9136 38.5614 41.9184 38.5267V38.0276C41.6496 38.5359 41.2361 38.7954 40.3351 38.7954H39.7345C38.3477 38.7908 37.5615 38.3025 37.5615 37.1032ZM40.9939 37.4103C41.6763 37.4103 41.9184 37.2982 41.9184 36.618V36.1051L39.6417 36.3385C39.093 36.3922 38.9389 36.5519 38.9389 36.965C38.9389 37.3474 39.2203 37.4072 39.7376 37.4072L40.9939 37.4103Z" fill="black"/>
<path d="M44.9405 41.134V40.3079C44.9405 40.1267 45.0332 40.0238 45.1983 40.0238H47.8178C48.4373 40.0238 48.6354 39.7751 48.6354 39.0626V38.0215C48.3964 38.5297 47.9625 38.7892 47.1339 38.7892H46.203C44.5364 38.7892 44.0615 37.8955 44.0615 36.2755V33.1077C44.0615 32.9265 44.1511 32.8205 44.3162 32.8205H45.1653C45.3304 32.8205 45.4263 32.9265 45.4263 33.1077V36.4368C45.4263 37.2291 45.6134 37.4072 46.2235 37.4072H47.8304C48.3791 37.4072 48.6354 37.2537 48.6354 36.4368V33.1077C48.6354 32.9265 48.7282 32.8221 48.8933 32.8221H49.7408C49.9074 32.8221 50.0002 32.9265 50.0002 33.1077V38.9044C50.0002 40.4538 49.4735 41.4166 47.8178 41.4166H45.1983C45.0332 41.4166 44.9405 41.3152 44.9405 41.134Z" fill="black"/>
<path d="M19.4504 40.3617C19.7951 40.3617 20.0746 40.0887 20.0746 39.752C20.0746 39.4154 19.7951 39.1424 19.4504 39.1424C19.1056 39.1424 18.8262 39.4154 18.8262 39.752C18.8262 40.0887 19.1056 40.3617 19.4504 40.3617Z" fill="#FFC235"/>
<path d="M21.8439 40.3617C22.1887 40.3617 22.4682 40.0887 22.4682 39.752C22.4682 39.4154 22.1887 39.1424 21.8439 39.1424C21.4992 39.1424 21.2197 39.4154 21.2197 39.752C21.2197 40.0887 21.4992 40.3617 21.8439 40.3617Z" fill="#FFC235"/>
<path d="M24.7876 31.5338H30.1885L24.6162 32.2278L24.7876 31.5338Z" fill="#FFC235"/>
<path d="M24.9809 30.746H28.4007L24.8818 31.1499L24.9809 30.746Z" fill="#FFC235"/>
<path d="M22.0425 38.7094H18.7406C18.4796 38.7036 18.2268 38.6185 18.0175 38.4661C17.8082 38.3137 17.6526 38.1014 17.5724 37.8587L16.4214 34.1027C16.3765 33.9634 16.3662 33.8157 16.3913 33.6717C16.4164 33.5277 16.4761 33.3916 16.5657 33.2746C16.6552 33.1576 16.7719 33.0631 16.9062 32.9988C17.0405 32.9346 17.1886 32.9024 17.3381 32.905H21.4261C21.5723 32.904 21.7144 32.9519 21.8289 33.0407C21.9433 33.1296 22.0231 33.254 22.0551 33.3933C22.0729 33.482 22.0705 33.5734 22.0479 33.661C22.0254 33.7487 21.9834 33.8304 21.9248 33.9003C21.8663 33.9703 21.7926 34.0268 21.7091 34.0657C21.6256 34.1047 21.5344 34.1252 21.4419 34.1258H17.7406L18.7626 37.4764H18.7705H22.0048L23.9686 29.9874C24.0934 29.5716 24.3653 29.2124 24.7359 28.974L26.0724 28.1801C26.2112 28.0919 26.3792 28.0587 26.5422 28.0872C26.7052 28.1157 26.8509 28.2039 26.9497 28.3336C26.9965 28.4023 27.0286 28.4794 27.0442 28.5604C27.0598 28.6414 27.0585 28.7247 27.0405 28.8052C27.0225 28.8857 26.988 28.9619 26.9392 29.0291C26.8904 29.0964 26.8282 29.1533 26.7563 29.1966L25.3868 30.0105C25.2924 30.0849 25.2206 30.1831 25.1793 30.2946L23.206 37.8341C23.1388 38.0853 22.988 38.3076 22.7774 38.466C22.5668 38.6244 22.3083 38.71 22.0425 38.7094Z" fill="black"/>
</g>
<defs>
<clipPath id="clip0_1_81">
<rect width="50" height="13.4146" fill="white" transform="translate(0 28.002)"/>
</clipPath>
</defs>
</svg>
