<svg width="140" height="48" viewBox="0 0 140 48" fill="none" xmlns="http://www.w3.org/2000/svg">
<path fill-rule="evenodd" clip-rule="evenodd" d="M80.303 24.7355H77.7946V12.3429H77.7307L69.8645 22.22L62.0623 12.3429H61.9983V24.7355H59.4971V9.5929H62.6307L69.8929 18.731L77.1764 9.5929H80.303V24.7355Z" fill="#004C91"/>
<path fill-rule="evenodd" clip-rule="evenodd" d="M98.4799 16.9261C100.207 17.5088 101.074 18.7808 101.074 20.7491C101.074 23.3996 99.1621 24.7283 95.3392 24.7283H83.2734V9.58578H95.5097C97.0375 9.58578 98.2455 9.96239 99.1266 10.7085C100.008 11.4546 100.441 12.4637 100.441 13.7214C100.441 15.0999 99.7874 16.1658 98.4799 16.9261ZM95.5523 15.9171C96.2416 15.9171 96.8314 15.7181 97.2933 15.3202C97.7623 14.9152 97.9968 14.432 97.9968 13.8564C97.9968 13.2382 97.7836 12.7479 97.3643 12.3784C96.9451 12.016 96.3766 11.8383 95.6589 11.8383H85.7818V15.9171H95.5523ZM95.3605 22.4616C97.4496 22.4616 98.4942 21.7723 98.4942 20.3938C98.4942 18.9158 97.5775 18.1696 95.7584 18.1696H85.7818V22.4545H95.3605V22.4616Z" fill="#004C91"/>
<path fill-rule="evenodd" clip-rule="evenodd" d="M116.99 13.1387C114.745 11.9875 112.45 11.4262 110.126 11.4262C108.577 11.4262 107.39 11.6109 106.573 11.9662C105.749 12.3357 105.337 12.8331 105.337 13.4726C105.337 14.1406 105.777 14.6309 106.658 14.9364C107.284 15.1567 108.307 15.3131 109.728 15.3983C111.817 15.5333 113.196 15.6399 113.871 15.7323C115.768 15.981 117.168 16.45 118.078 17.1322C118.98 17.8143 119.435 18.7878 119.435 20.0455C119.435 21.6444 118.717 22.8808 117.303 23.769C115.882 24.643 113.842 25.0836 111.171 25.0836C107.305 25.0836 104.306 24.238 102.153 22.5326L103.539 20.7135C105.912 22.1631 108.463 22.8879 111.192 22.8879C112.968 22.8879 114.34 22.6463 115.313 22.156C116.244 21.6799 116.72 21.0333 116.72 20.209C116.72 19.2497 116.109 18.6102 114.88 18.2833C114.233 18.1128 112.507 17.9422 109.693 17.7575C107.191 17.5869 105.443 17.253 104.434 16.7555C103.262 16.1658 102.679 15.1852 102.679 13.8066C102.679 12.4281 103.347 11.2627 104.676 10.4384C106.005 9.61417 107.888 9.20203 110.311 9.20203C113.572 9.20203 116.301 9.94814 118.504 11.4333L116.983 13.1316L116.99 13.1387Z" fill="#004C91"/>
<path fill-rule="evenodd" clip-rule="evenodd" d="M136.887 16.9261C138.6 17.5088 139.467 18.7808 139.467 20.7491C139.467 23.3996 137.555 24.7283 133.747 24.7283H121.674V9.58578H133.924C135.438 9.58578 136.653 9.96239 137.527 10.7085C138.394 11.4546 138.849 12.4637 138.849 13.7214C138.849 15.0999 138.209 16.1658 136.887 16.9261ZM133.96 15.9171C134.649 15.9171 135.218 15.7181 135.701 15.3202C136.156 14.9152 136.39 14.432 136.39 13.8564C136.39 13.2382 136.17 12.7479 135.772 12.3784C135.345 12.016 134.791 11.8383 134.052 11.8383H124.182V15.9171H133.96ZM133.768 22.4616C135.857 22.4616 136.902 21.7723 136.902 20.3938C136.902 18.9158 135.992 18.1696 134.145 18.1696H124.182V22.4545H133.768V22.4616Z" fill="#004C91"/>
<path fill-rule="evenodd" clip-rule="evenodd" d="M69.0544 33.3264C70.1487 33.6959 70.6888 34.4988 70.6888 35.7352C70.6888 37.398 69.4879 38.2365 67.0861 38.2365H59.4971V28.7147H67.1927C68.1591 28.7147 68.9123 28.9492 69.4666 29.4252C70.0208 29.9013 70.298 30.5338 70.298 31.3154C70.298 32.1894 69.8858 32.8574 69.0615 33.3264H69.0544ZM67.214 32.701C67.6546 32.701 68.017 32.5731 68.3154 32.3244C68.5997 32.0757 68.7489 31.7702 68.7489 31.4078C68.7489 31.0241 68.621 30.7185 68.3581 30.484C68.0951 30.2566 67.7327 30.1429 67.2851 30.1429H61.0746V32.7081H67.2211L67.214 32.701ZM67.0932 36.8153C68.4078 36.8153 69.0686 36.3819 69.0686 35.515C69.0686 34.5841 68.4931 34.1151 67.3419 34.1151H61.0675V36.8082H67.0932V36.8153Z" fill="#004C91"/>
<path fill-rule="evenodd" clip-rule="evenodd" d="M83.2093 38.2365H81.4755L80.3812 36.1047H73.9575L72.8632 38.2365H71.1436L76.1816 28.7147H78.1641L83.2093 38.2365ZM79.6137 34.6836L77.1835 30.0719L74.732 34.6836H79.6137Z" fill="#004C91"/>
<path fill-rule="evenodd" clip-rule="evenodd" d="M94.8204 38.2365H92.8521L85.5828 30.4272V38.2365H84.0195V28.7147H85.9736L93.25 36.5311V28.7147H94.8204V38.2365Z" fill="#004C91"/>
<path fill-rule="evenodd" clip-rule="evenodd" d="M107.405 38.2365H105.387L100.825 33.234L97.9398 35.3444V38.2365H96.3623V28.7147H97.9398V33.6461L104.605 28.7147H106.886L102.019 32.3173L107.405 38.2365Z" fill="#004C91"/>
<path fill-rule="evenodd" clip-rule="evenodd" d="M23.9961 24.0035V7.5393L31.5212 0H47.9925V48L23.9961 24.0035Z" fill="#004C91"/>
<path fill-rule="evenodd" clip-rule="evenodd" d="M23.9964 24.0035V7.5393L16.4642 0H0V48L23.9964 24.0035Z" fill="#004C91"/>
<path fill-rule="evenodd" clip-rule="evenodd" d="M23.9961 24.0036V7.53931L47.9925 31.5358V48L23.9961 24.0036Z" fill="#26A6E0"/>
<path fill-rule="evenodd" clip-rule="evenodd" d="M23.9964 24.0036V7.53931L0 31.5358V48L23.9964 24.0036Z" fill="#9A9898"/>
</svg>
