<svg width="64" height="64" viewBox="0 0 64 64" fill="none" xmlns="http://www.w3.org/2000/svg">
<path d="M58.9923 51.9712C60.092 50.9931 60.8003 49.584 60.8003 48C60.8003 45.0592 58.4077 42.6667 55.4669 42.6667C52.5261 42.6667 50.1336 45.0592 50.1336 48C50.1336 49.584 50.8419 50.9931 51.9416 51.9712C48.9923 53.3163 46.9336 56.2859 46.9336 59.7333V62.9333C46.9336 63.5232 47.4115 64 48.0003 64H62.9336C63.5224 64 64.0003 63.5232 64.0003 62.9333V59.7333C64.0003 56.2859 61.9416 53.3163 58.9923 51.9712ZM52.2669 48C52.2669 46.2357 53.7027 44.8 55.4669 44.8C57.2312 44.8 58.6669 46.2357 58.6669 48C58.6669 49.7643 57.2312 51.2 55.4669 51.2C53.7027 51.2 52.2669 49.7643 52.2669 48ZM61.8669 61.8667H49.0669V59.7333C49.0669 56.2037 51.9373 53.3333 55.4669 53.3333C58.9965 53.3333 61.8669 56.2037 61.8669 59.7333V61.8667Z" fill="black"/>
<path d="M1.06667 64H16C16.5888 64 17.0667 63.5232 17.0667 62.9333V59.7333C17.0667 56.2859 15.008 53.3163 12.0587 51.9712C13.1584 50.9931 13.8667 49.584 13.8667 48C13.8667 45.0592 11.4741 42.6667 8.53333 42.6667C5.59253 42.6667 3.2 45.0592 3.2 48C3.2 49.584 3.90827 50.9931 5.008 51.9712C2.05867 53.3163 0 56.2859 0 59.7333V62.9333C0 63.5232 0.477867 64 1.06667 64ZM5.33333 48C5.33333 46.2357 6.76907 44.8 8.53333 44.8C10.2976 44.8 11.7333 46.2357 11.7333 48C11.7333 49.7643 10.2976 51.2 8.53333 51.2C6.76907 51.2 5.33333 49.7643 5.33333 48ZM2.13333 59.7333C2.13333 56.2037 5.00373 53.3333 8.53333 53.3333C12.0629 53.3333 14.9333 56.2037 14.9333 59.7333V61.8667H2.13333V59.7333Z" fill="black"/>
<path d="M23.4668 59.7333V62.9333C23.4668 63.5232 23.9447 64 24.5335 64H39.4668C40.0556 64 40.5335 63.5232 40.5335 62.9333V59.7333C40.5335 56.2859 38.4748 53.3163 35.5255 51.9712C36.6252 50.9931 37.3335 49.584 37.3335 48C37.3335 45.0592 34.9409 42.6667 32.0001 42.6667C29.0593 42.6667 26.6668 45.0592 26.6668 48C26.6668 49.584 27.3751 50.9931 28.4748 51.9712C25.5255 53.3163 23.4668 56.2859 23.4668 59.7333ZM28.8001 48C28.8001 46.2357 30.2359 44.8 32.0001 44.8C33.7644 44.8 35.2001 46.2357 35.2001 48C35.2001 49.7643 33.7644 51.2 32.0001 51.2C30.2359 51.2 28.8001 49.7643 28.8001 48ZM32.0001 53.3333C35.5297 53.3333 38.4001 56.2037 38.4001 59.7333V61.8667H25.6001V59.7333C25.6001 56.2037 28.4705 53.3333 32.0001 53.3333Z" fill="black"/>
<path d="M32.0004 6.39999C26.7076 6.39999 22.4004 10.7061 22.4004 16C22.4004 21.2939 26.7076 25.6 32.0004 25.6C37.2932 25.6 41.6004 21.2939 41.6004 16C41.6004 10.7061 37.2932 6.39999 32.0004 6.39999ZM32.0004 23.4667C27.8831 23.4667 24.5337 20.1163 24.5337 16C24.5337 11.8837 27.8831 8.53333 32.0004 8.53333C36.1177 8.53333 39.4671 11.8837 39.4671 16C39.4671 20.1163 36.1177 23.4667 32.0004 23.4667Z" fill="black"/>
<path d="M46.9333 20.2667C47.5221 20.2667 48 19.7899 48 19.2V12.8C48 12.2101 47.5221 11.7333 46.9333 11.7333L45.1723 11.7045C44.9504 11.0251 44.6752 10.3584 44.336 9.69813L45.5776 8.4576C45.7781 8.25707 45.8901 7.9872 45.8901 7.70347C45.8901 7.41973 45.7781 7.1488 45.5776 6.94933L41.0517 2.42453C40.6347 2.00747 39.9605 2.00747 39.5435 2.42453L38.2784 3.64907C37.6427 3.3248 36.9749 3.04853 36.2667 2.8224V1.06667C36.2667 0.4768 35.7888 0 35.2 0H28.8C28.2112 0 27.7333 0.4768 27.7333 1.06667L27.7056 2.82773C27.0251 3.04853 26.3584 3.3248 25.6981 3.664L24.4576 2.42347C24.0405 2.0064 23.3664 2.0064 22.9493 2.42347L18.4235 6.94827C18.2229 7.1488 18.1109 7.41867 18.1109 7.7024C18.1109 7.98613 18.2229 8.25707 18.4235 8.45653L19.648 9.72267C19.3248 10.3584 19.0496 11.0251 18.8224 11.7333H17.0667C16.4779 11.7333 16 12.2101 16 12.8V19.2C16 19.7899 16.4779 20.2667 17.0667 20.2667L18.8277 20.2955C19.0496 20.976 19.3248 21.6427 19.664 22.3019L18.4224 23.5424C18.2219 23.7429 18.1099 24.0128 18.1099 24.2965C18.1099 24.5803 18.2219 24.8512 18.4224 25.0507L22.9483 29.5755C23.3653 29.9925 24.0395 29.9925 24.4565 29.5755L25.7216 28.3509C26.3573 28.6752 27.024 28.9504 27.7323 29.1765V30.9333C27.7323 31.5232 28.2101 32 28.7989 32H35.1989C35.7877 32 36.2656 31.5232 36.2656 30.9333L36.2933 29.1723C36.9739 28.9515 37.6405 28.6752 38.2997 28.336L39.5413 29.5765C39.9584 29.9936 40.6325 29.9936 41.0496 29.5765L45.5755 25.0517C45.776 24.8512 45.888 24.5813 45.888 24.2976C45.888 24.0139 45.776 23.7429 45.5755 23.5435L44.3509 22.2763C44.6741 21.6427 44.9504 20.976 45.1765 20.2667H46.9333ZM43.1424 19.6352C42.9557 20.2101 42.7221 20.7723 42.4501 21.3099C42.0224 22.1515 42.1739 23.1563 42.8277 23.8101L43.3141 24.2965L40.2976 27.3131L39.8101 26.8267C39.1563 26.1717 38.1504 26.0192 37.3088 26.4501C36.7733 26.7232 36.2101 26.9557 35.6341 27.1424C34.736 27.4368 34.1333 28.2539 34.1333 29.1776V29.8667H29.8667V29.1776C29.8667 28.2549 29.264 27.4368 28.3637 27.1435C27.7899 26.9568 27.2277 26.7243 26.6912 26.4523C25.8496 26.0213 24.8448 26.1728 24.1909 26.8288L23.7035 27.3152L20.6869 24.2987L21.1733 23.8123C21.8261 23.1595 21.9776 22.1536 21.5499 21.3109C21.2779 20.7744 21.0443 20.2123 20.8576 19.6373C20.5643 18.7371 19.7472 18.1333 18.8224 18.1333H18.1333V13.8667H18.8224C19.7472 13.8667 20.5643 13.2629 20.8576 12.3648C21.0443 11.7909 21.2779 11.2277 21.5499 10.6901C21.9787 9.84853 21.8272 8.84373 21.1733 8.18987L20.6869 7.70347L23.7035 4.68693L24.1899 5.17333C24.8437 5.8272 25.8475 5.97973 26.6912 5.54987C27.2267 5.2768 27.7899 5.04427 28.3659 4.8576C29.264 4.5632 29.8667 3.74613 29.8667 2.8224V2.13333H34.1333V2.8224C34.1333 3.74507 34.736 4.5632 35.6363 4.85653C36.2101 5.0432 36.7723 5.27573 37.3088 5.54773C38.1504 5.9776 39.1563 5.82613 39.8101 5.1712L40.2965 4.6848L43.3131 7.70133L42.8267 8.18987C42.1728 8.84267 42.0213 9.84853 42.4491 10.6901C42.7221 11.2277 42.9557 11.7909 43.1413 12.3648C43.4357 13.2629 44.2528 13.8667 45.1776 13.8667H45.8667V18.1333H45.1776C44.2528 18.1333 43.4357 18.7371 43.1424 19.6352Z" fill="black"/>
<path d="M36.8594 15.1125L30.4594 10.8459C30.1309 10.6283 29.7106 10.6059 29.365 10.7925C29.0173 10.9781 28.8008 11.3397 28.8008 11.7333V20.2667C28.8008 20.6603 29.0173 21.0219 29.364 21.2075C29.5218 21.2917 29.6946 21.3333 29.8674 21.3333C30.0744 21.3333 30.2802 21.2725 30.4594 21.1541L36.8594 16.8875C37.156 16.6891 37.3341 16.3563 37.3341 16C37.3341 15.6437 37.156 15.3109 36.8594 15.1125ZM30.9341 18.2741V13.7259L34.3442 16L30.9341 18.2741Z" fill="black"/>
<path d="M30.9336 38.4H33.0669V40.5333H30.9336V38.4Z" fill="black"/>
<path d="M30.9336 34.1333H33.0669V36.2667H30.9336V34.1333Z" fill="black"/>
<path d="M11.7324 14.9333H13.8658V17.0667H11.7324V14.9333Z" fill="black"/>
<path d="M7.4668 14.9333H9.60013V17.0667H7.4668V14.9333Z" fill="black"/>
<path d="M7.4668 19.2H9.60013V21.3333H7.4668V19.2Z" fill="black"/>
<path d="M7.4668 23.4667H9.60013V25.6H7.4668V23.4667Z" fill="black"/>
<path d="M7.4668 27.7333H9.60013V29.8667H7.4668V27.7333Z" fill="black"/>
<path d="M7.4668 32H9.60013V34.1333H7.4668V32Z" fill="black"/>
<path d="M7.4668 36.2667H9.60013V38.4H7.4668V36.2667Z" fill="black"/>
<path d="M50.1328 14.9333H52.2661V17.0667H50.1328V14.9333Z" fill="black"/>
<path d="M54.4004 14.9333H56.5337V17.0667H54.4004V14.9333Z" fill="black"/>
<path d="M54.4004 19.2H56.5337V21.3333H54.4004V19.2Z" fill="black"/>
<path d="M54.4004 23.4667H56.5337V25.6H54.4004V23.4667Z" fill="black"/>
<path d="M54.4004 27.7333H56.5337V29.8667H54.4004V27.7333Z" fill="black"/>
<path d="M54.4004 32H56.5337V34.1333H54.4004V32Z" fill="black"/>
<path d="M54.4004 36.2667H56.5337V38.4H54.4004V36.2667Z" fill="black"/>
</svg>
