<svg width="16" height="16" viewBox="0 0 16 16" fill="none" xmlns="http://www.w3.org/2000/svg">
<path d="M8 0C6.41775 0 4.87103 0.463978 3.55544 1.33326C2.23985 2.20255 1.21447 3.43809 0.608967 4.88366C0.0034663 6.32923 -0.15496 7.91989 0.153721 9.45449C0.462403 10.9891 1.22433 12.3987 2.34315 13.5051C3.46197 14.6115 4.88743 15.365 6.43928 15.6702C7.99113 15.9755 9.59966 15.8188 11.0615 15.22C12.5233 14.6212 13.7727 13.6073 14.6518 12.3063C15.5308 11.0053 16 9.47578 16 7.91111C15.9975 5.81371 15.1538 3.80293 13.6541 2.31984C12.1543 0.836759 10.121 0.00247436 8 0ZM8 14.3838C6.70543 14.3838 5.43994 14.0042 4.36354 13.293C3.28715 12.5818 2.4482 11.5709 1.95279 10.3881C1.45738 9.20538 1.32776 7.90393 1.58032 6.64834C1.83288 5.39276 2.45627 4.23943 3.37167 3.3342C4.28707 2.42897 5.45335 1.81251 6.72305 1.56276C7.99274 1.313 9.30881 1.44119 10.5048 1.93109C11.7009 2.421 12.7231 3.25062 13.4423 4.31506C14.1616 5.37949 14.5455 6.63093 14.5455 7.91111C14.5433 9.62714 13.8531 11.2723 12.626 12.4857C11.3989 13.6991 9.73531 14.3817 8 14.3838Z" fill="#494949"/>
<path d="M8.72749 7.61346V3.59605C8.72749 3.40531 8.65087 3.22238 8.51448 3.08751C8.37809 2.95263 8.19311 2.87686 8.00022 2.87686C7.80734 2.87686 7.62235 2.95263 7.48596 3.08751C7.34957 3.22238 7.27295 3.40531 7.27295 3.59605V7.9112C7.27299 8.10193 7.34964 8.28483 7.48604 8.41967L9.66786 10.5772C9.80502 10.7083 9.98873 10.7807 10.1794 10.7791C10.3701 10.7775 10.5525 10.7018 10.6874 10.5685C10.8222 10.4351 10.8987 10.2548 10.9003 10.0662C10.902 9.87762 10.8287 9.69595 10.6962 9.56031L8.72749 7.61346Z" fill="#494949"/>
</svg>
