<svg width="76" height="76" viewBox="0 0 76 76" fill="none" xmlns="http://www.w3.org/2000/svg">
<g clip-path="url(#clip0_1_3616)">
<path d="M67.3826 34.4146C67.3826 35.0704 66.8509 35.6021 66.1951 35.6021H38.1115C37.4557 35.6021 36.924 35.0704 36.924 34.4146C36.924 33.7588 37.4557 33.2271 38.1115 33.2271H66.1951C66.8509 33.2271 67.3826 33.7587 67.3826 34.4146ZM38.1115 42.773H55.4966C56.1524 42.773 56.6841 42.2413 56.6841 41.5855C56.6841 40.9297 56.1524 40.398 55.4966 40.398H38.1115C37.4557 40.398 36.924 40.9297 36.924 41.5855C36.924 42.2413 37.4557 42.773 38.1115 42.773ZM29.7063 17.5844C30.0359 18.6484 29.8533 19.7282 29.1923 20.6249C28.5312 21.5217 27.5537 22.0155 26.4398 22.0155H12.0439C10.93 22.0155 9.95257 21.5217 9.29143 20.6249C8.63029 19.7281 8.44786 18.6484 8.77739 17.5842C9.77846 14.3515 12.1454 11.8643 15.1353 10.6651C13.8966 9.54349 13.117 7.92359 13.117 6.12498C13.1168 2.74758 15.8645 0 19.2418 0C22.619 0 25.3668 2.74758 25.3668 6.12498C25.3668 7.92374 24.5872 9.54364 23.3483 10.6652C26.3383 11.8645 28.7053 14.3517 29.7063 17.5844ZM15.4918 6.12498C15.4918 8.19271 17.1741 9.87495 19.2418 9.87495C21.3095 9.87495 22.9918 8.19271 22.9918 6.12498C22.9918 4.05724 21.3095 2.375 19.2418 2.375C17.1741 2.375 15.4918 4.05724 15.4918 6.12498ZM27.4376 18.2869C26.3194 14.676 23.0258 12.25 19.2418 12.25C15.4578 12.25 12.1641 14.676 11.0461 18.2868C10.941 18.6259 10.9924 18.9298 11.2032 19.2157C11.4138 19.5016 11.6888 19.6405 12.0439 19.6405H26.4397C26.7947 19.6405 27.0698 19.5016 27.2804 19.2157C27.4912 18.9298 27.5426 18.6259 27.4376 18.2869ZM29.7063 44.5767C30.0359 45.6405 29.8533 46.7204 29.1923 47.6173C28.5312 48.514 27.5537 49.0078 26.4398 49.0078H12.0439C10.93 49.0078 9.95257 48.514 9.29143 47.6173C8.63029 46.7204 8.44786 45.6405 8.77739 44.5765C9.77846 41.3438 12.1454 38.8568 15.1353 37.6574C13.8966 36.5358 13.117 34.9161 13.117 33.1173C13.117 29.74 15.8647 26.9923 19.2419 26.9923C22.6192 26.9923 25.3669 29.74 25.3669 33.1173C25.3669 34.9161 24.5873 36.536 23.3485 37.6574C26.3383 38.8568 28.7053 41.3439 29.7063 44.5767ZM15.4918 33.1173C15.4918 35.185 17.1741 36.8673 19.2418 36.8673C21.3095 36.8673 22.9918 35.185 22.9918 33.1173C22.9918 31.0496 21.3095 29.3673 19.2418 29.3673C17.1741 29.3673 15.4918 31.0496 15.4918 33.1173ZM27.4376 45.2792C26.3194 41.6683 23.0258 39.2421 19.2418 39.2421C15.4578 39.2421 12.1641 41.6683 11.0461 45.2791C10.941 45.6183 10.9924 45.9221 11.2032 46.208C11.4139 46.4939 11.6888 46.6328 12.0439 46.6328H26.4397C26.7947 46.6328 27.0696 46.4937 27.2804 46.208C27.4912 45.9223 27.5426 45.6183 27.4376 45.2792ZM29.7063 71.5688C30.0359 72.6327 29.8533 73.7126 29.1923 74.6093C28.5313 75.506 27.5537 75.9998 26.4398 75.9998H12.0439C10.93 75.9998 9.95243 75.506 9.29143 74.6094C8.63029 73.7126 8.44786 72.6327 8.77739 71.5687C9.77846 68.336 12.1454 65.8488 15.1353 64.6496C13.8966 63.528 13.117 61.9081 13.117 60.1095C13.117 56.7322 15.8647 53.9845 19.2419 53.9845C22.6192 53.9845 25.3669 56.7322 25.3669 60.1095C25.3669 61.9081 24.5873 63.5281 23.3485 64.6496C26.3383 65.849 28.7053 68.3362 29.7063 71.5688ZM15.4918 60.1095C15.4918 62.1772 17.1741 63.8594 19.2418 63.8594C21.3095 63.8594 22.9918 62.1772 22.9918 60.1095C22.9918 58.0417 21.3095 56.3595 19.2418 56.3595C17.1741 56.3595 15.4918 58.0419 15.4918 60.1095ZM27.4376 72.2715C26.3194 68.6605 23.0258 66.2344 19.2418 66.2344C15.4578 66.2344 12.1641 68.6605 11.0461 72.2714C10.941 72.6106 10.9924 72.9144 11.2032 73.2003C11.4138 73.4862 11.6888 73.625 12.0439 73.625H26.4397C26.7947 73.625 27.0698 73.4861 27.2804 73.2003C27.4912 72.9144 27.5426 72.6106 27.4376 72.2715ZM38.1115 15.7807H55.4966C56.1524 15.7807 56.6841 15.249 56.6841 14.5932C56.6841 13.9374 56.1524 13.4057 55.4966 13.4057H38.1115C37.4557 13.4057 36.924 13.9374 36.924 14.5932C36.924 15.249 37.4557 15.7807 38.1115 15.7807ZM38.1115 8.60982H66.1951C66.8509 8.60982 67.3826 8.07812 67.3826 7.42232C67.3826 6.76652 66.8509 6.23482 66.1951 6.23482H38.1115C37.4557 6.23482 36.924 6.76652 36.924 7.42232C36.924 8.07812 37.4557 8.60982 38.1115 8.60982ZM66.1951 60.2193H38.1115C37.4557 60.2193 36.924 60.751 36.924 61.4068C36.924 62.0626 37.4557 62.5943 38.1115 62.5943H66.1951C66.8509 62.5943 67.3826 62.0626 67.3826 61.4068C67.3826 60.751 66.8509 60.2193 66.1951 60.2193ZM55.4966 67.3902H38.1115C37.4557 67.3902 36.924 67.9219 36.924 68.5777C36.924 69.2335 37.4557 69.7652 38.1115 69.7652H55.4966C56.1524 69.7652 56.6841 69.2335 56.6841 68.5777C56.6841 67.9219 56.1526 67.3902 55.4966 67.3902Z" fill="black"/>
</g>
<defs>
<clipPath id="clip0_1_3616">
<rect width="76" height="76" fill="white"/>
</clipPath>
</defs>
</svg>
