<svg width="15" height="10" viewBox="0 0 15 10" fill="none" xmlns="http://www.w3.org/2000/svg">
<path fill-rule="evenodd" clip-rule="evenodd" d="M3.94893 5.78988H10.267C10.703 5.78988 11.0567 5.43627 11.0567 5.00041C11.0567 4.56456 10.703 4.21094 10.267 4.21094H3.94893C3.51292 4.21094 3.15918 4.56456 3.15918 5.00041C3.15918 5.43627 3.51292 5.78988 3.94893 5.78988Z" fill="#808080"/>
<path fill-rule="evenodd" clip-rule="evenodd" d="M5.56 6.02212L4.53957 5.00107L5.56 3.98002C5.86866 3.67278 5.86866 3.17146 5.56 2.86423C5.25265 2.55567 4.75116 2.55567 4.44382 2.86423L2.86431 4.44317C2.55565 4.75173 2.55565 5.25041 2.86431 5.55896L4.44382 7.13791C4.75116 7.44646 5.25265 7.44646 5.56 7.13791C5.86866 6.83067 5.86866 6.32936 5.56 6.02212Z" fill="#808080"/>
<path fill-rule="evenodd" clip-rule="evenodd" d="M9.77151 7.13791L11.351 5.55896C11.6597 5.25041 11.6597 4.75173 11.351 4.44317L9.77151 2.86423C9.46416 2.55567 8.96267 2.55567 8.65532 2.86423C8.34666 3.17146 8.34666 3.67278 8.65532 3.98002L9.67575 5.00107L8.65532 6.02212C8.34666 6.32936 8.34666 6.83067 8.65532 7.13791C8.96267 7.44646 9.46416 7.44646 9.77151 7.13791Z" fill="#808080"/>
<path fill-rule="evenodd" clip-rule="evenodd" d="M0 0.789474V9.21053C0 9.64638 0.353744 10 0.789754 10C1.22576 10 1.57951 9.64638 1.57951 9.21053V0.789474C1.57951 0.353618 1.22576 0 0.789754 0C0.353744 0 0 0.353618 0 0.789474Z" fill="#808080"/>
<path fill-rule="evenodd" clip-rule="evenodd" d="M12.6357 0.789474V9.21053C12.6357 9.64638 12.9895 10 13.4255 10C13.8615 10 14.2152 9.64638 14.2152 9.21053V0.789474C14.2152 0.353618 13.8615 0 13.4255 0C12.9895 0 12.6357 0.353618 12.6357 0.789474Z" fill="#808080"/>
</svg>
