<svg width="20" height="20" viewBox="0 0 20 20" fill="none" xmlns="http://www.w3.org/2000/svg">
<path fill-rule="evenodd" clip-rule="evenodd" d="M12.3845 5.99157C10.619 4.22605 7.75652 4.22605 5.99108 5.99157C4.22556 7.75709 4.22556 10.6196 5.99108 12.385C7.75661 14.1506 10.6191 14.1506 12.3845 12.385C14.15 10.6195 14.1501 7.75701 12.3845 5.99157ZM5.04822 5.04871C7.33452 2.76241 11.0411 2.76241 13.3274 5.04871C15.4542 7.17561 15.6025 10.5319 13.7723 12.8299L16.4716 15.5293C16.7319 15.7896 16.7319 16.2117 16.4716 16.4721C16.2112 16.7324 15.7891 16.7324 15.5288 16.4721L12.8294 13.7728C10.5312 15.603 7.17509 15.4547 5.04822 13.3279C2.76192 11.0416 2.76192 7.33501 5.04822 5.04871Z" fill="#636363"/>
</svg>
