<svg width="3" height="14" viewBox="0 0 3 14" fill="none" xmlns="http://www.w3.org/2000/svg">
<path d="M1.5 3C2.32843 3 3 2.32843 3 1.5C3 0.671573 2.32843 0 1.5 0C0.671573 0 0 0.671573 0 1.5C0 2.32843 0.671573 3 1.5 3Z" fill="#808080"/>
<path d="M1.5 8.25C2.32843 8.25 3 7.57843 3 6.75C3 5.92157 2.32843 5.25 1.5 5.25C0.671573 5.25 0 5.92157 0 6.75C0 7.57843 0.671573 8.25 1.5 8.25Z" fill="#808080"/>
<path d="M1.5 13.4999C2.32843 13.4999 3 12.8283 3 11.9999C3 11.1715 2.32843 10.4999 1.5 10.4999C0.671573 10.4999 0 11.1715 0 11.9999C0 12.8283 0.671573 13.4999 1.5 13.4999Z" fill="#808080"/>
</svg>
