<svg width="22" height="19" viewBox="0 0 22 19" fill="none" xmlns="http://www.w3.org/2000/svg">
<g filter="url(#filter0_d_0_659)">
<mask id="path-1-inside-1_0_659" fill="white">
<path d="M8.49969 10.5012C8.2045 10.5012 7.91048 10.3892 7.68296 10.1675L4.3495 6.9006C3.8898 6.45022 3.8828 5.71166 4.33317 5.25079C4.78471 4.78992 5.52444 4.78408 5.98298 5.23329L8.49969 7.701L16.016 0.334032C16.4769 -0.11634 17.2154 -0.111673 17.6658 0.350367C18.1174 0.810073 18.1104 1.5498 17.6506 2.00018L9.31643 10.1675C9.08891 10.3892 8.79489 10.5012 8.49969 10.5012Z"/>
</mask>
<path d="M8.49969 10.5012C8.2045 10.5012 7.91048 10.3892 7.68296 10.1675L4.3495 6.9006C3.8898 6.45022 3.8828 5.71166 4.33317 5.25079C4.78471 4.78992 5.52444 4.78408 5.98298 5.23329L8.49969 7.701L16.016 0.334032C16.4769 -0.11634 17.2154 -0.111673 17.6658 0.350367C18.1174 0.810073 18.1104 1.5498 17.6506 2.00018L9.31643 10.1675C9.08891 10.3892 8.79489 10.5012 8.49969 10.5012Z" fill="#00599D"/>
<path d="M7.68296 10.1675L-7.24924 25.4037L-7.22706 25.4254L-7.20482 25.4471L7.68296 10.1675ZM4.3495 6.9006L19.2817 -8.33557L19.2789 -8.33826L4.3495 6.9006ZM4.33317 5.25079L-10.9053 -9.67905L-10.915 -9.6692L-10.9246 -9.65933L4.33317 5.25079ZM5.98298 5.23329L20.9189 -9.99923L20.912 -10.006L5.98298 5.23329ZM8.49969 7.701L-6.43623 22.9335L8.49666 37.5756L23.4325 22.9365L8.49969 7.701ZM16.016 0.334032L1.10589 -14.9237L1.09453 -14.9126L1.08319 -14.9015L16.016 0.334032ZM17.6658 0.350367L2.38922 15.2412L2.41769 15.2704L2.44628 15.2995L17.6658 0.350367ZM17.6506 2.00018L2.72121 -13.2387L2.71899 -13.2365L17.6506 2.00018ZM9.31643 10.1675L24.2042 25.4471L24.2262 25.4257L24.2481 25.4042L9.31643 10.1675ZM8.49969 -10.8321C13.624 -10.8321 18.7137 -8.87019 22.5707 -5.11202L-7.20482 25.4471C-2.89272 29.6487 2.78499 31.8346 8.49969 31.8346V-10.8321ZM22.6152 -5.06862L19.2817 -8.33557L-10.5827 22.1368L-7.24924 25.4037L22.6152 -5.06862ZM19.2789 -8.33826C27.26 -0.51924 27.3363 12.2349 19.5909 20.1609L-10.9246 -9.65933C-19.5708 -0.811586 -19.4804 13.4197 -10.5799 22.1395L19.2789 -8.33826ZM19.5716 20.1806C11.7642 28.1495 -1.0026 28.2543 -8.94606 20.4725L20.912 -10.006C12.0515 -18.6861 -2.19474 -18.5697 -10.9053 -9.67905L19.5716 20.1806ZM-8.95294 20.4658L-6.43623 22.9335L23.4356 -7.53151L20.9189 -9.99923L-8.95294 20.4658ZM23.4325 22.9365L30.9488 15.5696L1.08319 -14.9015L-6.43313 -7.53455L23.4325 22.9365ZM30.9261 15.5918C23.0498 23.2887 10.2645 23.3205 2.38922 15.2412L32.9424 -14.5405C24.1664 -23.5438 9.90397 -23.5214 1.10589 -14.9237L30.9261 15.5918ZM2.44628 15.2995C-5.35656 7.35554 -5.25252 -5.42687 2.72121 -13.2387L32.5801 17.239C41.4732 8.52647 41.5913 -5.73539 32.8854 -14.5988L2.44628 15.2995ZM2.71899 -13.2365L-5.61523 -5.06914L24.2481 25.4042L32.5823 17.2369L2.71899 -13.2365ZM-5.57135 -5.11202C-1.71428 -8.87019 3.37537 -10.8321 8.49969 -10.8321V31.8346C14.2144 31.8346 19.8921 29.6487 24.2042 25.4471L-5.57135 -5.11202Z" fill="#717171" mask="url(#path-1-inside-1_0_659)"/>
</g>
<defs>
<filter id="filter0_d_0_659" x="0" y="0" width="22" height="18.5012" filterUnits="userSpaceOnUse" color-interpolation-filters="sRGB">
<feFlood flood-opacity="0" result="BackgroundImageFix"/>
<feColorMatrix in="SourceAlpha" type="matrix" values="0 0 0 0 0 0 0 0 0 0 0 0 0 0 0 0 0 0 127 0" result="hardAlpha"/>
<feOffset dy="4"/>
<feGaussianBlur stdDeviation="2"/>
<feComposite in2="hardAlpha" operator="out"/>
<feColorMatrix type="matrix" values="0 0 0 0 0 0 0 0 0 0 0 0 0 0 0 0 0 0 0.25 0"/>
<feBlend mode="normal" in2="BackgroundImageFix" result="effect1_dropShadow_0_659"/>
<feBlend mode="normal" in="SourceGraphic" in2="effect1_dropShadow_0_659" result="shape"/>
</filter>
</defs>
</svg>
